<svg xmlns="http://www.w3.org/2000/svg" width="470" height="763" fill="none" viewBox="0 0 470 763">
  <g clip-path="url(#a)">
    <path fill="#8F171C" d="M377.491 131.015c20.745 54.442 38.397 110.101 56.968 165.298l23.25 68.848c3.986 12.12 8.382 24.35 11.456 36.733-68.303 30.829-137.106 60.498-205.193 91.805l-153.684 70.512c-32.85 15.062-65.628 30.523-98.894 44.643-2.34.994-5.93 3.183-8.477 2.239-1.092-.406-2.011-1.227-2.348-2.365-.373-1.263-.087-2.067.496-3.177 3.224-2.895 40.803-18.516 46.92-21.228l73.01-32.944 243.033-110.844c32.018-14.355 64.048-29.072 96.453-42.53-5.304-19.458-12.391-38.67-18.743-57.822a7357.888 7357.888 0 0 0-35.212-104.731l-21.199-60.844c-4.289-12.528-7.926-26.125-13.521-38.098 2.078-1.718 4.058-3.314 5.685-5.495Z"/>
    <path fill="#02020B" d="M330.32 488.174c11.768-1.148 22.754 1.027 33.294 6.37 11.192 5.674 19.839 13.687 29.87 20.907 5.509 3.966 12.14 6.509 17.88 10.207 16.816 10.837 30.337 29.531 36.444 48.438 8.861 27.435 3.496 58.69-13.418 81.952-2.97 4.085-6.203 7.785-9.763 11.363-2.475 2.488-5.738 5.111-7.711 7.994-2.141 3.129-3.034 7.241-4.847 10.594-6.224 11.513-21.112 21.715-33.021 26.56-14.188 5.771-30.747 7.856-45.742 10.977l-87.883 18.052c-12.541 2.565-26.796 4.5-38.993 7.806-7.13 1.932-14.224 6.392-21.625 8.754a101.07 101.07 0 0 1-11.617 2.677c-.737.123-1.475.236-2.215.34a87.016 87.016 0 0 1-4.451.516 88.012 88.012 0 0 1-4.472.297 92.89 92.89 0 0 1-4.48.077 93.061 93.061 0 0 1-6.715-.299 92.43 92.43 0 0 1-4.456-.474 91.76 91.76 0 0 1-8.816-1.601 90.797 90.797 0 0 1-14.896-4.854 88.58 88.58 0 0 1-4.081-1.85 93.62 93.62 0 0 1-3.986-2.049 91.303 91.303 0 0 1-9.481-5.957c-19.675-14.2-34.905-36.999-38.618-61.163-3.788-24.654 1.907-49.121 16.848-69.179 8.128-10.912 19.767-20.98 31.567-27.72 18.568-10.607 39.471-17.93 59.057-26.516l107.554-47.149c8.876-3.789 13.243-8.499 20.476-14.437 7.964-6.536 18.3-9.164 28.297-10.633Z"/>
    <path fill="#CDC9CA" d="m240.95 692.213.786.226c-1.357 6.437-4.857 13.438-7.817 19.277l-5.369-6.06c-3.177-3.478-6.352-6.923-9.242-10.649 7.043-1.578 14.464-2.032 21.642-2.794Zm-46.098 31.879c4.894.843 15.921 7.789 20.66 10.473-2.359 1.369-4.629 2.899-6.92 4.378-3.914 2.903-7.807 5.43-12.18 7.593-.672-6.827-2.997-15.811-1.56-22.444ZM82.55 627.463c4.993 4.784 9.754 10.676 13.898 16.206-4.065 1.504-8.34 2.537-12.514 3.698-3.455 1.388-7.124 2.427-10.661 3.601 2.292-8.257 4.956-16.068 9.278-23.505Zm122.672-30.085c6.705 4.327 12.343 9.342 17.906 15.009-3.336 1.287-6.639 2.681-9.952 4.028-2.626 1.18-5.365 2.607-8.106 3.472-1.2.379-1.925.546-3.037-.105-1.652-4.312 2.308-17.436 3.189-22.404ZM72.347 678.622c7.254 2.683 14.829 4.46 22.252 6.62-2.29 3.837-5.711 7.009-8.788 10.222-2.323 2.67-4.6 5.379-6.83 8.126-3.284-7.249-6.045-16.967-6.634-24.968Zm43.216 42.402c.084.078.174.149.25.234 1.836 2.063.688 20.268.616 24.099-3.607-2.422-7.012-4.998-10.398-7.72-3.861-3.159-7.542-6.435-11.031-10.001 6.989-1.807 13.733-4.295 20.563-6.612Zm5.502-129.628.6.245c1.456 4.03.901 17.588.727 22.645-4.657-1.742-9.2-3.798-13.749-5.802-2.969-1.148-6.088-1.964-9.141-2.866 6.65-5.734 13.784-10.178 21.563-14.222Zm31.279-7.904a112.315 112.315 0 0 1 25.496 2.284c-2.651 3.435-5.129 7.015-7.658 10.541-1.452 2.271-2.862 4.945-4.694 6.917-.772.832-.333.609-1.465.672-4.78-3.704-8.979-14.819-11.679-20.414Zm1.892 151.701 1.249.3c4.535 3.509 9.8 14.69 12.663 19.939-3.703.285-7.384.414-11.097.482-4.847-.256-9.609-.508-14.381-1.458 3.89-6.368 7.286-13.16 11.566-19.263Zm85.103-95.835.567.162c3.796 3.811 5.108 18.361 5.661 23.595-4.092-.985-8.144-2.209-12.199-3.34-2.81-.787-6.739-1.429-9.158-3.06-.943-.635-1.362-1.024-1.626-2.16 4.07-5.689 11.467-10.503 16.755-15.197Zm167.651 41.697.261.678a36.238 36.238 0 0 1-1.041 1.737c-6.682 10.414-18.197 18.693-29.491 23.416-14.186 5.933-30.61 7.063-45.586 10.219l-112.552 23.537-.272-.284.022-.721c2.959-2.899 6.125-5.603 9.22-8.356 31.669-5.369 63.138-12.257 94.588-18.78l28.51-6.011c7.75-1.67 15.711-3.079 23.097-6.031 7.267-2.904 13.223-7.676 19.72-11.885 4.318-2.797 8.976-5.122 13.524-7.519Zm-72.659-187.346c17.616-1.304 33.372 9.068 46.874 19.115-4.838-1.157-12.13-1.878-16.447-4.292-1.98-1.107-3.205-2.897-5.379-3.863-10.372-4.608-23.456-5.599-34.379-2.51-8.193 2.318-14.94 6.288-21.439 11.733-3.648 3.057-7.016 6.16-11.322 8.287-15.418 7.617-31.786 13.817-47.593 20.608-15.417 6.623-30.663 13.972-46.277 20.089-10.52 4.568-24.245 12.071-35.343 13.86-3.551.572-7.488.288-11.083.248 14.945-7.296 30.35-13.711 45.592-20.365l90.283-39.223c4.96-2.198 8.459-5.41 12.449-8.998 10.477-9.419 20.013-13.319 34.064-14.689Z"/>
    <path fill="url(#b)" d="M445.55 598.836c.061 1.703.067 3.407.019 5.111-.82 24.162-11.173 46.129-28.846 62.51-16.181 14.996-41.33 23.265-63.232 22.412-22.574-.879-44.848-12.057-60.092-28.538a85.133 85.133 0 0 1-2.791-3.206 88.447 88.447 0 0 1-3.886-5.053 87.535 87.535 0 0 1-3.508-5.322 82.063 82.063 0 0 1-2.12-3.684 86.517 86.517 0 0 1-2.839-5.708 88.19 88.19 0 0 1-3.125-7.902 85.018 85.018 0 0 1-1.272-4.056 89.906 89.906 0 0 1-1.073-4.112 82.671 82.671 0 0 1-.462-2.075 91.396 91.396 0 0 1-.411-2.085 87.21 87.21 0 0 1-1.399-19.039c1.047-23.164 12.458-44.654 29.458-60.126 17.168-15.624 40.527-23.319 63.619-22.158l.477.972-1.233.188-.477.663a31.31 31.31 0 0 0 1.972 2.709c-.838.811-1.647.716-2.776.66-2.266-.11-6.09-1.075-7.897.387-22.817 1.498-44.181 11.493-59.394 28.731-13.364 15.143-20.78 36.301-19.414 56.5.046.701.101 1.402.164 2.103a86.57 86.57 0 0 0 .488 4.189 85.887 85.887 0 0 0 .697 4.16 81.27 81.27 0 0 0 .905 4.119 84.896 84.896 0 0 0 1.112 4.068 83.68 83.68 0 0 0 5.466 13.693 80.87 80.87 0 0 0 1.997 3.716 82.3 82.3 0 0 0 2.18 3.61 86.27 86.27 0 0 0 2.36 3.496 82.256 82.256 0 0 0 3.861 5.01 80.394 80.394 0 0 0 2.779 3.173 83.734 83.734 0 0 0 7.614 7.285 81.98 81.98 0 0 0 23.823 14.025 82.142 82.142 0 0 0 11.398 3.399 81.835 81.835 0 0 0 15.733 1.903 82.017 82.017 0 0 0 7.931-.198c21.851-1.666 43.509-11.958 57.76-28.754 13.362-15.747 18.079-33.07 18.891-53.335.765-2.226.13-4.463 1.7-6.319 1.14-.297 2.136-.719 3.307-.466l.001 2.502.535.842Z"/>
    <path fill="#F2F0ED" d="M283.328 657.752c3.271 2.231 5.92 7.201 8.854 10.107 11.016 10.909 25.767 19.792 40.849 23.591 7.563 1.906 16.041 1.742 22.434 6.54-9.551 3.542-20.062 5.194-30.024 7.233l-31.834 6.807c-19.857 4.32-39.883 7.309-59.688 12.034 7.931-9.264 14.859-19.49 22.033-29.347a2953.436 2953.436 0 0 1 27.376-36.965Zm51.531-152.107c7.311-.985 15.698.114 21.894 4.165a118.013 118.013 0 0 0-11.89 1.499 117.261 117.261 0 0 0-11.676 2.703 116.562 116.562 0 0 0-11.34 3.878 116.806 116.806 0 0 0-10.886 5.012c-20.153 10.473-36.125 31.386-42.807 52.87-5.445 17.505-5.306 38.445.998 55.73 2.662 7.298 6.509 14.142 10.117 21.002-6.03 8.537-12.282 16.906-18.407 25.374-4.183 5.783-8.189 11.827-12.737 17.324 2.466-10.608 5.158-23.401 4.141-34.325-1.741-19.046-11.316-38.477-24.047-52.599-11.702-12.98-34.604-28.2-52.433-29.109 18.37-5.861 36.403-14.983 54.128-22.644l37.904-16.494c9.226-3.938 18.635-7.63 27.678-11.978 4.714-2.268 8.087-5.302 12.013-8.681 8.181-7.041 16.569-12.059 27.35-13.727Z"/>
    <path fill="#F2F0ED" d="M144.469 584.737c2.728.372 10.769 21.001 14.795 24.276 1.412 1.149 3.013 1.655 4.842 1.365 2.228-.352 4.098-1.679 5.644-3.265 2.191-2.248 3.727-5.183 5.486-7.766a461.616 461.616 0 0 1 8.782-12.248c4.965 1.919 9.775 4.031 14.599 6.275-.817 7.978-4.933 20.946-2.77 28.41.499 1.72 1.419 3.307 3.179 3.991 6.445 2.505 21.794-5.576 28.384-8.216 3.746 5.005 6.783 10.498 9.75 15.987-6.058 4.476-17.872 12.037-20.304 19.258-.619 1.839-.539 3.689.456 5.377 3.619 6.13 21.417 9.648 28.537 11.744a126.276 126.276 0 0 1-1.967 15.611c-8.232 1.61-17.836.429-25.684 3.166-1.58.551-3.086 1.627-3.638 3.271-2.5 7.453 11.361 18.774 14.982 24.921.109.185.213.372.32.559-2.876 4.674-6.414 8.317-10.249 12.189-5.842-3.591-17.809-11.433-24.489-11.396-1.891.011-3.394.617-4.692 2.045-4.224 4.647-.82 22.887-.133 29.294a669.025 669.025 0 0 1-8.167 2.633l-7.507 1.597c-3.564-6.344-9.808-20.291-15.72-23.823-1.62-.968-3.436-1.322-5.273-.815-7.138 1.969-13.728 17.388-17.334 23.754-4.43-1.314-8.755-2.852-13.099-4.419-.194-7.248 1.286-22.065-.606-28.25-.569-1.86-1.636-3.541-3.447-4.387-5.816-2.718-22.288 4.66-28.436 6.841-3.19-4.166-5.9-8.598-8.376-13.219 4.65-5.816 15.648-15.366 17.706-22.013.496-1.601.545-3.279-.289-4.787-3.075-5.556-21.88-8.993-27.823-10.607-.119-4.869.105-9.723.67-14.56 6.66-2.225 22.77-4.94 27.373-9.086 1.216-1.095 1.955-2.521 1.988-4.179.135-6.95-11.665-17.241-16.23-22.38 2.831-4.136 6.21-7.913 9.58-11.611 7.8 2.757 17.075 7.808 24.824 9.462 1.99.425 4.378.624 6.075-.75 4.649-3.764 2.942-24.487 3.111-30.901 5.046-2.043 9.754-2.764 15.15-3.348Z"/>
    <path fill="#02020B" d="M154.442 625.19c10.453-1.192 21.124 2.16 29.613 8.239 9.648 6.909 16.21 17.988 17.979 29.689a42.332 42.332 0 0 1 .508 6.319 42.568 42.568 0 0 1-.79 8.409 42.373 42.373 0 0 1-4.245 11.91 42.63 42.63 0 0 1-3.4 5.35c-7.285 9.643-18.627 15.682-30.482 17.371-12.189 1.135-23.238-1.849-32.996-9.393-8.764-6.775-14.093-17.176-15.496-28.067-1.577-12.243 1.906-23.926 9.453-33.63 7.51-9.656 17.867-14.724 29.856-16.197Z"/>
    <path fill="#F2F0ED" d="M153.821 631.644c9.141-.809 18.07 1.087 25.767 6.182a35.666 35.666 0 0 1 5.547 4.518 36.928 36.928 0 0 1 2.409 2.651 36.613 36.613 0 0 1 2.134 2.876 36.245 36.245 0 0 1 2.639 4.677 36.214 36.214 0 0 1 1.914 5.017 35.88 35.88 0 0 1 .851 3.479c1.947 9.925.41 21.053-5.393 29.476-6.242 9.061-15.694 13.445-26.213 15.416-.591.075-1.184.136-1.778.183-.594.047-1.189.081-1.785.102-.595.021-1.191.028-1.787.021a40.916 40.916 0 0 1-1.786-.06 37.95 37.95 0 0 1-1.782-.141 40.523 40.523 0 0 1-3.536-.524 39.904 39.904 0 0 1-3.473-.842 40.137 40.137 0 0 1-3.383-1.153 39.584 39.584 0 0 1-6.383-3.201 39.212 39.212 0 0 1-1.497-.977c-8.11-5.628-13.149-14.78-14.749-24.422-1.636-9.863.551-20.352 6.417-28.497 6.328-8.786 15.385-13.128 25.867-14.781Z"/>
    <path fill="#02020B" d="M154.272 635.162c7.561-.984 15.933.914 22.392 4.917a33.466 33.466 0 0 1 6.465 5.305 33.724 33.724 0 0 1 3.173 3.897 33.47 33.47 0 0 1 3.257 5.851 33.648 33.648 0 0 1 1.174 3.14 33.903 33.903 0 0 1 .854 3.242c1.929 8.827.522 18.785-4.497 26.385-5.624 8.516-14.03 12.572-23.772 14.531-9.042.841-17.666-.664-25.154-6.067-7.347-5.3-11.865-13.732-13.246-22.597a34.5 34.5 0 0 1-.378-3.399 33.597 33.597 0 0 1-.036-3.421 34.75 34.75 0 0 1 .306-3.406 34.068 34.068 0 0 1 1.626-6.636 34.6 34.6 0 0 1 1.303-3.163 33.56 33.56 0 0 1 1.613-3.016 33.848 33.848 0 0 1 1.907-2.84c5.82-7.822 13.531-11.393 23.013-12.723Z"/>
    <path fill="#EAABAD" d="M155.277 641.156c6.35-.489 12.746.698 18.204 4.088a29.155 29.155 0 0 1 2.285 1.593 27.623 27.623 0 0 1 3.104 2.794 27.719 27.719 0 0 1 2.655 3.224 28.814 28.814 0 0 1 1.491 2.353 27.862 27.862 0 0 1 1.249 2.49c.187.425.364.855.531 1.288a28.844 28.844 0 0 1 .866 2.648c.122.448.233.899.333 1.353 1.676 7.371.518 15.385-3.665 21.741-4.767 7.242-11.643 10.116-19.752 11.724-7.315.676-14.202-.229-20.397-4.543-6.21-4.326-10.074-11.267-11.313-18.647-1.29-7.683.695-16.04 5.429-22.244 4.829-6.327 11.32-8.963 18.98-9.862Z"/>
    <path fill="#02020B" d="M154.291 645.103c5.464-.614 10.646-.362 15.624 2.246a24.205 24.205 0 0 1 3.973 2.657 24.125 24.125 0 0 1 3.38 3.379 24.09 24.09 0 0 1 2.067 2.931 24.828 24.828 0 0 1 2.424 5.455 25.182 25.182 0 0 1 .601 2.437 24.621 24.621 0 0 1 .452 4.994 24.922 24.922 0 0 1-1.633 8.591 24.4 24.4 0 0 1-1.014 2.297 24.47 24.47 0 0 1-.592 1.107c-3.698 6.446-9.228 9.691-16.188 11.564-6.405.711-12.217.198-17.823-3.305a24.02 24.02 0 0 1-3.806-2.907 23.406 23.406 0 0 1-1.666-1.725 24.163 24.163 0 0 1-1.486-1.882 24.708 24.708 0 0 1-1.289-2.022 23.262 23.262 0 0 1-1.081-2.14 24.352 24.352 0 0 1-.862-2.237 22.98 22.98 0 0 1-.345-1.149 22.985 22.985 0 0 1-.288-1.164c-1.476-6.686-.265-13.877 3.637-19.541 3.921-5.694 9.32-8.34 15.915-9.586Z"/>
    <path fill="#DD4543" d="M154.834 650.577c4.642-.4 8.441-.313 12.693 1.991a18.106 18.106 0 0 1 1.668 1.007c.269.182.534.371.794.566a19.295 19.295 0 0 1 2.189 1.935 18.673 18.673 0 0 1 1.865 2.248 19.04 19.04 0 0 1 2.586 5.22c.098.31.188.622.269.937a19.85 19.85 0 0 1 .553 3.893 20.203 20.203 0 0 1-.014 1.969 20.252 20.252 0 0 1-.385 2.926 19.892 19.892 0 0 1-2.04 5.522c-.158.288-.323.572-.495.851-2.948 4.728-7.218 7.027-12.495 8.289-4.072.211-7.708.127-11.511-1.621a18.575 18.575 0 0 1-3.308-1.949 18.094 18.094 0 0 1-1.486-1.219 18.148 18.148 0 0 1-1.354-1.364 18.833 18.833 0 0 1-2.254-3.108 18.591 18.591 0 0 1-1.573-3.503c-1.651-4.946-1.391-10.645 1.123-15.26 2.881-5.291 7.615-7.724 13.175-9.33Z"/>
    <path fill="#02020B" d="M363.59 515.805c24.46 1.867 46.253 12.384 62.246 31.174 10.575 12.425 20.629 34.389 19.804 51.082-.013.26-.06.517-.09.775l-.535-.842-.001-2.502c-1.171-.253-2.167.169-3.307.466-1.57 1.856-.935 4.093-1.7 6.319-.812 20.265-5.529 37.588-18.891 53.335-14.251 16.796-35.909 27.088-57.76 28.754a81.856 81.856 0 0 1-15.844-.372 82.453 82.453 0 0 1-3.926-.571 83.114 83.114 0 0 1-7.747-1.71 80.93 80.93 0 0 1-7.545-2.451 81.238 81.238 0 0 1-7.273-3.17 82.628 82.628 0 0 1-6.932-3.858 82.22 82.22 0 0 1-11.213-8.377 80.432 80.432 0 0 1-3.084-2.877 80.617 80.617 0 0 1-2.935-3.028 80.468 80.468 0 0 1-2.779-3.173 83.252 83.252 0 0 1-6.221-8.506 83.213 83.213 0 0 1-4.177-7.326 82.863 82.863 0 0 1-2.637-5.749 80.605 80.605 0 0 1-1.515-3.936 83.775 83.775 0 0 1-1.896-6.035 83.691 83.691 0 0 1-2.402-12.412 86.57 86.57 0 0 1-.218-2.097 87.513 87.513 0 0 1-.164-2.103c-1.366-20.199 6.05-41.357 19.414-56.5 15.213-17.238 36.577-27.233 59.394-28.731 1.807-1.462 5.631-.497 7.897-.387 1.129.056 1.938.151 2.776-.66a31.31 31.31 0 0 1-1.972-2.709l.477-.663 1.233-.188-.477-.972Z"/>
    <path fill="#CDC9CA" d="M363.59 515.805c24.46 1.867 46.253 12.384 62.246 31.174 10.575 12.425 20.629 34.389 19.804 51.082-.013.26-.06.517-.09.775l-.535-.842-.001-2.502c-1.171-.253-2.167.169-3.307.466-1.57 1.856-.935 4.093-1.7 6.319-2.122-22.718-7.99-39.645-24.066-56.427-17.361-18.125-37.975-23.863-62.285-24.466 1.807-1.462 5.631-.497 7.897-.387 1.129.056 1.938.151 2.776-.66a31.31 31.31 0 0 1-1.972-2.709l.477-.663 1.233-.188-.477-.972Z"/>
    <path fill="#F2F0ED" d="M354 526.709c17.52-.951 36.898 5.599 50.737 16.292 15.636 12.081 26.058 31.458 28.361 51.022 2.353 19.976-4.137 40.16-16.677 55.751-14.437 17.949-32.379 26.276-54.878 28.717-18.778.413-37.297-4.953-51.849-17.124-16.203-13.552-26.832-32.232-28.649-53.416-1.615-18.842 5.183-38.982 17.383-53.395 14.176-16.747 33.818-26.156 55.572-27.847Z"/>
    <path fill="#02020B" d="M351.908 538.193c15.113-1.758 32.325 3.488 44.469 12.499 13.527 10.035 22.331 25.982 24.639 42.591 2.305 16.591-1.778 34.219-12.033 47.563-11.515 14.984-26.739 23.285-45.358 25.629-16.379 1.136-33.251-3.445-46.372-13.499a62.155 62.155 0 0 1-9.088-8.463 62.144 62.144 0 0 1-8.695-12.841 61.98 61.98 0 0 1-6.283-20.725c-2.214-17.436 2.338-34.595 13.226-48.422 11.319-14.374 27.553-22.14 45.495-24.332Z"/>
    <path fill="#F2F0ED" d="M353.324 544.2c3.517-.326 7.192-.267 10.707.077 16.679 1.63 29.994 9.946 40.414 22.699-1.079 1.881-2.176 3.549-2.15 5.788l.674.59c1.715-.183 2.662-1.178 3.923-2.241 3.686 6.332 6.605 12.514 7.94 19.776 2.781 15.134-.877 32.29-9.626 44.937-9.589 13.861-23.174 21.456-39.488 24.414-.131.018-.261.04-.391.055a62.373 62.373 0 0 1-6.177.419 62.664 62.664 0 0 1-6.187-.205 61.948 61.948 0 0 1-9.165-1.47 60.9 60.9 0 0 1-8.838-2.833 62.11 62.11 0 0 1-5.612-2.615 61.284 61.284 0 0 1-10.294-6.852c-11.501-9.447-18.244-22.836-19.662-37.589-1.568-16.309 2.487-31.879 12.995-44.599 10.287-12.451 25.099-18.894 40.937-20.351Z"/>
    <path fill="#02020B" d="M327.285 606.539c1.128.014 2.404.004 3.479.369 1.549.526 2.795 1.775 3.432 3.265.799 1.867.614 3.966-.154 5.813-1.095 2.633-2.825 3.698-5.399 4.653-1.19-.113-2.487-.185-3.618-.589-1.817-.65-3.137-2.153-3.782-3.944-.682-1.891-.397-3.919.527-5.674 1.316-2.499 2.965-3.036 5.515-3.893Z"/>
    <path fill="#F2F0ED" d="M326.473 610.314c.971.053 1.816.271 2.753.524 1.036 1.032 1.175 1.177 1.502 2.591-.392 1.726-.799 2.255-2.059 3.498l-2.43-.381c-1.099-.85-1.169-.896-1.561-2.222.301-1.641.878-2.628 1.795-4.01Z"/>
    <path fill="#02020B" d="M352.812 547.687c.559-.092 1.142-.093 1.709-.124 15.411-.828 31.834 5.278 43.131 15.926 1.304 1.229 2.05 2.196 2.146 4.035-.604 1.298-.648 1.53-1.85 2.272-.959-.03-1.468-.176-2.327-.649-1.995-1.099-3.761-3.26-5.495-4.755-2.239-1.931-4.941-3.514-7.526-4.942-13.274-7.333-26.843-7.806-41.227-3.659a53.123 53.123 0 0 0-5.065 1.973c-12.357 5.625-20.798 15.359-25.488 27.998l-5.988-.018c2.211-6.299 4.839-11.851 8.963-17.149 9.711-12.474 23.554-18.998 39.017-20.908Zm-26.408 45.455c5.006-.412 10.153.671 14.216 3.723a19.467 19.467 0 0 1 2.191 1.932 18.673 18.673 0 0 1 2.903 3.898 18.614 18.614 0 0 1 1.805 4.512 18.362 18.362 0 0 1 .385 1.911c.047.321.086.644.117.967 1.243 12.774-4.692 12.779-10.848 20.326.575.423 1.133.843 1.652 1.334.898.849 1.038.686 1.078 1.992-1.85 1.588-6.906 2.827-9.308 2.992-1.312.09-2.595-.16-3.527-1.169-1.977-2.141-1.595-6.663-1.61-9.396a79.69 79.69 0 0 0 2.851-.007c4.127-.078 8.697-1.546 11.555-4.667 2.33-2.546 3.169-6.167 3.025-9.538-.167-3.906-1.943-7.477-4.864-10.062a14.882 14.882 0 0 0-3.685-2.394 14.969 14.969 0 0 0-2.78-.944 14.693 14.693 0 0 0-4.38-.347c-3.694.284-6.827 2.161-9.183 4.97-2.8 3.339-6.908 13.904-6.265 18.258.893 6.049 10.211 15.577 14.959 19.243 11.586 8.943 25.486 11.491 39.767 9.682 10.527-1.799 22.696-8.218 28.977-17.026 1.896-2.659 4.367-7.669 7.131-9.366.973-.597 1.688-.742 2.789-.457l.441.848c-.139 5.443-6.037 12.689-9.689 16.456a53.424 53.424 0 0 1-3.854 3.574 52.304 52.304 0 0 1-4.189 3.174 53.106 53.106 0 0 1-19.24 8.151c-.859.176-1.721.331-2.587.465a53.325 53.325 0 0 1-7.856.618 55.935 55.935 0 0 1-11.174-.93 57.01 57.01 0 0 1-5.462-1.297 56.906 56.906 0 0 1-5.304-1.837 55.446 55.446 0 0 1-5.095-2.357 55.89 55.89 0 0 1-4.833-2.854 57.09 57.09 0 0 1-4.525-3.323 56.086 56.086 0 0 1-4.169-3.759c-3.801-3.743-13.965-17.5-13.687-22.519.041-.752.217-1.016.827-1.482 4.325-3.303 4.85-11.023 8.135-15.675 3.353-4.747 7.752-6.729 13.31-7.62Z"/>
    <path fill="#02020B" d="M386.401 570.186c1.479.124 3.107.177 4.541.546 2.648.681 3.929 2.942 5.312 5.074a22.922 22.922 0 0 1 2.739-1.344c1.266-.509 2.408-.801 3.683-.076 2.692 1.532 3.61 5.821 4.068 8.59 1.187 7.18.026 14.861-4.421 20.788-3.913 5.215-8.433 7.298-14.703 8.103-5.058.378-10.15-.729-14.271-3.779a20.418 20.418 0 0 1-2.258-1.983 20.586 20.586 0 0 1-1.939-2.296 21.188 21.188 0 0 1-.568-.826 21.242 21.242 0 0 1-1.009-1.732 20.852 20.852 0 0 1-.832-1.824 20.008 20.008 0 0 1-1.259-4.839c-.79-5.785 1.12-11.63 4.694-16.185 4.211-5.368 9.644-7.499 16.223-8.217Z"/>
    <path fill="#F2F0ED" d="M384.951 575.627c2.497-.018 5.059.382 7.326 1.461a15.763 15.763 0 0 1 2.733 1.68c.426.325.835.67 1.227 1.036a15.927 15.927 0 0 1 3.697 5.204c.217.49.409.99.576 1.499 1.361 4.068 1.07 8.539-1.021 12.309-2.493 4.496-6.337 6.446-11.085 7.739-3.762.048-6.864-.064-10.227-2.03a14.695 14.695 0 0 1-3.469-2.764 14.54 14.54 0 0 1-1.785-2.365 14.633 14.633 0 0 1-1.708-4.093 15.664 15.664 0 0 1-.412-4.839 15.602 15.602 0 0 1 .555-3.197 15.732 15.732 0 0 1 1.196-3.017c.251-.481.525-.947.824-1.4 2.794-4.263 6.732-6.197 11.573-7.223Z"/>
    <path fill="#02020B" d="M384.44 584.071c1.116.024 2.283.02 3.382.223 1.845.342 3.562 1.637 4.562 3.196 1.063 1.655 1.333 3.592.794 5.481-.783 2.741-2.678 4.203-5.078 5.506-1.67.111-3.468.242-5.045-.431-1.771-.757-3.183-2.352-3.881-4.129-.719-1.829-.625-3.822.206-5.596 1.116-2.382 2.68-3.334 5.06-4.25Z"/>
    <path fill="#F2F0ED" d="M384.989 588.216c.499.065 1.52.122 2.002.37 1.243.641 1.418 1.155 1.878 2.366-.123 1.704-.641 2.575-1.568 3.991-.642-.169-1.396-.322-2.004-.61-1.181-.558-1.558-1.14-2.059-2.295.18-1.685.746-2.483 1.751-3.822Z"/>
    <path fill="#02020B" d="m323.209 6.425-48.815-.429c-7.948.003-16.215.548-24.129.115-1.238-.068-2.106-.263-3.164-.937-.38-.742-.164-.851.046-1.623 1.627-1.82 2.869-2.314 5.281-2.429 11.258-.54 22.764-.085 34.048-.073 8.597.008 28.357-1.088 35.659.889 3.954 1.071 83.365 51.189 86.276 54.078 2.137 2.12 3.599 4.598 3.45 7.688-.34 7.087-8.147 14.768-12.607 19.733 4.264 2.562 8.668 5.107 12.168 8.694-1.668 5.263-12.217 24.417-17.15 26.547-1.277.552-2.325.593-3.649.15-1.621-.543-2.878-1.953-3.964-3.199-3.198 4.759-7.261 9.957-9.168 15.386-1.627 2.181-3.607 3.777-5.685 5.495-5.08 6.023-9.127 14.195-13.25 20.985a2491.93 2491.93 0 0 1-21.872 35.644c-2.653 4.323-5.039 8.858-7.788 13.113-1.213 1.876-3.58 1.737-4.835 3.555-5.846 8.465-10.937 17.551-16.269 26.348-4.816 7.944-9.99 15.735-14.414 23.905 2.617 7.499 6.21 14.829 9.876 21.865.687-.549 1.382-1.094 2.116-1.58 2.436-1.614 5.5-3.033 8.485-2.375 1.082.239 1.951.607 2.668 1.487 2.096 2.575 3.578 6.313 5.072 9.277 4.268 8.473 8.109 17.434 13.014 25.537l.473.773c2.722-1.252 5.554-2.905 8.571-3.104 4.223 2.529 15.27 29.222 18.155 35.46 1.224-.344 2.68-.862 3.96-.753 1.934.163 4.233 1.774 5.255 3.385 1.282 2.023 1.363 4.549.812 6.818-.76 3.127-3.272 4.471-5.785 6.089.639 1.515 1.872 3.666 2.06 5.291.114.993-.102 2.006-.724 2.809-2.188 2.824-9.419 8.175-12.983 8.165-5.526-.015-6.148-10.178-9.827-13.411-.611.167-1.014.251-1.606.543-.336.165-1.357 1.002-1.525 1.244-.318.458.09 2.253.184 2.818.596 3.607.893 6.342-.314 9.915-2.054 6.083-6.915 8.739-12.339 11.34-20.136 9.658-40.686 18.806-61.168 27.717-31.363 13.644-60.632 27.852-95.809 26.057-9.654-.493-19.196-1.929-28.319-5.167-7.671 7.779-14.301 16.895-21.032 25.493-.573 7.252-1.682 14.027-5.872 20.175a30.362 30.362 0 0 1-2.832 3.524 30.654 30.654 0 0 1-2.169 2.095 29.621 29.621 0 0 1-2.368 1.867c-.41.291-.827.571-1.252.841a29.249 29.249 0 0 1-3.986 2.134c-.46.203-.925.395-1.394.575a31.147 31.147 0 0 1-2.867.935 29.502 29.502 0 0 1-2.946.643c-8.274 1.433-17.108-.385-23.976-5.265a31.24 31.24 0 0 1-6.644-6.342 31.63 31.63 0 0 1-1.764-2.515 30.307 30.307 0 0 1-1.508-2.677 30.517 30.517 0 0 1-1.237-2.811 31.261 31.261 0 0 1-1.618-5.919 30.283 30.283 0 0 1-.359-4.49 29.744 29.744 0 0 1 .131-3.001 30.368 30.368 0 0 1 .75-4.441 30.96 30.96 0 0 1 .861-2.878 29.901 29.901 0 0 1 1.14-2.779c.214-.453.438-.901.672-1.344a31.539 31.539 0 0 1 1.54-2.58c.276-.417.564-.827.862-1.23 6.024-8.072 14.018-11.094 23.66-12.531 3.042-6.68 6.893-13.124 10.404-19.576-26.344-29.311-34.102-55.216-33.275-94.158-1.56-.409-3.3-.766-4.758-1.463-1.697-.812-3.037-2.451-3.608-4.228-.492-1.531-.267-3.141.544-4.526 1.604-2.741 4.065-3.805 6.985-4.664-1.676-6.002-4.222-11.484-6.816-17.128-1.819.557-3.959 1.317-5.874 1.133-2.023-.194-4.158-1.203-5.37-2.868-1.17-1.606-1.445-3.59-1.05-5.509.756-3.683 3.38-5.448 6.246-7.473a579.145 579.145 0 0 0-6.465-14.68c-1.788 1.396-3.244 2.445-5.63 2.176-1.619-.182-3.029-1.036-3.977-2.356-1.429-1.991-1.754-4.46-1.32-6.831.621-3.408 2.97-5.161 5.643-7.065-1.91-4.587-3.85-9.133-6-13.616-2.216.401-4.956.956-7.153.27-2.162-.675-4.294-2.131-5.34-4.183-.852-1.671-.905-3.495-.247-5.242 1.071-2.842 2.777-4.052 5.42-5.35-3.395-5.843-6.766-11.754-10.47-17.407-3.41-5.204-7.374-10.31-10.34-15.762-1.001-1.838-1.997-3.943-2.272-6.04-.604-4.615 2.089-9.79 3.82-13.951 8.337-20.035 19.504-37.26 35.64-51.915 2.361-2.145 17.931-13.787 18.49-14.544l-3.515.624c-3.802-1.353-6.028-5.598-7.657-9.073-1.2-2.561-2.277-5.298-1.264-8.08 1.641-1.907 4.13-3.001 6.37-4.069 13.673-6.521 28.078-11.851 42.002-17.876 5.483-2.372 10.992-4.699 16.437-7.155 2.979-1.344 5.932-3.042 9.074-3.957 1.555-.453 2.831-.564 4.254.321 3.193 1.987 6.112 10.852 6.662 14.513.406 2.706-.595 4.485-2.102 6.64 15.878-.895 32.666-.305 48.146 3.472 11.769 2.871 34.453 9.669 42.389 18.413 3.645 4.016 5.605 9.464 7.409 14.475 2.765 7.68 5.683 16.344 10.002 23.276.111.177.226.351.339.527 2.869-3.773 5.092-8.407 7.568-12.483l16.985-27.529c3.651-5.882 7.136-12.187 11.588-17.499 4.196 2.257 8.382 4.507 12.684 6.559l.282-.42c-5.828-3.598-12.157-7.448-16.471-12.881 4.204-7.386 9.362-14.148 13.475-21.602l-2.993-3.827c4.417-7.384 8.689-16.085 15.139-21.933 4.15 1.919 7.889 4.506 11.973 6.506 4.053-6.503 9.706-13.907 11.734-21.3Z"/>
    <path fill="#F2F0ED" d="M42.476 253.405c.99.788 1.42 1.732 1.75 2.914-.443 1.689-.834 1.925-2.056 3.104-1.07-.975-1.85-1.645-2.355-3.054.59-1.531 1.403-1.944 2.66-2.964Zm10.309 29.272c.173.009.347.01.52.029 1.473.168 2.328.644 3.21 1.817.008 1.668-.121 1.601-1.248 2.864-.152.008-.303.024-.455.025-1.441.009-2.035-.283-3.016-1.247-.074-1.724.183-2.024.99-3.488Zm-25.65-57.264c1.59.024 2.653-.048 3.991.953.695 1.297.712 2.006.712 3.432-1.331.185-2.205.314-3.532-.027-1.06-1.351-.952-2.675-1.171-4.358ZM305.5 287.424c2.841 2.722 7.319 11.018 8.474 14.865l-.629.66c-1.162.569-2.332 1.019-3.544 1.463-2.37-3.239-4.194-12.915-4.301-16.988ZM89.574 301.443l.3.121c.645 1.229.119 2.725-.06 4.089-6.536 1.914-12.592 5.064-18.983 7.399-.773-.952-1.141-1.386-1.202-2.631 1.912-1.903 15.99-7.074 19.945-8.978Zm108.425 104.245c.234-.049.465-.119.703-.147 1.291-.151 1.481-.058 2.447.7-.008.787.17.719-.353 1.174-5.032 4.383-23.76 3.168-30.649 2.901a14.525 14.525 0 0 1-2.245-.619c.094-1.43 1.607-2.395 2.608-3.401 9.473.847 18.064.723 27.489-.608ZM94.467 282.567l.165.185c.383 1.507-.582 3.465-1.082 4.921-8.316 3.785-16.797 8.106-25.511 10.853l-2.192-4.693c9.56-3.687 19.187-7.261 28.62-11.266ZM209.8 195.036l.284.16c-.507 2.591-3.23 6.031-4.641 8.354-8.656 1.66-17.448 5.286-25.308 9.254-.795-1.389-1.504-2.181-1.496-3.801 9.06-5.428 21.37-8.963 31.161-13.967Zm-105.767 66.948.471.052c.215 1.365-1.769 3.812-2.524 5.065-13.199 6.037-26.75 11.736-40.314 16.9-.614-.771-.372-.376-.837-1.44-.479-1.097-.453-.57.007-1.702 13.771-7.202 28.862-12.845 43.197-18.875Zm100.573 157.613.642-.117c1.222.486 1.014.52 1.618 1.585l-.477 1.007c-8.887 5.699-35.319 4.747-45.667 2.779-.261-.045-.523-.081-.782-.135-1.604-.332-2.291-.764-3.228-2.094l.338-.894c3.4-1.787 10.19.391 14.118.614 11.578.659 22.125-.082 33.438-2.745Zm135.821-102.306c3.586 2.098 13.073 24.221 14.712 28.762 1.263 3.5 1.707 7.229 3.013 10.716 1.203 3.212 2.905 6.256 4.062 9.475.487 1.358.6 2.082.02 3.388-4.084-6.713-7.026-14.327-10.45-21.408-4.574-9.46-9.655-18.827-13.796-28.468.416-1.177 1.474-1.7 2.439-2.465ZM309.68 282.18c.666.149 1.258.393 1.893.638 4.409 4.611 43.933 83.51 45.258 89.68l-.742.92c-4.541-4.353-17.545-34.855-21.508-42.859a1339.065 1339.065 0 0 0-16.001-31.046c-2.256-4.289-4.576-10.717-8.04-14.07-.62-.599-1.132-1.217-1.679-1.881l.819-1.382ZM290.352 81.462c2.849 1.5 19.937 9.522 20.361 11.306.052.217-.059.86-.093 1.098 3.602 2.54 7.625 4.612 11.407 6.881 9.619 5.77 19.307 11.352 29.056 16.901 5.804 3.304 12.025 7.856 18.154 10.354 4.883-8.155 9.536-16.357 14.2-24.634 3.259 1.691 7.927 3.429 9.609 6.848l-.406.763c-3.134.33-5.845-2.398-8.197-4.163-3.914 7.737-8.912 17.004-15.051 23.135-11.422-5.897-22.15-12.889-33.202-19.428-15.518-9.178-31.5-18.076-46.12-28.641l.282-.42Zm-67.115 91.624c.255 1.702-2.904 5.387-3.904 6.83l-34.561 13.482c-3.33 1.27-7.837 3.75-11.319 4.093a27.09 27.09 0 0 1-1.145-3.764c1.09-1.233 45.083-18.307 50.929-20.641Zm93.159 134.882c2.641 1.553 23.924 45.031 25.582 50.717-.586 1.373-1.467 1.399-2.777 1.987-.523-.173-.924-.3-1.307-.736-2.488-2.824-24.376-47.962-24.06-50.411l2.562-1.557ZM87.72 316.649c.88.456.509.119 1.047 1.081-1.534 26.356 8.923 53.859 26.259 73.493.093 1.384-.808 2.333-1.503 3.508-1.69-.843-3.334-3.007-4.556-4.447-13.404-15.784-20.517-37.848-22.786-58.136-.454-4.068-1.113-8.576-.585-12.665.211-1.63.836-1.905 2.124-2.834Zm15.011-122.195.549.183c.756 1.027.974 1.589 1.121 2.854-2.16 3.117-58.111 25.274-67.007 28.936-.92-.61-1.248-1.263-1.775-2.215l.309-.853c7.187-3.855 15.06-6.834 22.545-10.078l44.258-18.827Zm133.535-56.525.933.025c.413.96.379 1.502.258 2.531-2.912 3.862-65.442 27.654-74.606 31.678l-.651-.291c-.422-1.361-.647-1.68-.258-3.026 8.266-4.876 18.211-7.65 27.103-11.268l47.221-19.649Zm-5.112 16.11c.91.088.479-.093 1.214.701-.012.479-.005 1.35-.146 1.793-.075.234-.625 1.126-.853 1.339-2.185 2.044-8.365 3.125-11.303 4.297-17.353 6.929-34.215 15.071-51.898 21.253-.614-.655-.951-1.124-1.345-1.953-.473-.991-.419-.544-.054-1.586 5.879-3.484 13.231-5.637 19.584-8.291 14.609-6.102 29.489-13.48 44.801-17.553ZM114.21 224.954c1.439.646 1.767 2.421 2.366 3.86L50.724 255.28c-.028.003-.057.018-.084.009-1.406-.488-1.762-2.314-2.366-3.629 10.456-3.919 20.703-8.551 31.032-12.803 11.578-4.766 23.293-9.214 34.904-13.903Zm5.566 14.478c.503-.025.236-.048.892.171.828.277.769.635 1.151 1.379-.634 1.5-1.762 2.05-3.153 2.834-6.378 3.597-13.751 6.159-20.518 8.964l-41.976 17.275c-.146-.022-.304-.009-.44-.068-1.253-.548-1.888-2.808-2.437-4.022a2868.558 2868.558 0 0 1 66.481-26.533Zm-11.175-29.867c1.093 1.096 1.678 2.82 2.334 4.23l-37.053 15.22c-9.887 4.005-19.882 7.675-29.64 12.002-.943-1.109-1.737-2.593-2.54-3.823a1907.47 1907.47 0 0 1 66.899-27.629Zm235.789-89.178 3.845 2.654c-5.359 10.914-11.949 21.29-18.329 31.628a1932.596 1932.596 0 0 1-20.144 32.405l-4.21-2.55c12.426-21.642 25.747-42.885 38.838-64.137Zm-45.019-27.02c1.436 1.154 3.089 2.125 4.623 3.15-6.57 8.417-11.761 18.432-17.293 27.564a847.531 847.531 0 0 1-21.757 34.11l-.973.338c-1.399-.444-2.397-.668-3.329-1.894-.354-3.366 34.209-56.27 38.729-63.268ZM148.617 344.293c1.137 1.214 2.113 2.702 3.128 4.028-10.579 17.012-19.909 34.926-30.087 52.195-6.851 11.624-17.742 26.915-22.717 38.938-1.205-.58-2.682-.936-3.227-2.176 4.362-8.498 9.533-16.617 14.278-24.908 12.968-22.664 26.268-45.066 38.625-68.077Zm104.175-50.905c6.762 8.389 8.662 28.021 8.319 38.394-.85 25.648-10.78 42.749-29.074 59.907-.309-.344-.942-1.032-1.188-1.395-1.637-2.41 2.333-4.457 3.853-6.015 9.863-10.104 17.496-24.302 20.356-38.13 2.988-14.445 3.308-35.216-5.103-47.944l2.837-4.817Zm-70.497-71.674c2.302-.072 7.014-.381 8.924.961.628.441 1.066.986 1.2 1.741.439 2.475-1.674 5.054-2.928 7.049-18.011-.205-29.78 4.096-45.127 13.275l-4.481 2.916-5.028-8.388c14.353-10.781 29.604-16.2 47.44-17.554Zm71.169-55.324 4.704 2.565c-4.598 8.678-10.235 16.808-15.292 25.222a3191.447 3191.447 0 0 1-38.674 63.012l-1.318.16-5.361-.839c7.766-11.205 14.772-23.179 21.972-34.765a3218.743 3218.743 0 0 0 33.969-55.355Z"/>
    <path fill="#8F171C" d="M353.075 88.302c.949.288.524.077 1.363.68 6.129 4.401 13.145 8.066 19.631 11.932-3.23 5.001-7.96 11.472-8.971 17.387l.484.596c.868-.512 1.08-.781 1.545-1.7a53.884 53.884 0 0 1 1.621-3.014c1.128-1.923 7.295-12.702 8.767-13.084.348 1.309.071 1.434-.544 2.667-3.756 5.592-6.624 11.716-10.552 17.219a1112.47 1112.47 0 0 1-25.683-13.948c3.842-6.194 7.815-13.068 12.339-18.735Z"/>
    <path fill="#F2F0ED" d="M220.196 356.913c.654-.009.813.211 1.356.546l-1.052-.593.283 1.747c-9.306 7.279-19.071 12.629-31.071 13.781-7.706 12.159-18.656 23.49-27.707 34.785-13.733 17.14-26.647 34.779-41.059 51.391l-.969-.212-.412-1.166c.546-3.226 47.655-63.305 53.723-71.429 4.747-6.356 8.935-13.114 13.718-19.448 12.278-1.374 21.99-4.342 33.19-9.402Zm78.262-162.273c1.919.707 3.695 2.087 5.407 3.201-7.462 11.064-14.331 22.859-21.173 34.32l-37.74 64.593c-.59 1.076-.198.611-1.192 1.383-1.388-1.384-1.777-4.362-2.284-6.245 4.203-8.621 9.408-16.892 14.261-25.164a3129.838 3129.838 0 0 1 23.389-39.569c6.519-10.754 13.418-21.423 19.332-32.519Zm-78.925 195.888c1.813.199 3.728.85 5.269 1.825 6.391 4.043 8.854 12.378 10.243 19.372-3.848 4.439-8.974 6.798-14.158 9.307-1.948.638-3.65 1.244-5.639.341-4.174-1.895-6.867-6.828-8.236-10.966-1.299-3.928-1.882-8.685.238-12.443 2.595-4.598 7.537-6.089 12.283-7.436ZM320.31 24.744c11.915 7.712 24.574 14.552 36.666 22.032 14.387 8.899 28.262 18.368 42.909 26.89-1.645 1.867-3.41 3.641-5.127 5.444-1.345.231-70.109-42.7-78.768-48.251 1.513-1.98 2.897-4.069 4.32-6.115Zm7.309-12.85 53.769 33.733c7.098 4.431 16.26 8.797 22.549 14.095 1.16.978 1.518 1.954 1.564 3.468.062 2.051-1.149 3.731-2.466 5.158-5.322-3.569-11.023-6.651-16.457-10.061a2450.14 2450.14 0 0 0-41.568-25.823c-7.152-4.339-14.649-8.301-21.522-13.064l4.131-7.506Zm-63.985 264.851c1.387.39 2.072 1.086 2.928 2.21 12.121 15.906 15.945 43.1 13.474 62.472-3.254 25.518-18.917 48.717-38.982 64.183-.369.334-.808.518-1.247.748-.107-.178-.226-.349-.322-.533-1.219-2.325-.804-3.234 1.036-4.881 13.899-12.437 25.339-27.5 30.597-45.706 7.29-25.241 3.036-52.461-9.622-75.223.1-1.397 1.236-2.292 2.138-3.27Zm28.333 60.846c2.682-.397 6.545.114 9.103.994 3.571 1.229 6.369 3.991 7.905 7.409a19.495 19.495 0 0 1 .687 1.818 18.76 18.76 0 0 1 .675 2.833 19.616 19.616 0 0 1 .233 2.904 19.633 19.633 0 0 1-.091 1.94c-.032.323-.072.644-.121.965a18.425 18.425 0 0 1-.387 1.904 18.763 18.763 0 0 1-.579 1.854c-.112.304-.232.605-.36.903-2.27 5.263-6.175 8.044-11.287 10.165-1.443.312-2.901.634-4.384.641-5.93.028-10.249-3.657-14.297-7.49 3.94-8.529 5.526-15.863 6.821-25.1 1.993-.684 4.048-1.192 6.082-1.74Z"/>
    <path fill="#8F171C" d="M291.795 50.291c.681.123.957.412 1.498.823.071.337.296.677.214 1.012-.297 1.202-8.526 12.574-10.063 15.957 1.067 1.05 2.352 1.871 3.567 2.739 5.194-6.038 8.012-14.245 14.047-19.603 6.796 4.671 14.014 8.716 21.022 13.06 2.189 1.357 4.537 2.379 6.57 3.978-2.807 1.047-22.943-13.536-27.913-15.289.42 1.074 1.125 1.506 1.984 2.234 7.648 4.741 15.477 10.171 23.774 13.699-1.565 2.77-12.156 19.554-11.982 21.095l1.907.422c.292 1.147.193.953-.266 1.934-3.404-1.253-7.162-4.667-10.269-6.679-8.502-5.506-17.267-10.526-25.486-16.461 2.315-6.851 7.342-13.006 11.396-18.921Z"/>
    <path fill="#F2F0ED" d="M308.353 201.273c3.449 2.056 6.867 4.076 10.074 6.501-8.693 18.122-24.555 35.916-32.008 54.205-3.746 2.87-7.896 4.926-12.091 7.039-1.468.781-3.327 2.054-4.988 2.234-.751.082-.912-.27-1.46-.698-.043-5.284 35.162-61.67 40.473-69.281Zm-206.403-25.89c3.23 2.643 7.153 16.718 8.727 20.984 2.879 7.804 6.178 15.482 9.312 23.187 2.331 5.73 4.442 11.641 7.18 17.192 2.642 5.358 6.475 9.991 9.132 15.389-.8.72-1.593 1.448-2.38 2.183-17.634 16.481-29.322 38.188-29.99 62.669-.568 20.802 7.146 42.604 21.508 57.8l-2.245 3.796a87.191 87.191 0 0 1-11.125-15.275 87.593 87.593 0 0 1-6.373-13.721 86.895 86.895 0 0 1-2.274-7.222 87.22 87.22 0 0 1-2.638-14.897 86.678 86.678 0 0 1-.254-3.778 90.438 90.438 0 0 1 1.359-19.581c.233-1.29.493-2.575.781-3.854a89.588 89.588 0 0 1 2.062-7.589 89.15 89.15 0 0 1 2.713-7.382 89.256 89.256 0 0 1 3.345-7.117 90.75 90.75 0 0 1 3.951-6.8 89.358 89.358 0 0 1 4.527-6.43c3.392-4.372 7.426-8.03 11.083-12.149 1.391-1.566 2.023-2.449 1.902-4.576-.875-.843-1.868-1.224-3.131-1.251-1.687-.036-2.496 1.071-3.712 2.078-5.421 5.096-10.385 10.539-14.554 16.72-19.596 29.059-21.026 68.465-4.484 99.106 1.77 3.278 3.639 6.552 5.649 9.687 2.052 3.199 6.327 6.748 7.042 10.503l-.457.505c-.616-.402-.621-.373-1.249-.973-2.047-1.958-3.951-5.147-5.583-7.496-12.94-18.627-19.69-43.434-18.153-66.044 1.329-19.55 9.639-41.303 22.546-56.156 3.627-4.173 7.915-7.586 12.078-11.195-4.457-9.011-7.484-18.624-11.27-27.921-4.834-11.871-10.568-24.016-14.537-36.188-.502-1.538-.771-2.603-.488-4.204Zm128.03-53.261c1.747 1.923 2.743 5.779 3.681 8.208-.228.098-.454.201-.683.294-3.801 1.549-6.11 4.463-9.719 6.182-7.814 3.721-58.973 25.549-64.138 26.002-1.572-3.249-3.287-6.337-5.149-9.428 9.394-4.383 19.15-8.073 28.692-12.13 15.745-6.695 31.162-13.421 47.316-19.128Z"/>
    <path fill="#F2F0ED" d="M96.983 177.022c2.28 2.469 3.421 8.005 4.464 11.264a1895.052 1895.052 0 0 1-45.45 19.396c-7.449 3.138-15.603 7.549-23.437 9.348-2.093-3.441-4.087-6.952-6.127-10.426 12.942-5.892 26.182-11.168 39.312-16.624 10.402-4.321 20.73-8.907 31.238-12.958Zm28.28-120.402c2.417 2.72 3.833 6.719 5.226 10.031l-3.057 5.259c-9.019 1.905-17.181 5.675-25.678 9.137L76.737 91.102c-5.202 2.088-10.312 4.369-15.757 5.766-2.66-2.771-4.208-6.29-5.735-9.762C63.807 82.643 73.03 79.05 81.95 75.34c14.503-6.034 29.119-11.986 43.314-18.72Zm163.69 209.437c2.446 3.02 4.072 7.858 5.723 11.405 10.949 23.521 8.624 31.648 8.69 56.322-4.584-1.168-9.124-1.116-13.82-1.077 3.119-1.309 6.235-2.315 9.255-3.886.116-.817.213-1.635.29-2.456.143-1.652.018-3.294-1.3-4.502-2.499-2.289-8.472-1.338-11.68-1.226-1.695-16.852-6.826-30.449-14.788-45.193 5.963-3.008 11.846-6.044 17.63-9.387Zm64.41-139.33c4.262 2.359 8.373 4.997 12.514 7.56-6.045 11.779-13.636 22.887-20.66 34.1-6.126 9.779-11.826 19.825-18.314 29.371-4.209-2.588-8.294-5.414-12.418-8.138 13.975-20.235 26.094-41.89 38.878-62.893ZM80.101 319.53c1.109.542 1.009 14.485 1.242 16.944a104.258 104.258 0 0 0 1.206 8.793 105.207 105.207 0 0 0 4.618 17.123 104.915 104.915 0 0 0 7.439 16.098 104.633 104.633 0 0 0 15.963 21.23c-2.446 4.583-4.916 9.114-7.61 13.559-.428-.423-.854-.848-1.277-1.275-16.652-16.823-26.945-41.943-29.555-65.352-.901-8.081-.669-16.223-.617-24.34 2.889-.791 5.745-1.838 8.591-2.78Zm158.751-162.349c3.382 1.736 6.548 3.968 9.732 6.041-3.622 6.701-7.749 13.107-11.672 19.633a1191.736 1191.736 0 0 1-24.948 40.444c-6.938 10.95-13.409 22.369-20.775 33.018l-9.888 1.429c3.879-8.576 8.898-16.917 13.437-25.177 14.026-25.523 29.419-50.249 44.114-75.388Zm40.789-75.448c5.252 1.785 9.791 4.637 14.275 7.835-4.111 8.54-9.521 16.357-14.481 24.409l-24.039 39.075c-3.617-.806-10.778-6.364-14.104-8.636a1098.68 1098.68 0 0 1 38.349-62.683Zm-32.516 220.986c.463.298.558.317.955.815 3.6 4.518 3.826 18.404 3.728 23.98-.449 25.624-8.735 41.125-26.815 58.613-6.025-1.325-11.971-.421-17.209 2.978-4.089 2.653-6.142 6.009-7.208 10.674-6.943 1.338-13.856 1.978-20.917 2.212-1.68.023-3.266.005-4.932-.218 1.126-3.595 14.43-18.058 17.828-23.409l.438-.698c7.648-1.609 14.977-4.181 21.735-8.161 7.058-4.157 11.56-10.009 16.592-16.303 7.677-9.603 15.131-18.687 16.089-31.485.438-5.849-1.98-13.096-.423-18.556.042-.148.093-.294.139-.442Zm29.423 67.288c3.009 2.283 5.92 4.36 9.231 6.194-5.055 11.274-8.91 23.251-13.046 34.892-42.027 17.28-68.972 34.895-116.94 26.816-2.926-.535-5.853-1.41-8.739-2.147l5.881-7.728c15.04 4.166 29.177 4.931 44.587 2.025 4.833-.912 9.579-2.35 14.433-3.13 4.499-.722 8.964-.042 13.383-1.529 7.86-2.643 10.721-8.041 16.401-13.292 3.689-3.409 7.716-6.452 11.402-9.869 9.985-9.252 17.428-20.093 23.407-32.232Z"/>
    <path fill="#F2F0ED" d="M307.926 310.245c2.141 3.701 3.224 8.355 5.058 12.286 6.145 13.175 12.577 26.187 19.042 39.205 2.467 4.969 5.746 11.329 3.679 16.922-.723 1.956-1.899 3.562-3.591 4.786-4.144 2.998-9.492 4.973-14.136 7.116a2082.162 2082.162 0 0 1-27.122 12.266 459.102 459.102 0 0 1-14.035 6.35c3.008-10.857 7.517-21.484 11.478-32.03l.779.071c7.109.626 13.866-.829 19.354-5.653a23.8 23.8 0 0 0 2.476-2.563 23.566 23.566 0 0 0 1.43-1.899 24.585 24.585 0 0 0 1.236-2.031 24.494 24.494 0 0 0 1.031-2.142 24.382 24.382 0 0 0 1.408-4.535 24.279 24.279 0 0 0 .459-3.534c.374-7.551-3.208-13.514-8.18-18.82-.08-8.631-.997-17.152-.366-25.795ZM87.512 443.609c5.904-.279 12.001.766 17.1 3.891 5.803 3.556 9.857 9.716 11.187 16.36 1.324 6.613-.071 13.896-3.958 19.431-4.183 5.959-10.259 8.659-17.169 10.008-5.654.447-11.107-.317-16.16-3.055-6.12-3.317-10.503-9.242-12.251-15.946a25.32 25.32 0 0 1-.501-2.451 25.124 25.124 0 0 1-.247-2.49 24.514 24.514 0 0 1 .788-7.437 24.111 24.111 0 0 1 1.236-3.541 23.967 23.967 0 0 1 1.119-2.238c.205-.363.42-.721.644-1.073 4.244-6.629 10.789-9.865 18.212-11.459Z"/>
    <path fill="#02020B" d="M88.45 450.583c3.935-.223 7.328.346 10.869 2.142 4.412 2.238 8.003 6.12 9.523 10.865a16.123 16.123 0 0 1-1.115 12.657c-3.013 5.672-8.107 8.274-13.969 10.095-3.702.353-7.158-.072-10.551-1.676a19.868 19.868 0 0 1-1.71-.919 19.078 19.078 0 0 1-2.364-1.698 19.637 19.637 0 0 1-1.417-1.326 18.572 18.572 0 0 1-1.851-2.247 18.281 18.281 0 0 1-1.031-1.644 18.904 18.904 0 0 1-1.526-3.565c-1.387-4.484-.991-9.36 1.398-13.432 3.092-5.271 8.05-7.751 13.744-9.252Z"/>
    <path fill="#F2F0ED" d="M90.494 455.516c2.315-.007 4.928 1.063 6.865 2.275 4.188 2.621 6.141 6.474 7.295 11.085-.576 2.231-1.266 4.348-2.565 6.277-2.361 3.505-5.547 4.899-9.554 5.767-2.5-.049-4.976-.427-7.242-1.524-3.083-1.492-5.402-3.994-6.385-7.301a12.116 12.116 0 0 1-.487-3.658 12.242 12.242 0 0 1 .305-2.446 12.085 12.085 0 0 1 1.37-3.426c2.408-4.097 5.989-5.812 10.398-7.049Zm211.06-426.978c7.996 3.432 18.263 11.231 25.859 16.045 8.916 5.65 18.06 10.929 26.97 16.582a2411.146 2411.146 0 0 1 29.732 19.507c6.109 3.986 14.147 7.764 19.381 12.729l-7.068 11.999c-5.245-4.691-23.266-13.649-30.159-17.491-4.916-2.839-11.193-7-16.885-7.74l-.709.6c.315.734.684 1.322 1.155 1.962l.578.779c-.356 1.387-11.61 18.734-13.123 21.269-6.99-3.632-13.792-7.43-20.371-11.771 5.773-6.777 9.213-15.035 13.785-22.593 1.205.722 2.864 1.93 4.31 1.903 1.152-.022 1.437-.186 2.09-1.072-2.814-6.532-36.116-25.742-43.789-30.87 2.294-4.343 5.021-8.138 8.244-11.838Zm7.477 70.786c10.248 6.041 20.818 11.884 30.552 18.721-3.47 6.852-8.319 13.289-12.353 19.863a1280.26 1280.26 0 0 0-26.183 43.84c-10.391-6.855-21.052-13.292-31.457-20.131 13.929-20.254 25.428-42.094 39.441-62.293ZM150.4 159.094c2.224 2.459 6.373 15.457 8.159 19.628 5.356 12.504 10.74 25.554 17.154 37.542-16.787 2.97-29.709 8.404-43.482 18.579l-.326.322c-.239-.159-.521-.267-.718-.476-.813-.861-4.7-12.756-5.476-14.688-5.78-14.398-11.257-29.28-17.742-43.355 6.229-3.057 12.677-5.524 19.068-8.209 7.729-3.247 15.404-6.693 23.363-9.343Zm31.877 77.614c1.27.034 2.3.03 3.483.568-.134.341-.276.679-.399 1.023-2.573 7.199-8.455 12.279-8.971 20.444-.939.323-1.868.675-2.785 1.056-14.297 5.96-26.485 15.633-32.32 30.305-6.845 17.213-3.165 33.228 3.895 49.587-5.948 9.994-11.057 20.5-16.969 30.536-2.599-3.104-4.871-6.441-7.185-9.758-9.62-16.139-14.064-35.387-10.573-54.057 3.388-18.118 14.047-38.124 29.47-48.791 1.045 1.392 2.248 3.546 3.657 4.559.966.694 1.111.688 2.218.518.262-.426.372-.534.473-1.096.624-3.474-1.755-6.811-3.428-9.599 12.333-7.828 24.638-14.18 39.434-15.295Zm80.76-64.667c10.501 6.372 20.993 12.604 30.928 19.846-5.364 10.957-12.646 21.326-18.948 31.8a5135.065 5135.065 0 0 0-35.885 60.591l-.247.387c-.583-.219-8.406-11.044-10.481-13.049-5.553-5.366-12.272-8.855-19.098-12.294 17.367-29.4 36.118-58.017 53.731-87.281Z"/>
    <path fill="#F2F0ED" d="M189.474 262.195c11.033-1.161 22.35 2.937 31.066 9.517 11.669 8.811 19.228 23.511 21.108 37.873 1.452 11.092-.229 22.51-7.219 31.521-11.016 14.202-33.613 17.665-50.24 19.735l-55.812 74.909a823.154 823.154 0 0 0-12.111 15.559c-3.896-4.391-7.486-7.742-12.442-10.895 12.578-21.608 25.732-42.86 38.196-64.545 5.296-9.215 11.707-18.579 15.423-28.531-7.633-9.581-13.11-20.789-14.355-33.11-1.196-11.838 2.144-24.621 9.734-33.886 9.397-11.471 22.225-16.62 36.652-18.147Z"/>
    <path fill="#02020B" d="M189.791 271.201c9.194-.897 19.615 1.86 27.06 7.328a40.998 40.998 0 0 1 3.108 2.483 39.676 39.676 0 0 1 4.162 4.273 40.436 40.436 0 0 1 2.4 3.172 39.308 39.308 0 0 1 2.074 3.395 40.999 40.999 0 0 1 1.725 3.585 39.7 39.7 0 0 1 1.9 5.654 40.525 40.525 0 0 1 .789 3.899c1.521 10.047-.593 21.052-6.723 29.279-7.186 9.643-17.026 14.301-28.667 16.08-10.575.643-20.09-1.274-28.594-7.904a39.774 39.774 0 0 1-3.041-2.646 40.794 40.794 0 0 1-4.034-4.5 40.349 40.349 0 0 1-2.299-3.312 42.013 42.013 0 0 1-1.96-3.523 40.895 40.895 0 0 1-2.262-5.604 40.425 40.425 0 0 1-1.407-5.877 42.041 42.041 0 0 1-.273-1.998c-1.184-10.449 1.548-21.111 8.216-29.313 7.215-8.874 16.583-13.361 27.826-14.471Z"/>
    <path fill="#F2F0ED" d="M189.63 276.655c7.824-.734 16.841 1.307 23.416 5.654 7.302 4.827 12.622 12.966 14.299 21.536 1.741 8.897.387 18.406-4.757 25.97-6.067 8.92-14.306 13.249-24.679 15.184-8.578.611-17.561-1.401-24.622-6.441a34.438 34.438 0 0 1-6.208-5.78 33.739 33.739 0 0 1-2.052-2.711 35.346 35.346 0 0 1-1.775-2.9 35.343 35.343 0 0 1-1.478-3.062 35.075 35.075 0 0 1-1.169-3.193 34.573 34.573 0 0 1-1.148-4.967c-1.486-9.23.419-18.591 5.998-26.166 6.078-8.252 14.316-11.63 24.175-13.124Z"/>
    <path fill="#02020B" d="M190.76 279.155c7.172-.564 14.095.708 20.273 4.519a33.254 33.254 0 0 1 2.62 1.788 32.795 32.795 0 0 1 3.57 3.142 32.083 32.083 0 0 1 3.068 3.634 31.53 31.53 0 0 1 1.734 2.656 32.363 32.363 0 0 1 2.645 5.758 31.975 31.975 0 0 1 .886 3.046 30.14 30.14 0 0 1 .589 3.048 30.736 30.736 0 0 1 .304 4.645 30.902 30.902 0 0 1-2 10.629 31.374 31.374 0 0 1-1.244 2.844 30.452 30.452 0 0 1-1.523 2.706c-5.556 8.708-13.45 12.448-23.231 14.619-8.242.876-16.996-1.225-23.814-5.993-6.786-4.745-10.916-12.058-12.309-20.135a32.049 32.049 0 0 1-.394-3.163 31.332 31.332 0 0 1-.075-3.187 32.565 32.565 0 0 1 .246-3.178 31.054 31.054 0 0 1 .563-3.137 31.49 31.49 0 0 1 1.426-4.561 32.114 32.114 0 0 1 2.096-4.295 31.45 31.45 0 0 1 1.745-2.667c5.485-7.517 13.812-11.401 22.825-12.718Z"/>
    <path fill="#F2F0ED" d="M190.695 284.562c5.827-.465 11.51.375 16.675 3.267 5.936 3.324 10.662 9.085 12.46 15.678 1.9 6.964 1.071 14.7-2.743 20.881-4.08 6.613-10.348 10.391-17.721 12.225-6.565.762-12.564.034-18.407-3.279a25.385 25.385 0 0 1-3.222-2.192 25.573 25.573 0 0 1-1.95-1.718 26.53 26.53 0 0 1-1.769-1.905 25.555 25.555 0 0 1-1.571-2.071 25.669 25.669 0 0 1-1.949-3.374 26.167 26.167 0 0 1-1.425-3.627 25.78 25.78 0 0 1-.352-1.251 25.878 25.878 0 0 1-.792-8.984 25.316 25.316 0 0 1 .353-2.565 26.156 26.156 0 0 1 1.004-3.749 25.252 25.252 0 0 1 .975-2.398 26.043 26.043 0 0 1 1.21-2.289c4.419-7.322 11.229-10.762 19.224-12.649Z"/>
    <path fill="#02020B" d="M192.924 296.642c2.888-.187 6.013.256 8.653 1.473 3.558 1.639 6.253 4.622 7.411 8.375a14.795 14.795 0 0 1 .628 4.517 14.767 14.767 0 0 1-1.356 5.907c-.214.462-.451.912-.712 1.349-2.425 4.011-5.882 5.656-10.265 6.754-3.277.126-6.549-.421-9.46-1.995-3.424-1.852-5.942-4.934-6.932-8.712-.975-3.716-.462-8.024 1.568-11.311 2.496-4.042 6.035-5.413 10.465-6.357Z"/>
    <path fill="#F2F0ED" d="M194.234 306.077c1.826.269 3.623.734 4.626 2.461.556.957.789 2.17.281 3.203-.756 1.54-1.983 1.777-3.427 2.354-1.7-.374-3.802-.861-4.608-2.63-.509-1.12-.63-2.011-.034-3.132.662-1.245 1.956-1.732 3.162-2.256Zm-52.906-228.37c20.812-2.51 44.137 4.329 63.317 12.144 13.626 5.551 15.686 7.79 21.378 21.277-5.581 2.625-11.497 4.709-17.215 7.041-7.492 3.055-14.909 6.314-22.356 9.477l-111.58 46.515c-18.313 7.358-36.939 14.16-55.058 21.962-4.005-4.406-7.734-9.968-9.99-15.5 6.343-17.67 13.714-33.796 26.064-48.216 25.283-29.52 66.581-51.644 105.44-54.7Z"/>
    <path fill="#02020B" d="M182.761 87.588c3.338-.215 6.186-.029 9.343 1.19a18.379 18.379 0 0 1 1.794.794 19.197 19.197 0 0 1 1.702.977 18.766 18.766 0 0 1 4.375 3.906 19.576 19.576 0 0 1 1.163 1.581 18.493 18.493 0 0 1 1.42 2.576c.135.298.263.6.382.904 1.769 4.392 1.831 9.163-.195 13.478-2.643 5.63-7.193 8.317-12.812 10.291-3.786.385-7.12.304-10.717-1.149a17.504 17.504 0 0 1-2.439-1.194 17.327 17.327 0 0 1-1.513-.996 18.242 18.242 0 0 1-2.06-1.77 19.36 19.36 0 0 1-.624-.657 18.281 18.281 0 0 1-1.659-2.15 17.94 17.94 0 0 1-1.313-2.377 17.983 17.983 0 0 1-.355-.834c-1.711-4.419-1.345-9.4.632-13.667 2.63-5.674 7.173-8.85 12.876-10.903Z"/>
    <path fill="#F2F0ED" d="M183.587 93.072c1.959-.134 3.745-.062 5.636.529a13.347 13.347 0 0 1 4.603 2.459 13.146 13.146 0 0 1 1.851 1.857 13.171 13.171 0 0 1 1.45 2.185c1.532 2.886 2.041 6.361.934 9.483-1.556 4.391-5.001 6.439-9.011 8.244l-.443.067c-2.328.375-4.127.422-6.375-.4-3.264-1.193-5.773-3.535-7.192-6.71a12.279 12.279 0 0 1-.81-2.476 12.591 12.591 0 0 1-.213-3.893 12.648 12.648 0 0 1 1-3.768c1.772-4.041 4.631-5.94 8.57-7.577Z"/>
    <path fill="#02020B" d="M40.764 145.627c3.96-.464 7.712-.427 11.466 1.068a17.017 17.017 0 0 1 1.654.746 17.957 17.957 0 0 1 2.316 1.428 17.6 17.6 0 0 1 2.693 2.426 18.205 18.205 0 0 1 1.145 1.408 17.645 17.645 0 0 1 1.431 2.314 17.442 17.442 0 0 1 .748 1.653 18.403 18.403 0 0 1 1.207 7.101 18.335 18.335 0 0 1-.945 5.334 18.515 18.515 0 0 1-.659 1.688c-2.566 5.843-7.06 8.79-12.782 10.996-4.275.796-7.756.851-11.858-.978a18.198 18.198 0 0 1-2.494-1.346 19.101 19.101 0 0 1-1.534-1.104 18.607 18.607 0 0 1-2.068-1.937 19.181 19.181 0 0 1-1.202-1.459 18.56 18.56 0 0 1-1.506-2.4 18.535 18.535 0 0 1-1.118-2.604c-1.655-4.968-.939-10.654 1.518-15.238 2.727-5.087 6.691-7.427 11.988-9.096Z"/>
    <path fill="#F2F0ED" d="M42.69 151.093c2.718-.21 5.546.033 8.052 1.167a11.969 11.969 0 0 1 2.167 1.256 12.052 12.052 0 0 1 3.913 4.813c.172.381.324.771.455 1.168 1.15 3.539.684 7.634-1.174 10.851-1.921 3.326-4.6 5.064-8.206 6.119-2.942.133-5.694.073-8.423-1.164a11.961 11.961 0 0 1-1.13-.573 12.02 12.02 0 0 1-2.054-1.48 12.047 12.047 0 0 1-1.704-1.871 12.21 12.21 0 0 1-1.746-3.362c-1.076-3.302-.771-7.114.882-10.174 2.002-3.706 5.084-5.482 8.968-6.75Z"/>
  </g>
  <defs>
    <linearGradient id="b" x1="397.243" x2="313.89" y1="536.418" y2="675.535" gradientUnits="userSpaceOnUse">
      <stop stop-color="#DCD8D8"/>
      <stop offset="1" stop-color="#fff"/>
    </linearGradient>
    <clipPath id="a">
      <path fill="#fff" d="M0 0h470v763H0z"/>
    </clipPath>
  </defs>
</svg>
