<svg xmlns="http://www.w3.org/2000/svg" width="878" height="938" fill="none" viewBox="0 0 878 938">
  <g clip-path="url(#a)">
    <path fill="#000" d="M457.304 894.024c.612.67.953 1.431 1.386 2.228-.447 1.434-1.211 1.712-2.389 2.602-1.067-.526-1.111-.578-1.674-1.627.384-1.428 1.615-2.255 2.677-3.203Zm32.082-18.827c.988.432 1.345.789 1.974 1.661-.313 1.541-.812 1.774-1.921 2.842-1.138-.402-1.623-.587-2.31-1.598.457-1.607 1.011-1.843 2.257-2.905Zm5.566-3.59c1.425.419 1.492.384 2.345 1.584.034 1.513-.372 2.015-1.188 3.215-1.426-.321-1.755-.567-2.616-1.681.186-1.661.378-1.816 1.459-3.118ZM9.044 519.326c1.15.151 2.098.432 3.189.803 1.005 1.424.841 2.456.962 4.172-.967-.443-2.077-.875-2.947-1.485-1.268-.887-1.105-2.124-1.204-3.49Zm-.618 74.537c1.43.091 2.467.176 3.779.84.88 1.508.759 2.277.806 3.996-.274-.057-.558-.083-.824-.171-2.032-.679-3.109-2.807-3.761-4.665Zm336.187 309.9c1.408.263 2.092.496 3.285 1.368.559 1.468.436 1.684.075 3.238-1.341-.364-2.203-.723-3.385-1.504-.587-1.492-.461-1.55.025-3.102ZM9.083 601.407c1.564.245 2.578.383 3.663 1.612.423 1.439.21 2.019-.232 3.389-1.125-.5-2.063-1.189-3.06-1.899-.675-1.44-.663-1.533-.371-3.102Zm413.305 313.548c.564.697.7 1.518.965 2.371-.537 1.587-1.716 2.151-3.045 3.016-.776-.916-.938-1.38-1.078-2.569.643-1.517 1.809-2.025 3.158-2.818ZM8.836 535.877c1.453.141 2.503.241 3.797 1.001.853 1.37.507 2.657.321 4.171-.815-.346-.743-.285-1.531-.749-1.784-1.051-2.196-2.537-2.587-4.423Zm211.012-271.988c1.288.479 2.05.631 2.816 1.847-.086 1.446-.494 1.896-1.25 3.104-1.396-.571-2.117-1.025-2.878-2.348.16-1.459.303-1.51 1.312-2.603Zm249.096 622.762c1.267.302 1.879.455 2.775 1.423-.193 1.501-.844 1.995-1.784 3.153-.688.235-.968.146-1.668.033l-.608-.982c.107-1.911.252-2.133 1.285-3.627ZM9.166 561.01c1.271.131 2.207.343 3.385.838.875 1.499.706 2.299.714 4.009-.954-.265-2.573-.808-3.248-1.607-.99-1.175-.874-1.802-.85-3.24ZM509.84 863.227c1.021.766 1.076.88 1.505 2.088-.434 1.57-1.182 2.114-2.389 3.087-1.224-.68-1.449-.653-1.977-1.923.484-1.591 1.611-2.277 2.861-3.252Zm-95.015 56.096c.041.023.086.04.123.07.996.821.985.898 1.168 2.148-.586 1.483-1.519 2.194-2.695 3.192-.843-.859-1.186-1.383-1.54-2.535.468-1.485 1.715-2.064 2.944-2.875ZM9.005 459.813c1.384-.024 2.314-.074 3.564.641.912 1.305.798 2.325.765 3.839-1.356-.249-2.171-.519-3.385-1.237-.902-1.228-.916-1.785-.944-3.243ZM8.585 585.9c1.437-.05 2.685-.234 3.972.535.843 1.302.584 2.404.433 3.862-.916-.356-2.243-.714-3.015-1.297-1.171-.885-1.139-1.764-1.39-3.1Zm494.343 281.348c.957.593.996.732 1.471 1.767-.397 1.626-1.551 2.553-2.69 3.697-.912-.72-1.196-1.179-1.614-2.259.377-1.582 1.613-2.269 2.833-3.205ZM9.152 552.747c1.44.122 2.184.151 3.405 1.011.832 1.399.713 2.5.658 4.058-1.108-.234-2.145-.529-2.996-1.333-1.058-.999-1.023-2.397-1.067-3.736Zm620.086 240.422c1.256.627 1.485.692 2.197 1.88-.323 1.597-1.249 2.226-2.419 3.233-1.057-.488-1.352-.81-1.922-1.821.433-1.67.976-2.064 2.144-3.292ZM8.879 510.776c1.417.114 2.309.22 3.613.856.828 1.622.608 2.527.54 4.323-.925-.485-1.966-.963-2.796-1.594-1.29-.978-1.196-2.129-1.357-3.585Zm.364-68.809c1.255.178 2.134.453 3.275 1.006.842 1.451.69 2.236.708 3.89-1.205.056-1.765.03-2.716-.9-1.127-1.102-1.212-2.524-1.267-3.996Zm-.236 126.945c1.425.103 2.25.24 3.562.892.955 1.275.788 2.543.783 4.055-1.06-.303-2.481-.873-3.315-1.616-1.086-.966-.996-1.994-1.03-3.331Zm.321-143.665c1.436.129 2.222.147 3.433 1.011.827 1.446.68 2.521.573 4.11-.999-.229-2.33-.765-3.04-1.553-1.022-1.138-.981-2.151-.966-3.568Zm-.386 102.479c1.573.154 2.73.198 3.952 1.323.597 1.401.408 2.25.133 3.677-.906-.278-2.047-.706-2.769-1.349-1.184-1.056-1.188-2.187-1.316-3.651Zm.124 16.488c1.463.121 2.175.268 3.475 1.046.89 1.402.741 2.394.627 3.968-1.167-.223-1.933-.583-2.96-1.177-1.001-1.34-1.053-2.24-1.142-3.837Zm349.572 369.08c1.769.098 2.814.259 4.234 1.355.579 1.473.438 1.701.081 3.27-1.066-.174-2.175-.616-3.034-1.299-1.223-.971-1.186-1.875-1.281-3.326ZM8.808 502.555c1.536.034 2.915-.137 4.156.911.558 1.278.326 2.249.121 3.57-1.007-.188-1.786-.522-2.739-.9-1.17-1.163-1.288-2.031-1.538-3.581ZM374.875 921.71a11.918 11.918 0 0 1 2.845 2.156c.293 1.493.133 1.664-.484 3.08-1.325-.574-2.533-1.004-3.528-2.099-.034-1.489.402-1.89 1.167-3.137Zm32.401 2.188c.621.712 1.222 1.41 1.764 2.185-.573 1.398-1.991 1.951-3.233 2.777-.64-.046-1.061-.459-1.586-.806l-.032-.874c.761-1.577 1.692-2.259 3.087-3.282Zm214.426-126.125c1.214.207 1.97.234 2.897 1.112-.559 1.455-1.656 2.015-2.857 2.98-.806.675-.316.472-1.523.456-.162-.379-.398-.861-.426-1.274-.121-1.775.762-2.201 1.909-3.274Zm-84.75 49.553c.927.64 1.148 1.01 1.725 1.944-.169 1.658-.562 2-1.532 3.308-.315-.095-.641-.161-.946-.285-1.139-.465-1.333-.751-1.778-1.806.343-1.471 1.448-2.209 2.531-3.161Zm78.277-45.447c.664.787 1.025 1.374 1.373 2.343-.729 1.429-1.851 1.879-3.176 2.752-.105-.059-.231-.09-.316-.176-.825-.835-.931-1.302-1.015-2.397.799-1.506 1.665-1.847 3.134-2.522ZM9.288 493.399c1.054.409 2.085.89 3.121 1.341.831 1.51.617 2.505.601 4.208-1.152-.451-2.15-.969-3.219-1.58-.794-1.569-.604-2.244-.503-3.969Zm.372-59.978c1.492.336 2.212.478 3.355 1.575.576 1.476.304 2.414-.032 3.889-1.043-.512-2.677-1.307-3.268-2.374-.723-1.307-.45-1.758-.055-3.09Zm-.538 34.328c1.268.188 2.135.503 3.278 1.08.958 1.339.892 2.347.896 3.916-1.403-.197-2.226-.474-3.447-1.127-.942-1.328-.799-2.329-.727-3.869Zm.478-51.465c1.401.41 2.32.719 3.443 1.721.515 1.635.316 2.136-.03 3.775-1.315-.645-2.207-1.27-3.31-2.237-.566-1.54-.524-1.662-.103-3.259Zm520.814 435.093c.945.792 1.137 1.276 1.467 2.454-.631 1.658-1.128 1.948-2.458 3.062-.97-.912-1.506-1.332-1.832-2.674.635-1.451 1.574-1.899 2.823-2.842Zm56.832-32.939c.661.784.828 1.434 1.158 2.39-.579 1.495-1.38 1.946-2.589 2.97-.863-.98-1.417-1.57-1.785-2.856.804-1.458 1.776-1.714 3.216-2.504Zm13.202-8.095c.089.022.185.025.266.066 1.015.518 1.199.885 1.701 1.854-.725 1.642-1.33 1.889-2.766 2.908-1.011-.714-1.466-1.138-2.006-2.258.647-1.432 1.507-1.724 2.805-2.57ZM8.682 476.896c1.376.054 2.268.128 3.564.669 1.104 1.215.976 2.785 1.088 4.34-1.17-.278-2.1-.708-3.177-1.226-1.142-1.288-1.27-2.152-1.475-3.783Zm.386-26.058c1.497.122 2.3.181 3.608 1.005.902 1.38.73 2.441.629 4.003-1.226-.211-2.307-.534-3.239-1.423-1.036-.989-.966-2.278-.998-3.585Zm474.26 427.977c.049.016.1.026.146.049 1.238.621 1.248.654 1.715 1.925-.481 1.57-1.289 2.132-2.521 3.098-1.018-.692-1.532-1.122-2.117-2.212.567-1.489 1.523-1.91 2.777-2.86Zm-6.145 3.53c.872.464 1.142.843 1.637 1.689-.279 1.699-1.724 2.694-2.918 3.821-.783-.806-1.239-1.373-1.658-2.419.553-1.52 1.694-2.089 2.939-3.091ZM9.007 485.206c1.487.253 2.451.404 3.657 1.403.713 1.392.422 2.585.23 4.066-.956-.427-2.358-1.04-3.104-1.795-1.008-1.022-.833-2.357-.783-3.674Zm.406 91.857c1.246.317 2.044.704 3.112 1.419.89 1.407.867 2.264.804 3.852-1.534-.509-2.779-.843-3.946-2.034-.457-1.407-.3-1.771.03-3.237ZM8.99 408.31c1.576.108 2.8.06 4.084 1.112.664 1.347.302 2.507.05 3.912-.943-.38-2.084-.899-2.9-1.5-1.267-.934-1.125-2.124-1.235-3.524Zm-.061-8.381c1.491.027 2.779-.131 4.021.837.764 1.444.596 2.537.467 4.097-.94-.223-2.205-.745-2.93-1.403-1.208-1.096-1.364-2.02-1.558-3.531Zm570.822 422.3c.105.035.218.052.315.107 1.048.591 1.053 1.124 1.421 2.216-.471 1.974-.615 2.097-2.019 3.399-1.154-.77-1.656-1.368-1.954-2.733.357-1.541 1.073-2.047 2.237-2.989Zm-15.033 8.411c1.373.474 1.644.584 2.6 1.661-.114 1.76-.568 2.164-1.555 3.581-1.441-.494-1.759-.518-2.69-1.693-.002-1.601.716-2.351 1.645-3.549Zm-234.276 63.616c1.323.582 2.287 1.063 3.347 2.09.091 1.589-.232 1.71-1.144 2.955-1.42-.053-1.906-.339-2.911-1.255-.323-1.551.109-2.404.708-3.79Zm105.831 12.038c.893.476 1.352.96 1.994 1.736-.33 1.625-1.175 2.041-2.369 3.151-.065-.014-.133-.023-.196-.044-1.381-.466-1.638-.409-2.301-1.659.483-1.476 1.714-2.241 2.872-3.184Zm-6.815 4.101c.976.834 1.079 1.475 1.191 2.665-.808 1.515-1.754 2.001-3.186 2.812-.776-.824-1.1-1.295-1.388-2.393.48-1.504 2.13-2.251 3.383-3.084Zm-124.675-32.639c1.455.51 1.894.978 2.616 2.237-.036 1.182-.119 1.972-.591 3.061-1.409-.822-2.793-1.555-3.952-2.726l.039-1.036 1.888-1.536Zm338.455-92.922.755.259c.624.916 1.147 1.76.97 2.93-.21 1.386-.839 1.672-1.878 2.442-.959-.909-1.585-1.612-2.25-2.778.483-1.499 1.215-1.854 2.403-2.853Zm-199.418 116.8c1.234.571 1.567.972 2.116 2.138-.16 1.474-.95 2.129-1.923 3.142-.342-.073-.772-.149-1.087-.294-1.109-.51-1.195-.789-1.555-1.865.418-1.472 1.349-2.151 2.449-3.121Zm129.759-75.4.95.582.327 1.626c-.55 1.708-1.335 2.42-2.665 3.591-.923-.985-1.457-1.436-1.659-2.826.546-1.525 1.764-2.121 3.047-2.973Zm-173.76 102.038c1.109.649 1.36.696 1.903 1.836-.6 1.528-2.159 2.293-3.461 3.186-.657.009-1.068-.241-1.663-.497l-.119-1.128c.878-1.613 1.857-2.343 3.34-3.397Zm123.625-73.113c1.244.541 1.452.991 1.926 2.167-.375 1.629-1.133 2.312-2.278 3.429-1.229-.538-1.734-1.138-2.206-2.31.621-1.733 1.204-2.091 2.558-3.286Zm34.689-20.479c1.259.823 1.672 1.004 2.379 2.375-.628 1.66-1.256 1.967-2.615 3.058-.076-.024-.159-.033-.228-.072-1.143-.651-1.217-.909-1.668-2.095.505-1.778.846-2.026 2.132-3.266Zm-107.216 62.999c.142.066.295.111.425.197 1.094.724 1.126.928 1.318 2.146-.633 1.485-1.561 2.171-2.777 3.151-.099-.047-.207-.082-.299-.143-1.065-.711-1.241-.889-1.588-2.065.515-1.553 1.698-2.301 2.921-3.286Zm-129.403-7.333c1.784.003 2.958.107 4.528 1.066.836 1.387.796 1.686.783 3.327-1.284.099-2.319.127-3.392-.743-1.269-1.029-1.543-2.161-1.919-3.65Zm326.775-109.137c.328.045.661.061.984.134 1.287.292 1.493.6 2.202 1.619.026 1.496-.334 2.063-1.073 3.302-.693.04-1.213.044-1.898-.116-.815-.19-.791-.571-1.199-1.251.067-1.482.405-2.354.984-3.688Zm-11.605 7.561c1.112.874 1.424 1.425 1.701 2.746-.53 1.553-1.429 2.169-2.662 3.142-1.011-.801-1.434-1.433-1.645-2.695.513-1.653 1.292-2.199 2.606-3.193ZM351.6 908.18c1.495.237 2.867.676 3.877 1.889.975 1.169.879 1.84.629 3.255-1.421-.022-2.606-.258-3.643-1.319-1.127-1.152-.935-2.39-.863-3.825Zm29.467 17.899c1.401.408 2.282.711 3.39 1.733.418 1.643.137 2.073-.373 3.649-1.376-.567-2.467-1.026-3.585-2.053-.391-1.588-.065-1.869.568-3.329ZM116.262 323.958c.775 1.171 1.255 1.902 1.513 3.314-.608 1.41-1.007 1.509-2.265 2.318-1.016-.919-1.869-1.594-2.342-2.929.728-1.516 1.686-1.826 3.094-2.703Zm95.509-55.33c.176.021.356.02.529.063 1.3.321 1.541.55 2.315 1.566.064 1.55-.532 2.377-1.308 3.64-1.298-.412-2.398-.815-3.171-1.992.155-1.692.595-1.983 1.635-3.277Zm395.831 537.609c.128.05.267.079.384.151.996.615 1.287.838 1.683 1.937-.469 1.335-1.766 1.975-2.879 2.747-.871.087-1.331-.103-2.153-.36l-.275-1.052c.818-1.751 1.642-2.373 3.24-3.423Zm-13.129 7.787c.565.844.963 1.566 1.3 2.525-.753 1.447-1.637 1.796-2.987 2.678l-.652-.171c-.952-.921-1.156-.887-1.229-2.186.932-1.585 1.949-2.045 3.568-2.846ZM123.904 319.25c.17.087.358.144.51.259.906.695 1.108 1.518 1.265 2.579-.77 1.774-1.175 1.936-2.712 3.005-.834-1.13-1.439-1.958-1.746-3.368.697-1.384 1.4-1.645 2.683-2.475Zm393.059 540.14c1.016.816 1.189.92 1.603 2.14-.486 1.647-1.684 2.383-2.968 3.399-.966-.934-1.493-1.47-1.983-2.759.794-1.56 1.866-1.894 3.348-2.78ZM98.497 333.098c.288.064.586.094.865.193 1.256.442 1.494.913 2.118 1.994-.242 1.768-.664 2.094-1.761 3.447-1.42-.384-1.778-.735-2.581-1.904.102-1.862.386-2.21 1.359-3.73Zm267.997 584.078c1.537.57 2.72 1.007 3.936 2.127.547 1.659.306 1.875-.24 3.471-1.497-.595-2.642-1.105-3.872-2.157-.589-1.627-.338-1.849.176-3.441ZM46.186 363.852c.931.939 1.497 1.639 2.104 2.841-.38 1.658-.915 1.795-2.206 2.839-1.175-.925-2.113-1.517-2.542-3.029.634-1.487 1.338-1.744 2.644-2.651Zm15.459-8.998c.182.123.39.212.545.368.802.806 1.094 1.732 1.19 2.822-.707 1.626-1.15 1.816-2.555 2.818-.859-1.019-1.597-1.759-1.809-3.129.364-1.414 1.525-2.045 2.63-2.879Zm-38.954 22.49c1.059 1.03 1.839 1.721 2.252 3.199-.684 1.526-1.125 1.529-2.564 2.287-1.1-.836-1.905-1.417-2.517-2.705.678-1.486 1.515-1.846 2.83-2.781Zm155.692-90.195c1.664.412 2.27.945 3.24 2.347.202 1.803.017 2.045-.745 3.611-1.555-.798-2.664-1.438-3.604-2.975-.046-1.631.113-1.659 1.109-2.983ZM30.672 372.987c.944.987 1.633 1.685 2.054 3.029-.629 1.641-1.227 1.852-2.622 2.864-.97-1.087-1.725-1.97-2.302-3.336.651-1.558 1.442-1.717 2.87-2.557Zm7.531-4.751c1.206.898 1.82 1.61 2.268 3.053-.458 1.704-.937 1.914-2.228 3.055-1.149-1.044-2.126-1.768-2.515-3.344.604-1.486 1.231-1.792 2.475-2.764Zm16.167-8.842c.9 1.14 1.269 1.639 1.442 3.139-.61 1.57-1.336 2.056-2.67 2.949-.966-1.147-1.73-1.932-1.951-3.478.83-1.434 1.774-1.769 3.18-2.61Zm53.571-31.027c.994.76 1.401 1.7 1.788 2.842-.523 1.748-.895 1.91-2.243 3.054-1.308-.837-2.006-1.551-2.457-3.052.773-1.635 1.43-1.867 2.912-2.844Zm443.317 510.415 1.052.151c.994.858 1.008.821 1.207 2.113-.587 1.654-1.178 2.167-2.611 3.149-.118-.035-.242-.055-.354-.106-1.229-.561-1.397-.756-1.979-1.916.417-1.704 1.393-2.342 2.685-3.391ZM68.32 350.799c1.269.791 2.152 1.234 2.708 2.709-.363 1.659-.805 1.972-1.932 3.192-1.204-.758-2.294-1.56-2.894-2.881.313-1.71.855-1.886 2.119-3.02Zm102.997-59.154c1.438.625 1.728 1.247 2.307 2.622-.132 1.677-.659 2.312-1.699 3.529-1.271-.856-2.533-1.479-2.995-3.033.519-1.65 1.121-1.983 2.387-3.118Zm32.565-18.484c.321.107.663.165.964.319 1.075.549 1.331 1.265 1.746 2.295-.439 1.843-.786 2.029-2.108 3.297-1.307-.693-2.079-1.201-2.645-2.594.141-1.496 1.074-2.272 2.043-3.317ZM76.93 346.392c1.006.879 1.483 1.85 1.625 3.155-.685 1.573-1.192 1.787-2.555 2.765-1.035-1.069-1.884-1.836-2.271-3.33.804-1.437 1.799-1.765 3.201-2.59Zm54.566-31.667c.174.077.359.132.521.231 1.069.658 1.328 1.436 1.664 2.578-.426 1.861-.626 1.973-1.952 3.217-1.483-.848-2.174-1.396-2.674-3.004.621-1.611 1.151-1.928 2.441-3.022Zm24.193-13.972c1.163.933 1.843 1.814 2.133 3.278-.637 1.626-1.065 1.809-2.424 2.831-.11-.078-.227-.148-.332-.233-1.209-.97-1.758-1.86-1.933-3.389.708-1.525 1.158-1.631 2.556-2.487Zm-15.779 9.126c.992.98 1.622 2.037 1.882 3.411-.599 1.549-1.148 1.759-2.457 2.727-1.213-.962-1.94-1.75-2.274-3.283.768-1.569 1.44-1.871 2.849-2.855Zm6.56-4.257c1.48.526 2.383 1.149 3.374 2.366.167 1.728-.104 1.841-1.014 3.245-.422-.019-.951-.019-1.35-.152-1.317-.44-1.648-.996-2.339-2.092.081-1.789.317-1.973 1.329-3.367Zm48.044-27.456c1.63.293 2.592.698 3.608 2.03-.184 1.688-.565 2.007-1.568 3.325-.202-.018-.407-.011-.605-.054-1.244-.275-1.855-.714-2.58-1.722-.104-1.813.229-2.072 1.145-3.579ZM13.925 382.297l1.287.223c1.058.932 1.399 1.376 1.738 2.751-.382 1.366-.34 1.267-1.575 1.977-1.421-.601-3.097-1.064-4.08-2.305.475-1.401 1.468-1.787 2.63-2.646Zm70.405-40.473c1.028.884 1.955 1.805 2.14 3.19-.67 1.567-1.29 1.894-2.609 2.928-1.058-.907-2.016-1.555-2.376-2.971.415-1.579 1.604-2.227 2.844-3.147Zm6.276-4.127 1.402.135c1.092.799 1.17.903 1.64 2.172-.371 1.849-.638 2.134-1.821 3.505-1.255-.819-2.236-1.439-3.085-2.718.21-1.667.73-1.905 1.864-3.094Zm96.882-55.01c.193.081.398.137.577.244 1.065.636 1.74 1.245 2.108 2.438-.376 1.638-.709 1.825-1.87 2.969-1.597-.678-2.902-1.151-3.66-2.76.45-1.433 1.681-2.063 2.845-2.891Zm-23.897 13.619c.186.081.396.123.56.244.874.639 1.684 1.889 1.659 3.004-.036 1.606-.72 1.911-1.852 2.839-1.308-.999-2.721-1.811-3.3-3.421.668-1.607 1.47-1.783 2.933-2.666ZM9.24 387.82c.43.25.56.3.964.694 1.713 1.673 3.222 4.05 3.054 6.494-.925 1.143-1.005 1.171-2.427 1.56-1.04-1.274-1.697-2.198-2.066-3.853 1.132-1.021 1.544.528 2.872-.187-.657-1.175-.983-1.133-2.134-1.735-.554-1.162-.38-1.672-.262-2.973Zm379.864 543.392c.161.019.324.026.484.056 1.631.303 2.695.966 3.675 2.309.221 1.838-.009 1.945-.919 3.471-1.617-.597-3.279-1.155-4.348-2.569-.18-1.631.258-1.91 1.108-3.267Zm374.247-274.989c31.133-1.274 65.426 6.14 89.269 27.284 9.756 8.652 17.238 19.781 17.91 33.13.402 7.961.116 16.065.252 24.049.314 18.525 1.925 32.339-11.586 46.96-20.33 21.999-54.042 31-83.003 32.282-31.81.546-67.126-4.73-91.521-26.832-9.411-8.527-17.168-21.146-17.748-34.072-.318-7.059.082-14.233.099-21.307.048-20.579.346-32.399 15.173-48.459 20.277-21.965 52.065-31.757 81.155-33.035Z"/>
    <path fill="#FBFAF8" d="m863.188 743.897.493.645c.324 8.428 1.075 20.105-1.768 27.981l-.206-.009c-.119-.267-.287-.518-.356-.802-.463-1.921-.045-21.536.297-23.761.229-1.491.827-2.741 1.54-4.054Zm-3.784 5.238c.896 1.638.988 25.386-.026 28.068-.383 1.014-.854 1.622-1.541 2.429l-.933.16c.106-9.127.141-18.254.106-27.38l2.394-3.277Zm-13.122 12.629c.641 1.29.457 2.555.394 3.949-.028 4.714.871 21.79-.933 25.144l-.701.093c-.249-.438-.506-.82-.636-1.31-3.556-3.384.686-11.12-1.729-15.013l-.146-9.683 1.111-.546c.401 1.84.168 3.617.744 5.402l-.021-.875c-.067-3.094-.337-4.822 1.917-7.161Z"/>
    <path fill="#000" d="m842.531 764.944 1.111-.546c.401 1.84.168 3.617.744 5.402.163 6.478.672 13.396.02 19.84-3.556-3.384.686-11.12-1.729-15.013l-.146-9.683Zm-167.149-23.526c5.787 10.64 15.739 19.644 26.434 25.349l-.926.402-2.255-.774-.296.16 2.139 1.504-.886.262c-4.903-2.715-9.533-6.228-13.997-9.609.667 6.514-.226 13.3.087 19.897-.672.302-.996.468-1.746.485.031 1.212.24 2.382-.524 3.405l-.84-.212c-.834-1.293-1.256-2.146-1.588-3.646-.448-.565-.772-1.193-1.132-1.816l-.371-.041c-1.394-1.217-1.545-4.199-1.872-5.977-.144-.148-.298-.286-.432-.442-1.274-1.489-1.982-25.967-1.795-28.947Z"/>
    <path fill="#FBFAF8" d="M677.609 770.807c-.098-5.827-.969-14.995.481-20.442l-.657.082c.745.404 1.482.497 1.722 1.348 1.947 6.915.773 17.655.697 25.03l-.371-.041c-1.394-1.217-1.545-4.199-1.872-5.977Zm3.398-17.026c1.114 1.327 2.336 2.634 3.349 4.037-.592 7.113-.664 14.142-.42 21.276.031 1.212.24 2.382-.524 3.405l-.84-.212c-.834-1.293-1.256-2.146-1.588-3.646.022-8.283.149-16.58.023-24.86Z"/>
    <path fill="#000" d="m858.83 746.989.574 2.146-2.394 3.277c.035 9.127 0 18.254-.106 27.38l-.551-.071-.749-1.234c.068 2.539-.091 3.997-1.906 5.943-.817-.527-.595-.232-.873-.68l-1.406.4c-.406 1.917-.906 3.087-2.596 4.2-.566.372-.524.326-1.061.492-2.439-5.52.425-16.548-1.086-23.129.063-1.394.247-2.659-.394-3.949l-.998-1.934c3.815-4.775 9.426-8.117 13.546-12.841Z"/>
    <path fill="#FBFAF8" d="M852.877 762.297c-.096-2.465-.458-4.777 1.219-6.832.415-.508.324-.43.701-.632 1.652 1.81.664 19.849.807 23.654.068 2.539-.091 3.997-1.906 5.943-.817-.527-.595-.232-.873-.68.699-7.001.17-14.421.052-21.453Z"/>
    <path fill="#FBFAF8" d="M847.762 788.842c.904-7.712-.908-21.48 1.071-28.002.468-1.544 1.503-2.031 2.822-2.753.703 1.366.934 2.719 1.222 4.21.118 7.032.647 14.452-.052 21.453l-1.406.4c-.406 1.917-.906 3.087-2.596 4.2-.566.372-.524.326-1.061.492Z"/>
    <path fill="#000" d="M851.655 758.087c.703 1.366.934 2.719 1.222 4.21.118 7.032.647 14.452-.052 21.453l-1.406.4c-.005-8.638-.366-17.452.236-26.063Z"/>
    <path fill="#FBFAF8" d="M685.682 778.609c-.313-6.597.58-13.383-.087-19.897 4.464 3.381 9.094 6.894 13.997 9.609l.886-.262-2.139-1.504.296-.16 2.255.774.926-.402c4.547 2.372 9.115 4.951 13.901 6.809 6.048 2.348 12.422 3.914 18.609 5.86 1.451 1.094 2.721 1.526 4.458 2.033.442.566.913 1.044 1.15 1.729 3.781.9 7.69 1.211 11.548 1.631 9.351.617 18.945 1.142 28.278.064 1.87.094 3.939-.286 5.814-.455-.95-.663-1.798-1.447-2.672-2.205l7.765-.992 5.767-.984c7.307-1.199 14.307-3.364 21.219-5.971l-.713 1.549.834 1.272a149.06 149.06 0 0 0 15.337-7.225c3.08-1.659 6.13-3.782 9.42-4.938l.146 9.683c-.041 5.988.099 12.047-.208 18.023-27.308 20.057-65.544 24.352-98.398 19.243-18.928-2.943-44.951-10.771-57.498-26.085-.248-2.233-.22-5.091-.891-7.199Z"/>
    <path fill="#000" d="m782.902 782.233 7.765-.992c1.952 1.016 3.084 1 5.254.808l1.144.767c-3.713.72-7.699 1.593-11.491 1.622-.95-.663-1.798-1.447-2.672-2.205Z"/>
    <path fill="#000" d="M796.434 780.257c7.307-1.199 14.307-3.364 21.219-5.971l-.713 1.549.834 1.272c-6.126 2.193-12.227 4.105-18.598 5.481l-2.111.228-1.144-.767c-2.17.192-3.302.208-5.254-.808l5.767-.984Zm-96.842-11.936.886-.262-2.139-1.504.296-.16 2.255.774.926-.402c4.547 2.372 9.115 4.951 13.901 6.809 6.048 2.348 12.422 3.914 18.609 5.86 1.451 1.094 2.721 1.526 4.458 2.033.442.566.913 1.044 1.15 1.729-11.003-1.433-31.907-8.178-40.342-14.877Z"/>
    <path fill="#FBFAF8" d="M680.619 741.552c-5.157-7.78-7.771-16.467-5.923-25.79 2.906-14.659 14.882-26.412 26.889-34.296 27.794-18.25 64.541-23.647 96.805-16.868 21.686 4.556 47.008 15.311 59.548 34.622 5.272 8.118 7.873 17.962 5.835 27.566-1.85 8.714-7.666 16.113-13.897 22.199-1.678 1.638-4.183 3.304-5.573 5.114l-.293 1.023c-3.926 4.106-17.412 10.736-22.915 13.524 2.393-.096 3.818-1.696 5.999-2.325 3.152-.909 7.196-2.347 9.427-4.905 3.345-3.836 8.376-5.185 12.403-8.06 3.56-2.541 6.682-6.171 9.544-9.459l.832.245c.85-1.086 2.568-3.947 3.746-4.322-1.484 2.347-2.804 4.779-4.216 7.169-4.12 4.724-9.731 8.066-13.546 12.841l.998 1.934c-2.254 2.339-1.984 4.067-1.917 7.161l.021.875c-.576-1.785-.343-3.562-.744-5.402l-1.111.546c-3.29 1.156-6.34 3.279-9.42 4.938a149.06 149.06 0 0 1-15.337 7.225l-.834-1.272.713-1.549c-6.912 2.607-13.912 4.772-21.219 5.971l-5.767.984-7.765.992c.874.758 1.722 1.542 2.672 2.205-1.875.169-3.944.549-5.814.455-9.333 1.078-18.927.553-28.278-.064-3.858-.42-7.767-.731-11.548-1.631-.237-.685-.708-1.163-1.15-1.729-1.737-.507-3.007-.939-4.458-2.033-6.187-1.946-12.561-3.512-18.609-5.86-4.786-1.858-9.354-4.437-13.901-6.809-10.695-5.705-20.647-14.709-26.434-25.349l-.649-1.842.429-.007 3.08 4.216 2.377-2.233Z"/>
    <path fill="#000" d="M816.864 691.307c.875.596 1.034.87 1.553 1.754-.611 1.451-1.315 1.721-2.582 2.615-.939-.495-1.256-.82-1.785-1.739.587-1.369 1.61-1.786 2.814-2.63Zm-79.61 9.35c1.282.223 1.901.382 2.891 1.241.638 1.368.305 2.395.016 3.799-.836-.369-1.617-.911-2.4-1.385-.777-1.497-.617-2.009-.507-3.655Zm90.923-17.057c1.278.403 1.61.348 2.373 1.422-.154 1.365-1.184 2.215-2.066 3.188-1.061-.277-1.185-.46-1.955-1.265.186-1.644.668-2.049 1.648-3.345Zm-16.865 11.294 1.019.441.246 1.174c-.728 1.508-1.454 2.197-2.769 3.217-.622-.681-1.045-1.306-1.485-2.117.544-1.495 1.68-1.858 2.989-2.715Zm-53.02 32.386c.883.638 1.235 1.044 1.705 2.028-.542 1.515-1.179 1.836-2.398 2.848-.898-.59-1.216-1.011-1.711-1.961.489-1.545 1.188-1.883 2.404-2.915Zm-14.87-23.142c1.055.268 1.693.789 2.549 1.44.546 1.581.354 1.931-.024 3.51-1.076-.435-2.022-.964-3.026-1.54-.492-1.576-.101-1.917.501-3.41Zm46.592 2.977c.285.033.576.033.855.101 1.108.272 1.278.597 1.758 1.523-.178 1.497-.702 2.009-1.642 3.116-1.151-.259-1.511-.549-2.296-1.42.04-1.629.446-1.989 1.325-3.32Zm32.922-19.948c1.155.647 1.299.687 1.878 1.861-.365 1.454-1.313 2.108-2.394 3.045-.044-.008-.09-.01-.132-.025-1.226-.448-1.252-.434-1.785-1.587.5-1.637 1.181-2.238 2.433-3.294Zm-106.394 1.528c.211.05.426.088.634.149 1.887.551 2.859 1.252 3.835 2.904l-.439 1.53c-1.364.059-1.893-.113-3.059-.818-.951-1.359-.972-2.183-.971-3.765Zm32.551 19.087c1.209.342 2.017.753 3.058 1.455.635 1.616.461 1.992.152 3.649-1.302-.559-2.167-1.06-3.254-1.968-.506-1.483-.408-1.616.044-3.136Zm-16.115 34.579c.892.567 1.126.966 1.556 1.924-.168 1.444-1.168 2.256-2.114 3.268-.905-.683-1.536-1.179-2.123-2.158.441-1.489 1.515-2.04 2.681-3.034Zm-20.502 11.383c1.504.256 2.019.151 3.11 1.266-.269 1.613-.744 2.04-1.735 3.303-1.1-.231-1.537-.611-2.353-1.367-.066-1.588.208-1.864.978-3.202Zm77.843-20.944c1.266.237 2.052.671 3.154 1.299.781 1.438.737 1.54.521 3.175-1.497.101-2.329-.105-3.523-1.021-.608-1.565-.509-1.79-.152-3.453Zm-12.59-8.065c1.411.229 2.042.48 3.155 1.379.812 1.465.843 2.114.766 3.723-.94.109-1.412.058-2.319-.114-1.282-1.263-1.332-3.277-1.602-4.988Zm26.323 15.793c1.21.324 1.941.738 2.956 1.467.841 1.303.72 1.977.624 3.459-1.391-.057-2.104-.052-3.311-.835-.809-1.359-.466-2.607-.269-4.091Zm-19.47-11.897c1.304.501 2.011.689 2.846 1.876.171 1.45-.129 2.078-.699 3.369-1.203-.607-2.161-1.132-3.197-2.013-.157-1.439.375-1.977 1.05-3.232Zm-58.612 17.588c1.377.404 1.382.297 2.099 1.522-.274 1.613-.991 2.338-2.043 3.501-1.081-.65-1.657-1.03-2.29-2.135.458-1.563 1.029-1.836 2.234-2.888Zm-5.714 3.751c.715.682 1.045 1.341 1.474 2.225-.465 1.579-1.349 2.078-2.549 3.174-.967-.925-1.539-1.391-1.9-2.726.544-1.405 1.754-1.927 2.975-2.673Zm90.444-5.22c1.31.346 1.931.745 2.947 1.636.476 1.664.34 2.094-.025 3.73-1.261-.602-2.264-1.155-3.374-2.025-.399-1.556-.105-1.879.452-3.341Zm-79.478-48.469c.996.482 1.684 1.176 2.493 1.915.668 1.493.503 2.092.169 3.62-1.359-.384-2.313-.647-3.392-1.625-.292-1.622.18-2.379.73-3.91Zm7.377 42.4c1.252.307 1.882.476 2.79 1.412-.206 1.49-.979 2.009-1.959 3.12-.571.242-1.053.229-1.666.268l-.643-.884c.017-1.792.423-2.489 1.478-3.916Zm58.331-2.482c1.209.374 2.762 1.104 3.525 2.157.812 1.123.569 1.657.43 2.958-1.578-.237-2.349-.447-3.665-1.346-.755-1.659-.568-2.024-.29-3.769Zm-89.067 20.585.696.257c.672.949.651 1.096.684 2.272-.872 1.605-1.043 1.852-2.691 2.847a11.543 11.543 0 0 1-1.664-1.443c.322-1.744 1.743-2.697 2.975-3.933Zm47.295-45.058c1.649.279 2.278.505 3.553 1.585.677 1.689.625 2.056.4 3.786-1.415-.735-3.343-1.517-4.12-2.969-.454-.849-.04-1.519.167-2.402Zm68.398 40.833c.891.343 1.559.76 2.361 1.268.647 1.711.303 2.382-.064 4.142-1.188-.614-2.26-1.232-3.357-1.995-.279-1.569.302-2.051 1.06-3.415Zm-6.226-4.261c1.18.612 1.91 1.172 2.822 2.14.347 1.709.133 1.942-.517 3.494-1.245-.605-2.247-1.13-3.273-2.091-.234-1.619.249-2.107.968-3.543Zm-19.888-45.555c1.248.331 1.434.242 2.172 1.272-.2 1.579-1.682 2.917-2.697 4.1-1.095-.366-1.378-1.043-1.851-1.987.34-1.695 1.146-2.302 2.376-3.385Zm7.767-4.35c.845.84.876.935 1.102 2.108-.612 1.621-2.052 2.54-3.348 3.61a7.69 7.69 0 0 1-1.384-2.181c.673-1.779 2.126-2.443 3.63-3.537Zm23.431 57.271c.229.095.47.164.687.283 1.914 1.056 3.014 3.134 3.396 5.192-1.571-.102-2.936-.094-4.204-1.142-.68-1.523-.226-2.786.121-4.333Zm-65.263-32.509c1.415.251 2.303.416 3.307 1.495-.044 1.454-.802 2.146-1.695 3.19-1.363-.078-1.908-.312-2.84-1.247-.068-1.799.255-1.991 1.228-3.438Zm-39.521-30.887c.889.294 2.35.935 2.965 1.678 1.003 1.213.835 1.911.808 3.394-.16.031-.319.072-.481.094-1.501.207-2.24-.091-3.374-.971-.606-1.653-.345-2.572.082-4.195Zm37.703 23.409c1.732.319 2.697.562 3.977 1.808.47 1.54.365 1.897.009 3.489-1.409-.271-2.143-.556-3.363-1.388-.833-1.68-.744-2.1-.623-3.909Zm17.027-.86c1.111.574 1.052.51 1.452 1.696-.638 1.712-2.226 2.924-3.533 4.156-.855-.718-1.395-1.082-1.676-2.193.765-1.744 2.264-2.526 3.757-3.659Zm-9.482 3.456c.985.197 1.342.354 2.174.847.243 1.055.484 1.692 1.113 2.576a44.942 44.942 0 0 1 2.96.009c.01 1.331-.047 2.712.199 4.023.03.16.071.319.107.478l-.169-.245-.218.544c-2.111-.857-4.596-1.519-6.596-2.527-1.206-.608-1.564-1.198-2.033-2.411.554-1.721 1.158-2.09 2.463-3.294Z"/>
    <path fill="#FBFAF8" d="m675.382 741.418-.649-1.842.429-.007 3.08 4.216 2.377-2.233c17.393 22.487 41.806 31.764 69.48 35.199 23.633 2.933 50.741.119 72.419-9.894 7.543-3.484 14.753-8.321 21.785-12.758l-.293 1.023c-3.926 4.106-17.412 10.736-22.915 13.524 2.393-.096 3.818-1.696 5.999-2.325 3.152-.909 7.196-2.347 9.427-4.905 3.345-3.836 8.376-5.185 12.403-8.06 3.56-2.541 6.682-6.171 9.544-9.459l.832.245c.85-1.086 2.568-3.947 3.746-4.322-1.484 2.347-2.804 4.779-4.216 7.169-4.12 4.724-9.731 8.066-13.546 12.841l.998 1.934c-2.254 2.339-1.984 4.067-1.917 7.161l.021.875c-.576-1.785-.343-3.562-.744-5.402l-1.111.546c-3.29 1.156-6.34 3.279-9.42 4.938a149.06 149.06 0 0 1-15.337 7.225l-.834-1.272.713-1.549c-6.912 2.607-13.912 4.772-21.219 5.971l-5.767.984-7.765.992c.874.758 1.722 1.542 2.672 2.205-1.875.169-3.944.549-5.814.455-9.333 1.078-18.927.553-28.278-.064-3.858-.42-7.767-.731-11.548-1.631-.237-.685-.708-1.163-1.15-1.729-1.737-.507-3.007-.939-4.458-2.033-6.187-1.946-12.561-3.512-18.609-5.86-4.786-1.858-9.354-4.437-13.901-6.809-10.695-5.705-20.647-14.709-26.434-25.349Z"/>
    <path fill="#000" d="M773.834 782.937c3.007-.407 6.04-.531 9.068-.704.874.758 1.722 1.542 2.672 2.205-1.875.169-3.944.549-5.814.455l-1.25-1.412c-1.576-.332-3.069-.463-4.676-.544Zm-39.508-3.501c6.388 1.25 12.727 2.301 19.194 3.08-.664.765-1.308 1.615-2.038 2.313-3.858-.42-7.767-.731-11.548-1.631-.237-.685-.708-1.163-1.15-1.729-1.737-.507-3.007-.939-4.458-2.033Z"/>
    <path fill="#000" d="M753.52 782.516c6.785.285 13.525.371 20.314.421 1.607.081 3.1.212 4.676.544l1.25 1.412c-9.333 1.078-18.927.553-28.278-.064.73-.698 1.374-1.548 2.038-2.313Zm64.133-8.23c9.822-3.843 18.714-8.897 27.631-14.456l.998 1.934c-2.254 2.339-1.984 4.067-1.917 7.161l.021.875c-.576-1.785-.343-3.562-.744-5.402l-1.111.546c-3.29 1.156-6.34 3.279-9.42 4.938a149.06 149.06 0 0 1-15.337 7.225l-.834-1.272.713-1.549Z"/>
    <path fill="#000" d="m678.242 743.785 2.377-2.233c17.393 22.487 41.806 31.764 69.48 35.199 23.633 2.933 50.741.119 72.419-9.894 7.543-3.484 14.753-8.321 21.785-12.758l-.293 1.023c-3.926 4.106-17.412 10.736-22.915 13.524 2.393-.096 3.818-1.696 5.999-2.325 3.152-.909 7.196-2.347 9.427-4.905 3.345-3.836 8.376-5.185 12.403-8.06 3.56-2.541 6.682-6.171 9.544-9.459l.832.245c-2.318 4.085-6.773 7.755-10.446 10.606-28.401 22.042-65.781 29.354-100.981 24.691-27.03-3.581-52.579-13.469-69.631-35.654ZM507.462 1.067c2.469-.348 5.396-.399 7.55 1.07 2.81 1.915 3.054 5.096 3.493 8.167 14.974 10.164 31.728 18.7 47.573 27.48 16.05-10.314 33.901-17.898 52.091-23.532C680.26-4.981 756.023-.527 813.837 30.112c26.289 13.934 51.636 34.658 60.556 64.149 1.635 5.404 2.155 10.562 2.379 16.194.432 10.828.043 21.731.001 32.566l.102 42.674.243 107.228.285 90.626c.008 14.96.969 30.546-.314 45.436-.808 9.368-3.98 18.088-8.439 26.317-20.71 38.221-64.053 54.905-103.324 66.484a1299.1 1299.1 0 0 0 .13 44.712l6.285-.101c-.848 2.839-1.701 10.192-3.171 11.95-2.737.652-4.86 1.372-7.241 2.904l-.639.418-1.402-5.817c-6.686 4.4-13.954 8.098-20.908 12.073a2849.304 2849.304 0 0 1-39.665 22.467c-24.355 13.605-48.392 27.915-72.532 41.911l-86.267 49.854L516.5 715.63c-4.323 2.536-8.628 5.535-13.182 7.605-1.478.672-3.269 1.481-4.835.88.035-.146.05-.297.105-.437.682-1.74 3.332-3.293 4.85-4.27 9.487-6.101 19.653-11.483 29.425-17.146a4224.733 4224.733 0 0 1 53.729-30.932l99.15-57.36c23.837-13.659 48.205-26.611 71.639-40.95l-2.432-5.767 7.385-.808c.114-14.693.071-29.386-.13-44.078a306.677 306.677 0 0 1-15.082 3.034 308.512 308.512 0 0 1-15.216 2.27 305.955 305.955 0 0 1-38.371 2.299 303.398 303.398 0 0 1-15.379-.437 302.544 302.544 0 0 1-15.336-1.211 301.262 301.262 0 0 1-7.641-.895 308.49 308.49 0 0 1-15.201-2.366c-40.809-7.692-88.302-26.119-112.432-61.74-7.274-10.738-12.865-23.642-14.424-36.583-.904-7.508-.435-14.921-.272-22.452.135-8.051.226-16.102.274-24.153l-.048-87.414.152-130.396-.022-31.013c-.022-9.281-.501-18.678 1.276-27.836 5.116-26.383 26.026-48.924 47.698-63.5-14.838-9.582-30.76-17.485-45.779-26.844-.4.183-.801.362-1.204.537-4.767 2.072-7.374 1.365-12.045-.462-6.078 2.865-11.972 6.92-17.798 10.306l-30.736 17.63-75.495 43.567 1.368 6.904c.094.563.183 1.127.266 1.692 4.403 29.259-7.803 60.325-25.116 83.523l2.485 148.015c.935 49.741 2.235 99.387 7.374 148.905 3.163 30.477 6.899 60.914 17.382 89.864a2664.53 2664.53 0 0 0 61.934 38.789l22.475 13.277c3.889 2.318 8.05 4.449 11.553 7.331 3.752 3.087 6.255 6.647 7.848 11.251 1.125 3.253 1.336 6.369 1.447 9.771.335 10.257-.085 20.608-.157 30.876a4978.465 4978.465 0 0 1-.312 54.926 2364.168 2364.168 0 0 0-.048 31.735c.02 6.602.338 13.394-.228 19.968-.332 3.861-1.779 8.18-3.648 11.601-1.594 2.917-5.386 5.706-8.091 7.609-11.317 7.959-24.605 14.202-36.674 20.997-6.818 3.839-13.091 8.516-20.115 12.011-2.41 1.198-4.817 1.944-7.416 2.614-7.505-1.926-13.977-6.569-20.415-10.699-8.556 9.904-18.42 19.148-29.287 26.448-22.141 14.874-42.166 19.251-68.208 14.049.323 3.738-.29 7.617-.829 11.313-1.571 10.778-5.675 22.758-14.737 29.4-7.808 5.723-17.53 10.019-26.062 14.673-7.08 3.861-14.524 8.773-22.023 11.683-2.969 1.153-6.081 2.165-9.284 1.59-3.206-.576-6.365-1.903-9.208-3.475-26.405-14.607-51.537-31.807-77.459-47.261a2915.514 2915.514 0 0 1-72.952-44.069c-10.832-6.636-22.218-12.748-32.632-20.02-5.146-3.594-9.125-7.488-12.585-12.74-17.415-26.441-17.34-65.986-11.034-96.226 5.614-26.924 17.425-51.86 33.342-74.149 4.213-5.899 8.72-12.068 13.929-17.114 5.929-5.744 13.51-9.387 20.53-13.597a1543.34 1543.34 0 0 1 33.131-19.46 7000.967 7000.967 0 0 0 80.588-46.92c15.208-8.904 30.696-17.256 45.427-26.953 12.137-107.486 13.646-216.245 13.349-324.312-9.996-7.291-24.339-12.512-30.365-23.839-9.111-17.126-7.2-36.195-1.731-54.1 8.804-28.824 30.847-58.552 57.824-72.728 11.278-5.926 24.539-9.247 37.043-5.312a43.294 43.294 0 0 1 7.555 3.265c8.269 4.529 16.157 10.198 24.196 15.16 9.171 5.659 21.073 11.611 29.118 18.571 3.963 3.429 6.677 7.304 9.078 11.921L501.995 9.72c.117-1.062.201-2.176.431-3.22.551-2.488 2.487-3.777 4.498-5.088l.538-.345Z"/>
    <path fill="#FBFAF8" d="M375.389 593.261c1.083 1.035 1.691 1.716 2.334 3.106.087 2.024-.839 3.396-1.778 5.135l-.62.684c-1.059-2.275-.271-6.433.064-8.925Zm23.938 222.634c.146 2.236 1.168 5.925.597 7.978l-1.186-.395c-.18-.093-.362-.183-.54-.28-1.471-.803-2.057-1.065-2.504-2.66.507-1.827 2.342-3.303 3.633-4.643Zm-10.04-237.057c.586.343.393.188.844.59 2.378 2.118 4.907 4.062 7.417 6.021l-.046.66c-.244.108-.485.221-.73.324-.956.401-2.109.974-3.094.462-2.541-1.322-3.454-5.53-4.391-8.057Zm-181.998 51.146.208.129c.346 2.887-3.219 9.436-4.358 12.23-.511-1.057-1.098-2.154-1.111-3.356-.04-3.6 2.997-6.548 5.261-9.003Zm-11.164.785c1.204.575 2.425.964 3.687 1.386-.857 5.57-1.021 9.038 1.818 14.108l-.628.378c-.268-.193-.558-.358-.803-.579-3.155-2.855-4.75-11.274-4.074-15.293Zm65.597 17.254c1.083 2.115 1.497 4.971 2.098 7.283-1.123 4.043-2.836 7.455-4.894 11.087l-.411.485-.301-.334c1.398-6.124 2.426-12.336 3.508-18.521Zm163.806 140.858c-.389 1.122-.863 1.241-1.807 1.844-4.674 2.985-8.951 8.559-12.816 12.649-.069-.214-.181-.419-.208-.642-.337-2.828 3.162-7.241 5.076-9.061 2.868-2.728 5.67-4.885 9.755-4.79Z"/>
    <path fill="#000" d="M10.176 718.607c5.402 2.805 25.002 13.486 28.054 16.537l-.956.367c-6.659-3.253-13.04-7.761-19.36-11.663l-.695.469c.655.543 1.13.784 1.879 1.176 6.486 3.397 12.52 8.035 18.782 11.86l-.835.396c-3.85-1.382-23.151-13.812-26.345-16.745-.054-.834-.307-1.592-.524-2.397Zm744.64-266.462c.269-.322.433-.557.806-.799.09-.059 17.29-4.849 18.154-5.004.833-.15 1.459-.06 2.288.043-3.383 1.255-8.228 2.428-11.053 4.639-.018 1.528-.234 2.489.52 3.84 1.135.102 2.009.027 3.126-.19-5.239 3.413-28.608 8.002-34.761 7.337 9.317-2.397 18.979-3.676 28.369-6.099l-.074-5.317c-2.451.551-4.91 1.068-7.375 1.55Z"/>
    <path fill="#FBFAF8" d="M520.622 210.725c2.287 1.787 5.622 8.854 7.435 11.56 2.053 3.065 4.239 6.182 6.789 8.859 1.331 1.397 3.399 2.789 4.46 4.33.926 1.344.636 1.731.258 3.198l-1.058.178c-6.665-4.972-16.512-19.868-17.884-28.125Zm248.33 159.791c1.276.434 2.537.708 3.457 1.754-1.519 1.337-3.648 1.979-5.337 3.144-4.549 3.136-8.068 7.561-10.824 12.293-.064.164-.144.324-.192.494-.28 1.004-.221 1.286-.855 2.193l-.294-.412c-.433-3.536.315-6.607 2.08-9.699 2.795-4.898 6.582-8.181 11.965-9.767Zm5.026 5.905c.643.392.788.644.977 1.41.411 1.663-.106 2.975-.825 4.458-2.978 6.146-7.989 10.78-14.406 13.053l-.934-1.091c-.251-1.298-.203-2.183.232-3.414 2.17-6.147 9.264-11.608 14.956-14.416ZM257.253 879.796c1.918-5.365 8.121-10.907 13.159-13.382 3.348-1.645 7.744-2.738 11.365-1.336 1.922.744 3.238 2.258 3.991 4.148 2.666 6.686-.311 15.515-3.133 21.649-3.684 8.005-11.742 14.122-19.969 17.052-1.285.458-2.702 1.089-4.072.817-.998-.742-2.14-1.28-2.612-2.445 9.918-1.517 13.197-1.401 19.607-10.038 2.123-2.859 4.014-6.044 5.169-9.42 1.176-1.863 1.752-4.733 2.139-6.92.99-5.602-.429-9.262-3.602-13.759-1.18-.072-2.376-.154-3.558-.109-7.37.276-13.648 8.793-18.484 13.743Zm262.686-741.398c2.78 3.647 4.619 8.395 7.073 12.335 5.92 9.509 14.226 18.033 22.908 25.042 3.693 2.981 7.538 5.947 11.491 8.572 4.251 2.822 9.525 5.485 13.196 8.99l-.551 1.041c-.791.73-1.616 1.424-2.431 2.127-3.514-.371-13.671-8.397-16.91-10.832-14.967-11.252-31.996-27.925-34.776-47.275Zm.243 81.341c4.683 8.473 9.487 15.706 16.486 22.442-.232.203-.463.408-.692.615-2.236 2.028-3.581 3.436-3.751 6.557l1.39 1.888c-1.261 1.763-2.509 3.92-4.142 5.342l-.249-.734c-1.629.064-2.881-.159-4.198 1.004-1.809 1.597-2.176 6.01-4.441 6.613l-.403-43.727Z"/>
    <path fill="#000" d="m529.224 255.849-1.258-1.374c-.203-1.235-.072-1.539.349-2.736 1.296-1.236 2.214-1.795 3.91-2.386l1.39 1.888c-1.261 1.763-2.509 3.92-4.142 5.342l-.249-.734Z"/>
    <path fill="#FBFAF8" d="M78.587 765.116c1.74.905 3.427 1.985 5.123 2.974-1.383 28.05-3.052 58.172 11.451 83.514-.965-.592-1.612-1.445-2.298-2.33-15.565-20.08-17.642-59.374-14.276-84.158Zm75.018 44.977c1.95.64 3.506 1.522 5.231 2.625-2.825 29.765.26 60.813 15.135 87.255l-.798-.129c-20.996-23.997-20.613-59.758-19.568-89.751Zm270.858-23.632c1.93-1.451 6.066-3.66 8.526-3.468 1.629.127 2.837 1.066 3.732 2.367 2.722 3.951 2.802 9.365 1.803 13.879-2.369 10.713-8.23 20.325-17.621 26.194-3.238 2.024-7.438 3.938-11.322 2.878-2.179-.595-3.836-2.09-4.875-4.069-1.903-3.623-1.585-9.051-.191-12.798.773-2.079 2.084-3.887 3.521-5.553l.695-.268.318-.481 1.481-.182c-1.114 3.999-2.697 6.532-.784 10.483.093.193.181.388.275.58.056.115.117.228.175.343.22.723.522 1.398.815 2.095.62.338 1.072.735 1.812.707 2.318-.088 4.295-1.864 5.884-3.375 1.533.152 2.807-.514 4.199-1.069.89-.93 1.175-1.368 2.385-1.748.822.818 1.039 1.506 1.503 2.543.062.141.145.272.218.407a55.28 55.28 0 0 0 5.34-8.82c2.027-3.465 3.726-8.23 3.794-12.265.039-2.36-.533-4.629-2.289-6.296-2.636-2.504-6.044-2.195-9.394-2.084Z"/>
    <path fill="#000" d="M422.906 814.724c.89-.93 1.175-1.368 2.385-1.748.822.818 1.039 1.506 1.503 2.543.062.141.145.272.218.407-2.615 2.92-7.144 8.498-11.232 8.87-1.324.12-2.755-.079-4.043-.371.215-.168.415-.357.646-.502.643-.406 1.364-.699 2.012-1.115 2.618-1.681 7.909-5.111 8.511-8.084Z"/>
    <path fill="#000" d="m408.731 805.623.318-.481 1.481-.182c-1.114 3.999-2.697 6.532-.784 10.483.093.193.181.388.275.58.056.115.117.228.175.343.22.723.522 1.398.815 2.095.62.338 1.072.735 1.812.707 2.318-.088 4.295-1.864 5.884-3.375 1.533.152 2.807-.514 4.199-1.069-.602 2.973-5.893 6.403-8.511 8.084-.648.416-1.369.709-2.012 1.115-.231.145-.431.334-.646.502-.59-.188-.96-.288-1.501-.513-1.463-.608-2.282-1.746-2.821-3.18-1.878-4.995-.647-10.389 1.316-15.109Z"/>
    <path fill="#FBFAF8" d="m52.118 747.24 6.003 4.024c-3.095 26.993-3.383 59.754 10.53 83.817-1.487-1.079-2.561-2.292-3.65-3.774-15.657-21.303-16.858-58.51-12.883-84.067Zm468.383-563.435c4.285 12.358 13.356 23.14 23.352 31.389 2.299 1.897 6.803 4.375 8.277 6.898.36.616-.564 2.364-.821 3.064-.169.099-.334.204-.507.297-.65.346-1.077.431-1.792.516-2.119 1.953-3.202 4.283-4.998 6.459l-1.097.482c-1.926-.475-3.777-2.773-5.103-4.243-6.707-7.432-15.208-18.997-17.113-29.064-.97-5.131-.478-10.617-.198-15.798Zm347.804 232.592c.278 2.867-2.204 7.42-3.636 9.909-19.928 34.626-61.822 54.04-98.99 64.151-.403-1.893-.205-4.033-.193-5.966a349.228 349.228 0 0 0 15.009-4.883c33.951-12.043 71.412-28.809 87.81-63.211Zm-92.241 29.988c32.469-11.751 66.022-26.293 86.669-55.454 2.352-3.323 3.95-6.806 5.967-10.295l.37.487c-.855 3.244-2.652 6.301-4.225 9.245-9.506 17.786-25.889 31.772-43.135 41.875-10.59 6.203-22.115 11.425-33.615 15.67-4.86 1.794-15.96 4.493-19.438 6.761-1.117.217-1.991.292-3.126.19-.754-1.351-.538-2.312-.52-3.84 2.825-2.211 7.67-3.384 11.053-4.639ZM424.463 786.461c3.35-.111 6.758-.42 9.394 2.084 1.756 1.667 2.328 3.936 2.289 6.296-.068 4.035-1.767 8.8-3.794 12.265a55.28 55.28 0 0 1-5.34 8.82c-.073-.135-.156-.266-.218-.407-.464-1.037-.681-1.725-1.503-2.543-1.21.38-1.495.818-2.385 1.748-1.392.555-2.666 1.221-4.199 1.069-1.589 1.511-3.566 3.287-5.884 3.375-.74.028-1.192-.369-1.812-.707-.293-.697-.595-1.372-.815-2.095-.058-.115-.119-.228-.175-.343-.094-.192-.182-.387-.275-.58-1.913-3.951-.33-6.484.784-10.483l.713-.765-.338-.821c3.865-4.09 8.142-9.664 12.816-12.649.944-.603 1.418-.722 1.807-1.844l-2.709-.678 1.644-1.742Z"/>
    <path fill="#000" d="M431.198 802.497c.963 1.604 1.06 2.759 1.154 4.609a55.28 55.28 0 0 1-5.34 8.82c-.073-.135-.156-.266-.218-.407-.464-1.037-.681-1.725-1.503-2.543-1.21.38-1.495.818-2.385 1.748-1.392.555-2.666 1.221-4.199 1.069l1.139-1.301c5.136-3.41 8.564-6.317 11.352-11.995Z"/>
    <path fill="#000" d="M424.463 786.461c3.35-.111 6.758-.42 9.394 2.084 1.756 1.667 2.328 3.936 2.289 6.296-.068 4.035-1.767 8.8-3.794 12.265-.094-1.85-.191-3.005-1.154-4.609l.294-2.098-.473-.169a940.932 940.932 0 0 0-12.621 11.505c-1.755 1.548-3.427 3.341-5.686 4.081-1.295-.168-.721.051-1.743-.598 4.262-4.077 19.872-14.018 20.927-19.412.179-.917.22-.562-.306-1.32-6.281 1.596-15.709 13.74-22.268 17.516 1.165-3.409 15.533-15.361 19.046-18.242 1.063-.872 1.522-1.033 1.661-2.436-.939-.881-1.081-.886-2.363-1.094-6.05 2.835-10.465 9.642-15.908 13.602-.17.123-.343.242-.515.363l-.338-.821c3.865-4.09 8.142-9.664 12.816-12.649.944-.603 1.418-.722 1.807-1.844l-2.709-.678 1.644-1.742Zm-167.21 93.335c4.836-4.95 11.114-13.467 18.484-13.743 1.182-.045 2.378.037 3.558.109 3.173 4.497 4.592 8.157 3.602 13.759-.387 2.187-.963 5.057-2.139 6.92l-.683-.603c.385-1.095.868-2.135.903-3.303l-.842-.373c-1.558 1.335-1.002 5.209-3.065 5.611-4.1 3.149-9.723 13.935-15.404 13.97-.211-.266-.51-.494-.602-.82l-1.52-.948c-.276.272-.675.694-1 .888-.959.57-1.527.462-2.554.312l-.403-.853.495-1.352-.839-1.498-.645-.384c-.281-1.386-.611-2.69-.478-4.114.019-.993.29-1.837.546-2.789-.1-4.147.589-5.5 2.942-8.781-.26-.668-.281-1.299-.356-2.008Z"/>
    <path fill="#FBFAF8" d="M261.065 901.323c2.52-3.368 12.012-15.157 15.761-15.836l.562.612-.317 2.074c-4.1 3.149-9.723 13.935-15.404 13.97-.211-.266-.51-.494-.602-.82Zm-3.456-19.519c2.865-3.214 12.715-13.122 16.76-12.934.482.022.731.156 1.143.325-.05 1.401-.693 1.952-1.664 2.896-2.356 2.292-5.23 4.052-7.612 6.319-4.027 3.832-7.762 8.116-11.569 12.175-.1-4.147.589-5.5 2.942-8.781Zm22.298-5.367c-.313 1.966-.617 3.904-.756 5.892-.768-.182-.36-.001-1.127-.723-5.029 2.962-14.355 13.839-18.479 18.769-.276.272-.675.694-1 .888-.959.57-1.527.462-2.554.312l-.403-.853.495-1.352c3.245-3.829 6.405-7.846 10.043-11.313 4.356-4.152 9.237-7.694 13.781-11.62Zm-25.786 16.937c6.443-6.243 16.762-18.313 24.223-22.436l.811.281c.362 1.267.505 1.873-.119 3.092-1.615 3.15-11.352 9.996-14.743 13.278-3.316 3.21-6.193 6.671-9.049 10.283l-.645-.384c-.281-1.386-.611-2.69-.478-4.114ZM222.404 559.21c1.078-.137.918-.298 1.914.349.397 2.547-.537 5.305-1.088 7.797-25.497 5.02-47.48 17.148-64.796 36.551-1.136-1.383-2.396-2.923-2.682-4.745-.541-3.437 1.304-6.887 3.307-9.522 13.325-17.526 42.276-27.952 63.345-30.43ZM206.93 693.95c1.992 1.025 3.852 2.338 5.728 3.56-29.807 27.67-49.417 69.913-53.35 110.275-1.86.436-3.86-.556-5.558-1.229 5.989-43.743 21.387-81.171 53.18-112.606Zm-82.901-73.863c.933 1.088 1.578 2.653 2.251 3.931-7.475 6.425-14.832 12.846-21.482 20.138-17.891 19.621-31.34 44.868-38.726 70.347-3.154 10.881-5.283 21.904-7.724 32.942l-1.603-.561-4.543-3.29c.293-1.705.607-3.405.942-5.101 8.982-45.258 31.616-91.974 70.885-118.406Zm43.035 6.406.662.701c-2.094 3.684-9.236 6.792-12.865 9.021-34.003 20.886-55.394 64.636-65.668 101.957-2.335 8.483-3.272 17.07-5.282 25.559l-.618.319-1.04-.619c-1.064-.505-1.846-.966-2.726-1.752-3.171-9.094 10.93-49.555 15.94-60.52 14.787-32.368 37.142-61.829 71.597-74.666Zm238.426-39.816c5.524 1.631 39.331 23.679 46.026 28.105a2998.776 2998.776 0 0 0-53.285 30.257l-7.847 4.833 1.323-10.33c7-3.555 13.796-7.764 20.608-11.669 4.857-2.783 10.389-5.401 14.832-8.799 1.547-1.184 3.014-2.427 3.709-4.283-.718-4.341-27.402-18.179-32.186-22.703-.881-.833-1.749-1.427-1.799-2.661 1.038-.397 2.111-.761 3.125-1.212 1.823-.81 3.555-1.147 5.494-1.538Zm457.789-399.684c.03 2.171-3.167 6.294-4.461 8.106-26.918 37.718-76.114 58.011-120.558 65.309-61.658 10.124-128.335-1.414-179.538-38.231l-1.007-.542-.015-1.185-.361.535c1.399-1.84 3.394.074 5.068 1.05 3.893 2.271 7.554 4.886 11.431 7.176a185.802 185.802 0 0 0 32.219 15.198 268.536 268.536 0 0 0 52.861 12.929 269.88 269.88 0 0 0 18.068 1.898 269.237 269.237 0 0 0 27.239.547 269.383 269.383 0 0 0 27.154-2.215 269.048 269.048 0 0 0 17.918-3c43.489-8.882 88.888-29.589 113.982-67.575Z"/>
    <path fill="#FBFAF8" d="M179.926 680.95c2.07.795 4.101 1.867 6.119 2.796-16.338 15.72-27.954 33.085-37.056 53.729-16.121 36.561-22.689 82.805-12.572 121.822 2.068 7.976 5.638 14.629 8.529 22.217l.197.529-.901-.279c-18.397-28.672-20.175-61.883-15.662-94.791a200.706 200.706 0 0 1 2.141-12.109 198.288 198.288 0 0 1 2.882-11.954 198.215 198.215 0 0 1 3.614-11.754 198.284 198.284 0 0 1 4.33-11.51 200.825 200.825 0 0 1 5.031-11.22 199.89 199.89 0 0 1 8.817-16.198 201.128 201.128 0 0 1 10.275-15.314c4.177-5.608 8.662-11.732 14.256-15.964Zm340.618-304.726c4.262 5.329 7.279 11.705 11.499 17.165 13.022 16.843 31.346 30.241 50.22 39.971 43.803 22.583 93.585 29.192 142.241 23.841 9.854-1.084 20.852-2.013 30.312-5.056 2.465-.482 4.924-.999 7.375-1.55l.074 5.317c-9.39 2.423-19.052 3.702-28.369 6.099-4.156.203-8.375 1.058-12.514 1.552a231.66 231.66 0 0 1-18.629 1.415c-40.277 1.491-81.892-6.266-118.182-24.07-27.146-13.318-53.953-35.247-64.027-64.684Z"/>
    <path fill="#FBFAF8" d="M523.283 418.828c3.42 2.774 6.008 7.944 8.804 11.414 4.19 5.202 9.064 10.021 14.058 14.445 43.058 38.136 109.447 52.289 165.545 48.19 11.826-.864 23.756-2.394 35.448-4.329 4.762-.789 9.699-2.551 14.475-2.828.674 1.717.467 3.797.476 5.622-51.808 13.762-111.093 11.267-161.163-7.931-32.396-12.421-63.032-31.866-77.643-64.583Zm-301.888 152.82.209.123c1.419 3.776-8.878 42.371-10.876 47.832-2.69 2.236-5.524 4.337-8.278 6.496-6.095-7.887-15.759-11.526-24.814-14.864-5.248-1.454-10.505-2.826-15.583-4.814 15.11-18.432 36.328-29.468 59.342-34.773Zm648.864-436.279c.568 5.511-2.763 12.322-5.41 17.01-19.383 34.33-64.329 57.298-101.111 67.56-60.07 16.758-132.206 10.856-186.893-19.969l-1.498-1.109c.151-1.624 1.61-2.601 2.735-3.752a268.526 268.526 0 0 0 23.925 10.796c60.732 23.247 135.434 22.979 195.081-3.743 25.274-11.323 52.504-29.203 66.989-53.306 2.587-4.305 4.399-8.814 6.182-13.487Z"/>
    <path fill="#FBFAF8" d="M867.722 214.878c.045.266.133.529.133.798.003 4.438-8.463 15.193-11.245 18.487-32.045 37.946-87.351 56.029-135.409 60.198-63.776 5.533-127.839-8.614-177.57-50.489l-1.759-1.749c-.397-1.347-.221-1.312.456-2.571l1.136-.33c1.424.512 23.323 16.342 27.78 19.004 56.223 33.572 129.651 39.027 192.283 23.143 39.656-10.056 82.555-30.208 104.195-66.491Zm3.293 205.956c.049.148.114.292.146.444 1.352 6.429-6.47 26.419-9.919 32.39-19.454 33.675-60.123 50.948-96.108 60.602-.701-4.464.329-14.69.359-19.922 11.337-2.671 22.451-6.651 33.194-11.126 28.746-11.975 60.026-32.494 72.328-62.388Z"/>
    <path fill="#FBFAF8" d="M870.246 388.859c1.579 7.867-2.493 19.097-6.012 26.012-19.018 37.364-61.431 53.309-98.863 65.556a1803.71 1803.71 0 0 1-.283-21.065c6.581-1.484 13.12-3.593 19.462-5.883 32.769-11.835 70.204-31.68 85.696-64.62ZM87.174 770.375c12.06 7.769 24.603 14.81 36.924 22.155-3.114 30.261-.683 57.294 12.554 85.147-6.982-3.161-29.908-16.411-34.283-21.822-16.268-20.113-17.905-60.484-15.195-85.48Zm103.91-85.033c3.888.527 9.052 4.428 12.185 6.745a176.031 176.031 0 0 0-4.062 4.181 177.827 177.827 0 0 0-7.708 8.745 178.633 178.633 0 0 0-7.123 9.228 179.12 179.12 0 0 0-12.38 19.742 180.842 180.842 0 0 0-5.204 10.431 179.31 179.31 0 0 0-8.326 21.764 180.818 180.818 0 0 0-1.635 5.595c-10.688 37.8-12.514 86.99 7.12 122.005l-.36.502c-4.163-2.587-8.175-5.056-11.31-8.897-16.382-20.069-18.326-60.981-15.575-86.063 4.456-40.631 21.802-87.788 54.378-113.978ZM62.277 833.133c-10.264-6.802-31.463-17.605-38.702-25.982-3.738-4.326-6.386-9.785-8.516-15.048-7.34-18.133-8.087-39.279-6.92-58.614.23-3.832.12-8.754 1.623-12.273l.938-.212c3.194 2.933 22.494 15.363 26.345 16.745 3.508 2.769 7.78 4.914 11.628 7.202-3.582 30.147-3.963 61.942 13.604 88.182Z"/>
    <path fill="#FBFAF8" d="M162.097 814.646c4.56 1.929 9.098 5.068 13.412 7.537l31.151 18.052c.492 15.442.156 31.067-.031 46.52-.094 7.731-.767 15.714.043 23.407.438 4.168 1.443 7.847 2.855 11.785-8.644-4.932-22.12-12.076-28.537-19.327-5.25-5.932-8.581-13.319-11.25-20.7-7.965-22.023-8.951-44.169-7.643-67.274Zm318.704-118.669.486.553c1.01 11.149.176 22.909.209 34.13.047 16.081.858 32.626-.195 48.655-.174 2.651-.633 5.372-1.573 7.862-1.035 2.738-2.854 4.746-5.074 6.598-6.24 5.208-27.14 16.312-34.831 19.725.462-1.148.912-2.301 1.35-3.458 3.479-9.24 5.147-17.687.922-27.027a19.51 19.51 0 0 0-1.122-1.264c-2.137-2.159-5.507-3.237-8.507-3.126-7.161.267-12.226 4.759-16.899 9.639 2.121-6.26 5.222-12.284 7.694-18.429a128.56 128.56 0 0 0 5.521-16.922 127.158 127.158 0 0 0 2.348-11.637 126.815 126.815 0 0 0 1.258-11.805c.118-1.976.19-3.954.216-5.933 16.336-8.616 31.925-18.762 48.197-27.561Zm39.319-277.591c6.546 23.505 27.93 41.846 48.206 54.001 56.788 34.041 130.615 38.537 193.753 22.723.067 6.617-.114 13.21-.328 19.823-5.784 1.986-12.545 3.037-18.585 4.084a290.154 290.154 0 0 1-41.081 4.228 290.517 290.517 0 0 1-41.265-1.639c-43.427-4.864-95.387-21.215-123.447-56.598-9.827-12.391-19.172-30.305-17.253-46.622Z"/>
    <path fill="#FBFAF8" d="M520.558 385.862c2.598 4.136 4.576 8.636 7.308 12.696 10.868 16.151 27.198 30.2 43.868 39.989 56.382 33.111 128.109 37.709 190.525 21.457.234 6.946-.012 13.965-.064 20.918-8.922 5.068-56.05 8.505-68.352 8.565-53.571.264-113.258-15.65-152.066-54.367-6.839-6.823-18.54-22.033-20.558-31.552-1.181-5.572-.639-12.012-.661-17.706ZM262.579 811.915c.261.14.582.202.782.42.051.055 4.709 18.487 5.693 20.909 4.88 12.011 14.689 23.399 26.875 28.374l.719.288-.364.213.961.188c-3.134-.205-5.39-2.911-8.276-3.182-2.513-.236-4.744 1.324-7.413 1.143-1.165-.079-2.295-.145-3.465-.108-7.243.231-13.755 4.527-18.605 9.661-6.299 6.666-12.014 17.468-11.558 26.862.326 6.719 3.876 10.843 8.69 15.025-3.212 1.865-6.559 3.547-9.834 5.304-6.517 3.544-16.282 10.606-23.595 10.887a10.48 10.48 0 0 1-2.028-.139 10.48 10.48 0 0 1-1.962-.534 10.28 10.28 0 0 1-1.82-.907 10.375 10.375 0 0 1-1.607-1.245c-3.451-3.298-5.015-9.188-5.717-13.807-1.255-8.253-.253-16.938-.158-25.265l.203-44.884c17.985-8.299 35.311-19.292 52.479-29.203Zm191.724-194.459c.283-.016.569-.085.85-.049 2.444.314 19.674 10.431 22.014 12.96 2.415 2.609 3.6 6.07 4.203 9.522 1.205 6.907.425 14.488.378 21.493-.068 10.179.173 20.453-.458 30.612-7.905 4.632-16.072 8.923-24.049 13.447-8.084 4.585-16.058 9.481-24.347 13.682-.33-3.921-.722-7.837-1.177-11.746-1.121-9.487-3.471-18.795-8.024-27.251-6.997-12.995-18.823-22.209-32.906-26.407 7.38-3.604 14.549-8.426 21.653-12.576a1518.784 1518.784 0 0 1 41.863-23.687ZM288.481 697.9c.574.022.884.196 1.4.428 2.272 3.446 1.388 9.204.205 12.924-2.242 7.058-7.299 13.716-10.435 20.498-11.24 24.304-18.111 49.947-16.537 76.894-8.411 3.922-16.404 8.672-24.504 13.187-8.78 4.895-17.658 9.606-26.412 14.549-.907.438-.767.523-1.844.325-.867-6.54-.428-32.792.302-39.74.436-4.152 1.33-8.286 2.416-12.312 6.592-24.449 22.944-51.185 43.076-66.832 9.801-7.618 21.569-13.728 32.333-19.921Zm60.265-513.528c1.368 4.463.349 18.885.403 24.522l.795 45.245 1.361 65.611c1.037 70.65 1.554 143.091 16.002 212.518 3.311 15.911 7.023 32.251 13.778 47.119 2.65 5.831 6.429 13.165 11.065 17.642 2.593 2.505 7.687 5.05 9.415 8.083.686 1.203.359 2.199.087 3.466-2.805 2.849-36.014 20.15-42.289 23.561-25.774 14.011-51.685 28.086-77.13 42.677l-32.682 18.587c-4.55 2.602-11.56 7.86-16.308 9.031l-.685-.547c-.072-1.545.217-2.72.724-4.18 1.158-3.332 2.932-6.506 4.216-9.817a233.477 233.477 0 0 0 8.378-25.377c7.898-28.985 12.763-59.166 16.726-88.918a1989.332 1989.332 0 0 0 11.338-108.152 1833.702 1833.702 0 0 0 4.127-116.492c.564-39.436.387-78.869-.53-118.299a634.528 634.528 0 0 0-.45-24.132c6.902 2.112 13.577 2.928 20.754 3.264-3.007 1.046-6.039 2.069-8.7 3.867-2.643 1.785-4.158 4.113-5.039 7.155-2.285 7.891-.84 18.772-.771 26.994.129 11.022.145 22.044.05 33.066a4249.43 4249.43 0 0 1-2.627 122.319 1618.224 1618.224 0 0 1-7.791 114.551A1504.918 1504.918 0 0 1 251.821 667.9c-.819 4.099-3.257 13.856-.878 17.428 4.307-.527 26.256-13.744 31.488-16.638a4004.804 4004.804 0 0 0 77.56-43.356c7.322-4.119 14.994-7.781 22.148-12.162 2.268-1.388 4.446-2.918 6.214-4.921.481-1.717.703-3.014.07-4.736-1.362-3.706-4.512-6.834-6.537-10.203-2.442-4.063-4.434-8.833-6.256-13.201-11.396-27.312-16.832-62.872-19.941-92.225a1613.134 1613.134 0 0 1-7.627-124.556 3254.794 3254.794 0 0 1-1.447-57.438c-.17-20.182-.951-40.355-1.073-60.53-.029-11.25-.194-22.498-.495-33.744-.167-7.245-.088-14.68-1.134-21.86 1.445-1.901 3.214-3.628 4.833-5.386Zm204.562 41.231 1.254-1.31c3.363.712 12.355 8.237 16.095 10.605 9.194 5.822 18.975 10.399 29.072 14.416a248.548 248.548 0 0 0 42.434 13.072c60.572 12.565 130.342 3.731 182.641-30.515 18.996-12.439 36.758-28.813 45.168-50.366.196 22.275-3.33 33.686-19.514 50.056-38.17 38.607-101.934 54.299-154.662 54.343-46.135.038-92.719-10.965-131.472-36.734-5.582-3.712-13.054-8.019-17.59-12.896-.412-.443-.473-.595-.741-1.058l.542-1.232c2.463-2.402 4.61-5.671 6.773-8.381ZM122.377 584.968c-4.213 6.751-7.12 13.214-5.076 21.347.957 3.81 2.788 7.377 4.884 10.678-5.262 3.153-10.099 7.346-14.67 11.433-26.065 23.304-45.11 56.557-53.595 90.397a523.804 523.804 0 0 0-4.987 22.645c-3.5-2.125-7.016-4.554-10.703-6.324-3.052-3.051-22.652-13.732-28.054-16.537-.71-3.973 1.443-10.162 2.546-14.038 6.105-21.453 15.204-41.894 27.991-60.23 4.961-7.113 10.16-14.755 16.672-20.526 7.038-6.237 16.546-10.531 24.656-15.279a3473.139 3473.139 0 0 1 40.336-23.566Z"/>
    <path fill="#FBFAF8" d="M870.061 151.488c1.691 7.581-3.943 21.539-7.665 28.054-19.763 34.59-63.171 54.668-100.226 64.74-52.117 14.167-112.765 10.729-162.802-9.705-13.081-5.342-25.22-12.299-37.461-19.293 1.217-1.376 3.152-3.183 3.379-5.072.106-.876.037-.624-.619-1.373-.181.007-.363-.005-.541.021-2.357.345-3.532 2.818-4.694 4.64-10.566-8.036-23.883-20.996-30.789-32.17-2.501-4.047-4.251-8.249-5.883-12.704-1.768-5.912-2.339-11.331-2.731-17.455 10.919 22.092 28.907 35.746 48.898 49.094-1.487 1.904-3.355 3.746-3.338 6.289l.721.598c3.111-.49 4.509-3.021 6.279-5.339a148.85 148.85 0 0 0 6.347 3.793c13.078 7.491 27.176 12.335 41.592 16.509 49.582 14.358 98.457 14.104 148.142.517 38.741-10.594 81.102-35.547 101.391-71.144ZM295.593 37.199c3.147-.109 5.925-.003 8.963.953 9.567 3.011 31.688 18.582 41.533 24.628a59.54 59.54 0 0 0-14.004 1.888c-24.153 6.206-46.221 26.703-58.602 47.789-13.268 22.597-18.708 48.26-11.977 73.833l1.657 5.056c-7.473-4.103-14.629-8.682-21.911-13.107-5.244-3.186-11.11-6.221-15.79-10.185-6.913-5.856-9.856-17.537-10.613-26.207-2.103-24.091 12.795-54.222 27.848-72.111 13.315-15.824 31.579-30.69 52.896-32.537Zm109.843 568.254c6.454 2.83 12.582 7.468 18.487 11.295-3.996 3.003-8.853 5.36-13.201 7.853-7.415 4.251-14.786 8.654-22.409 12.522-1.214 5.072-1.158 10.538-1.367 15.733-8.855-2.502-18.406-1.916-27.214.51-27.049 7.45-51.665 31.023-65.17 55.019.066-.744.12-1.489.162-2.234.311-5.627-.544-8.647-4.293-12.852-15.779 7.463-32.632 17.162-45.018 29.523-19.204 19.165-35.026 47.487-38.14 74.557-1.466 12.739-.598 26.376-.608 39.233-3.824-2.104-7.546-4.473-11.3-6.703-11.083-6.405-22.404-12.807-32.996-19.999 5.903-41.397 22.654-81.799 53.876-110.581 5.4 2.496 10.28 5.953 15.793 8.242 7.682-3.231 15-8.339 22.195-12.538 11.346-6.622 22.865-13.075 34.332-19.481l95.302-52.6c4.002-2.241 18.081-9.008 20.478-11.211 1.536-1.412 1.123-4.353 1.091-6.288Z"/>
    <path fill="#FBFAF8" d="M343.591 66.712c.208-.017.416-.038.624-.05 6.48-.377 15.466 3.816 20.233 8.093 7.93 7.113 10.431 17.961 10.863 28.207 1.14 27.059-13.815 58.891-31.986 78.344-11.798 12.632-30.621 24.201-48.284 24.895-7.35-.148-15.098-1.786-20.902-6.553-8.156-6.699-11.04-17.448-11.947-27.537-2.316-25.752 7.803-52.206 24.182-71.846 14.646-17.562 33.941-31.53 57.217-33.553Z"/>
    <path fill="#000" d="M334.142 82.17c6.678-.624 13.654 1.053 18.972 5.247 6.567 5.18 9.579 13.489 10.401 21.577 2.022 19.88-7.552 42.303-19.916 57.457-10.457 12.818-24.022 23.574-40.951 25.357-6.079.651-13.693-1.294-18.55-4.91-6.496-4.836-9.514-12.762-10.554-20.539-2.663-19.906 6.437-41.13 18.305-56.661 10.256-13.422 25.134-25.243 42.293-27.528Z"/>
    <path fill="#FBFAF8" d="M333.256 86.111c5.972-.446 11.857.674 16.805 4.213 5.54 3.964 8.419 10.305 9.484 16.868 2.945 18.143-5.575 38.907-15.997 53.391-9.598 13.34-23.145 24.494-39.713 27.257-6.065.483-12.145-.5-17.262-3.988-5.193-3.541-7.749-9.265-8.89-15.26-3.54-18.603 3.804-37.549 14.151-52.734 9.743-14.298 24.083-26.492 41.422-29.747Z"/>
    <path fill="#000" d="M329.998 91.123c5.22-.384 9.932-.169 14.642 2.472 5.209 2.922 8.322 7.947 9.775 13.631 3.828 14.976-2.219 31.873-9.878 44.647-8.985 14.988-20.809 26.328-38.034 30.557-5.987.703-11.763.054-16.897-3.357-4.848-3.22-7.605-8.328-8.734-13.944-3.239-16.115 3.733-32.753 12.578-45.887 8.627-12.809 20.861-25.074 36.548-28.119Z"/>
    <path fill="#FBFAF8" d="M306.487 109.021c1.115.004 1.455-.03 2.466.513-.252 3.574-6.239 8.528-8.682 11.144l-1.101.609-.591-.521.987.247-1.038-.576c-.008-.149-.044-.298-.024-.445.534-4.037 5.015-8.397 7.983-10.971Zm-.228 8.449.362.251c-.811 6.645-14.561 21.566-19.647 26.284-.303-.35-.318-.239-.26-.758.41-3.627 16.108-22.603 19.545-25.777Z"/>
    <path fill="#FBFAF8" d="m323.83 95.913.634.838c.921 9.374-3.794 21.57-7.694 29.914-6.147 13.153-17.329 29.236-31.517 34.451-1.348-2.545-.798-6.398-.743-9.226.523-.349 1.04-.707 1.551-1.074 14.485-10.316 27.831-32.737 30.802-50.271 2.202-1.67 4.649-3.12 6.967-4.632Z"/>
    <path fill="#FBFAF8" d="M328.504 94.551c4.875-.223 9.317-.314 13.757 2.118 4.301 2.355 6.977 6.437 8.286 11.082 3.732 13.239-1.585 28.589-7.984 40.148-7.462 13.48-18.673 25.511-33.781 29.913-4.202.932-8.329 1.199-12.457-.3-5.291-1.92-8.382-5.881-10.687-10.791 5.908-3.443 11.261-7.279 16.15-12.081 15.815-15.535 26.418-37.799 26.716-60.089Zm-99.14 428.379.358.319c1.213 3.744-2.687 22.267-3.477 27.291-1.997.183-3.991.403-5.981.658-23.384 3.138-54.652 15.395-69.163 34.879-3.457 4.641-5.743 9.501-4.661 15.444.588 3.23 2.582 5.001 4.794 7.248 11.456 11.636 14.743 7.078 28.047 11.596 5.019 1.705 9.161 4.302 13.523 7.271-1.143 9.756.998 15.201 6.613 23.162-3.803 5.843-7.998 11.661-10.253 18.319-1.028 3.037.806 8.712-1.207 10.856-2.197.464-4.738-1.735-6.988-2.194-1.92-.392-3.8.271-5.335 1.419-4.363 3.265-8.64 9.588-12.019 13.954-21.911 28.312-33.172 60.599-39.273 95.511-12.323-6.724-25.137-13.724-36.67-21.75 5.227-34.423 15.837-66.363 36.331-94.872 5.359-7.455 10.943-14.544 17.644-20.864 3.757-3.542 7.801-6.909 12.052-9.845 5.299-3.661 12.733-6.852 16.865-11.827 1.036-1.247 1.375-2.175 1.248-3.773-.868-1.078-1.648-1.519-3.007-1.726-8.75-1.333-24.395 9.33-31.356 14.39-32.767 24.045-53.22 70.102-60.38 109.025-5.309 28.86-6.029 75.853 10.861 100.415-3.629-1.956-8.007-4.001-11.142-6.669-10.149-8.635-15.295-37.087-16.022-49.968-2.858-50.643 11.987-103.976 45.406-142.822 4.634-5.385 9.537-10.317 15.009-14.853 4.189-3.473 9.247-6.79 12.774-10.925 1.204-1.411 2.239-2.975 1.921-4.935-.651-4.013-5.835-6.996-8.93-9.123-1.522-4.531-1.984-8.835-.794-13.545 1.762-6.971 7.215-14.055 12.652-18.631 8.294-6.98 23.175-14.39 32.85-19.906 19.343-11.028 38.682-21.956 57.71-33.529Z"/>
    <path fill="#FBFAF8" d="M252.15 192.762c7.521 4.172 14.954 8.897 21.361 14.645 1.327 58.437 2.503 117.187 1.071 175.622a1727.906 1727.906 0 0 1-15.897 194.244c-1.888 12.826-3.531 25.762-5.866 38.51-1.676 9.148-3.902 18.226-5.969 27.293-2.008 8.808-3.891 17.649-6.624 26.27-3.206 10.111-7.83 19.758-12.122 29.438-2.581-1.273-5.087-2.759-7.605-4.157-3.814-2.089-22.887-12.851-24.797-14.89-5.946-6.345 8.018-22.946 11.04-28.956 2.919-5.807 4.831-11.832 6.936-17.946 2.897-8.416 4.983-17.099 7.298-25.689 10.245-38.008 15.383-74.483 19.446-113.511 4.36-42.705 7.209-85.51 8.546-128.415a3228.326 3228.326 0 0 0 3.182-172.458ZM572.635 41.693c58.391-33.953 129.999-39.9 194.749-22.67 14.92 3.971 28.611 9.613 42.365 16.585 3.18 1.612 6.842 3.079 9.668 5.214-.669 1.48-2.767.502-1.903 2.936 1.146.654 1.885.994 3.228.69 1.035-.235 2.126-.781 3.107-1.194 20.443 13.373 40.167 32.625 45.264 57.455 3.769 18.361-.691 34.429-10.942 49.834a94.9 94.9 0 0 1-9.901 12.585c-4.896 5.212-23.368 21.639-30.297 23.075-.965.526-1.785.941-2.597 1.698-1.016 1.017-2.155 1.618-3.388 2.327-55.677 31.984-127.492 35.093-188.437 18.608-7.376-1.996-38.273-11.695-41.355-17.06.24-.553.485-1.043.801-1.561.102-.167.208-.332.313-.499l-.267-.926c-3.651-1.388-3.08 1.315-6.012 1.456-14.075-7.194-34.062-24.485-43.432-36.997-10.506-14.029-15.202-29.589-12.539-47.079 4.174-27.407 26.131-46.966 47.318-62.505 7.32 3.324 14.275 7.23 21.149 11.385-14.572 9.819-29.456 23.744-34.969 40.939-4.701 14.66-4.059 30.265 3.041 44.054 13.85 26.902 45.339 43.816 73.205 52.654 40.14 12.732 90.505 12.345 130.405-1.356 11.622-3.992 22.736-9.831 33.627-15.479.478-.577 1.027-1.085 1.556-1.613l1.043.144c17.903-11.207 35.717-26.801 40.677-48.293 3.426-14.842.174-29.966-7.946-42.729-18.114-28.475-54.54-44.927-86.479-51.833-39.905-8.63-85.636-6.66-123.924 8.094-9.44 3.637-17.617 8.45-26.495 13.107-7.212-2.802-14.003-7.09-20.633-11.046Z"/>
    <path fill="#000" d="M809.968 47.885c.834.62.911.748 1.334 1.637-.627 1.575-1.663 2.112-2.967 3.165-.72-.202-1.115-.577-1.702-1.023l-.115-.969c.793-1.373 2.137-2.007 3.45-2.81Zm-6.339 130.387c1.71.048 2.776.163 4.154 1.212.715 1.683.548 2.265.356 4.043l-2.145-1.136c-1-.527-1.893-.864-2.534-1.849-.504-.773-.044-1.441.169-2.27Zm-214.775 5.714c.521.555.683 1.226.722 1.961.046.874-.258 1.22-.91 1.817-1.268 1.161-2.936 1.175-4.525 1.001-.764-.689-.536-.27-.722-1.236 1.341-1.714 3.537-2.556 5.435-3.543Zm226.522 3.915c-.233-.126-.464-.254-.697-.376-1.074-.564-2.26-1.077-3.242-1.79-.968-.703-1.561-1.478-1.829-2.635.174-.047.344-.113.522-.141 2.654-.429 5.668 1.932 7.843 3.244-.965.526-1.785.941-2.597 1.698Zm-219.613-9.055c1.334.365 2.078.274 2.908 1.446-.694 1.648-2.934 2.825-4.362 3.842l-1.424.558-1.192-.997-.072.002.007-.463c1.044-1.968 2.429-3.023 4.135-4.388Zm199.073-2.984c.478-.577 1.027-1.085 1.556-1.613l1.043.144c1.896.642 3.741 1.047 5.048 2.664l.115 1.145c-.913.557-1.732.854-2.832.565-1.751-.462-3.462-1.893-4.93-2.905Z"/>
    <path fill="#FBFAF8" d="M370.132 656.202c11.145-1.203 23.544 1.864 33.01 7.817 13.096 8.235 20.118 22.634 23.363 37.353 7.247 32.868-5.053 70.306-22.87 98.005-18.107 28.149-44.257 52.244-77.721 59.47a38.57 38.57 0 0 1-3.579.524c-13.66 1.415-25.424-.601-36.222-9.519-12.474-10.304-17.219-26.811-18.726-42.359-3.871-39.946 16.641-83.379 41.714-113.414 14.788-17.714 37.258-35.718 61.031-37.877Z"/>
    <path fill="#000" d="M368.606 661.168c10.002-1.36 21.261 1.025 29.869 6.242 12.343 7.48 19.416 20.843 22.771 34.519 7.317 29.822-4.167 67.174-19.863 92.757-16.628 27.102-42.395 51.232-73.953 58.682-.49.112-.982.215-1.476.305-11.925 2.162-23.521 1.189-33.566-6.046-11.616-8.366-17.421-21.582-19.515-35.397-5.662-37.371 10.585-77.065 32.652-106.624 15.3-20.495 36.829-40.646 63.081-44.438Z"/>
    <path fill="#FBFAF8" d="M372.14 665.159c9.292-.644 20.128 2.402 27.396 8.315 11.595 9.431 17.716 25.344 19.052 39.86 3.139 34.112-11.427 70.044-32.93 95.984-16.933 20.426-39.159 38.3-66.506 40.686-10.916.953-19.406-1.519-27.816-8.537l-4.071-3.989c4.731 2.884 9.229 5.104 14.651 6.364 16.592 3.857 34.67-1.827 48.734-10.661 29.089-18.273 51.807-52.247 59.407-85.569 4.607-20.194 5.02-43.767-6.449-61.864-6.122-9.662-15.3-16.365-26.66-18.417-3.151-.569-6.333-.387-9.476-1.111.928-.754 3.415-.856 4.668-1.061Z"/>
    <path fill="#FBFAF8" d="m358.643 671.463 1.549.095c.475.481.468.431.891 1.113 1.101 1.774 1.433 4.485 1.845 6.494 2.874 14.018 1.444 28.625-2.491 42.328-11.397 39.684-42.006 70.851-77.358 90.427-1.445.608-2.939 1.04-4.433 1.511-2.274-24.814 2.976-49.189 13.208-71.756 10.185-22.459 26.886-46.687 47.468-60.623 6.031-4.083 12.521-7.042 19.321-9.589Z"/>
    <path fill="#FBFAF8" d="M368.136 670.698c8.156.168 15.316 2.078 21.945 6.961 10.805 7.958 15.866 20.98 17.748 33.854 4.363 29.851-8.059 62.357-25.659 86.086-15.939 21.492-37.644 39.358-64.775 43.362-6.969.298-13.605.154-20.168-2.473-8.707-3.486-13.525-9.73-17.083-18.065 6.941-4.045 14.369-7.149 21.225-11.406 20.414-12.673 37.857-31.539 50.339-52.027 12.609-20.698 22.674-48.006 19.646-72.593-.576-4.673-2.121-9.14-3.218-13.699ZM334.368 199.43c1.042.01.607-.034 1.681.146.727.122.74-.049 1.046.521 1.756 3.276 1.559 58.431 1.716 66.528.395 40.28 1.477 80.542 3.246 120.785 1.316 35.884 2.802 71.904 7.335 107.553 2.508 19.729 5.504 40.205 10.613 59.451 2.184 8.228 7.74 20.523 8.874 27.875.947 6.143.625 13.16-1.153 19.129-1.1 3.691-4.317 12.554-6.802 15.02-3.878 3.849-16.705 9.654-21.929 12.577l-61.762 34.466c-7.429 3.955-14.343 8.801-21.78 12.666 2.802-3.249 6.006-6.134 8.506-9.644 6.419-9.013 2.927-16.943 1.299-26.762-1.916-11.549 3.177-34.8 5.13-47.335 1.576-10.122 2.914-20.347 4.136-30.517a2789.835 2789.835 0 0 0 7.637-78.887c4.352-53.861 5.22-107.876 5.595-161.891.164-18.879.221-37.758.17-56.637-.033-10.987-.756-22.501.279-33.421.147-1.555.35-2.915 1.331-4.173.14-.18.294-.349.439-.525 7.482-9.065 33.032-21.268 44.393-26.925Z"/>
    <path fill="#000" d="M335.373 553.697c3.288-.293 7.014-.195 10.189.715 5.389 1.545 9.761 5.269 12.462 10.148 4.617 8.34 4.235 20.282 1.728 29.225-1.144 4.084-3.057 8.057-6.189 10.986-6.099 5.702-15.615 9.206-22.955 13.277l-39.363 22.029c-2.349 1.112-4.72 2.182-7.317 2.549-3.414.484-6.998-.085-9.756-2.269-3.923-3.108-5.665-8.56-6.2-13.382-1.649-14.865 4.71-31.908 13.861-43.436 10.68-13.454 36.471-27.963 53.54-29.842Z"/>
    <path fill="#000" d="M277.243 606.972c1.098-.107 1.834.09 2.625.951 1.093 1.19 1.235 2.502 1.402 4.022-.448 1.245-.721 1.4-1.76 2.251-.49-2.476-1.432-4.847-2.267-7.224Z"/>
    <path fill="#FBFAF8" d="M279.51 614.196c.032.6.082 1.203.028 1.804-.125 1.399-1.018 3.757-2.204 4.605-.595.425-.958.16-1.612.03-.349-.455-.676-.831-.901-1.379-1.333-3.232.966-9.295 2.422-12.284.835 2.377 1.777 4.748 2.267 7.224Zm64.431-53.572c.289.097.581.184.866.291 3.972 1.489 6.869 5.41 8.626 9.094 3.664 7.685 4.875 17.764 1.876 25.854-1.128 3.042-2.597 5.044-5.107 7.07-5.58 4.504-12.994 7.525-19.246 11.055-13.399 7.564-26.743 15.927-40.641 22.494-1.117.459-2.226.932-3.376 1.307-.179.059-.366.097-.54.169-.106.043-.197.114-.295.172l.483-.965c.566-.125 1.234-.237 1.777-.458 6.131-2.493 14.015-7.948 20.034-11.381 6.838-3.9 14.347-7.357 20.844-11.738 1.563-1.054 2.957-2.19 3.69-3.977.611-1.491.521-2.843-.174-4.281-1.327-2.746-4.069-3.898-6.75-4.877 5.567-2.728 10.207-5.817 13.7-11.097 6.012-9.089 6.422-18.357 4.233-28.732Z"/>
    <path fill="#FBFAF8" d="M282.913 592.705c6.432 3.579 12.61 7.207 19.365 10.196 7.205 3.188 14.715 5.579 21.872 8.898-7.422 5.693-16.353 10.066-24.506 14.669-6.097 3.447-12.314 7.417-18.853 9.93-3.337-2.547-4.714-5.376-6.084-9.207.579-.374 1.166-.734 1.742-1.113 3.876-2.553 9.406-8.1 10.218-12.834.955-5.567-4.214-8.161-6.876-12.104-.538-3.03 1.662-5.919 3.122-8.435Zm50.869-32.634c.891-.067 2.039-.123 2.766.437 2.043 1.571 2.283 5.732 2.554 8.176 1.367 12.307-1.477 20.045-12.03 27.034-2.378 1.575-5.12 2.92-6.876 5.224-.087.116-.169.236-.253.353-5.424-1.507-10.509-3.76-15.613-6.095-3.283-1.601-12.238-5.039-13.352-8.419-.593-1.799.146-3.738 1.139-5.233 4.655-7.001 33.054-19.643 41.665-21.477Z"/>
    <path fill="#000" d="M319.323 216.077c1.404-.061 2.691-.056 4.067.279a8.58 8.58 0 0 1 1.609.554 8.324 8.324 0 0 1 1.465.866 8.52 8.52 0 0 1 1.801 1.801 8.4 8.4 0 0 1 .47.711c1.187 2.002 1.664 4.44 1.844 6.733.36 4.588-.011 9.456-.003 14.07.021 9.025.099 18.049.235 27.073.192 31.397.871 62.784 2.037 94.159.96 33.577 2.527 67.125 4.701 100.645a2155.11 2155.11 0 0 0 2.94 37.484c.645 6.817 1.734 13.662 2.1 20.495.145 2.718.048 5.617-.783 8.222-1.349 4.223-4.219 8.004-7.51 10.914-6.585 5.822-27.617 15.628-36.476 20.202-3.736 2.033-8.685 4.947-13.07 3.983-3.561-.782-5.404-3.681-7.179-6.599-.862-12.773 2.897-27.708 4.405-40.553 2.014-17.152 3.29-34.491 4.436-51.717 3.462-52.08 3.691-104.112 4.215-156.279.088-12.846.111-25.692.069-38.538-.002-6.748-.246-13.608.164-20.341.281-4.625 1.053-9.212 3.334-13.309 4.988-8.959 15.242-17.934 25.129-20.855Z"/>
    <path fill="#FBFAF8" d="M319.258 220.04c1.076-.005 2.219.003 3.278.206 1.581.303 2.916 1.373 3.686 2.766.294.534.503 1.099.673 1.683 1.433 4.919.263 13.724.303 19.087l.49 51.207a3262.62 3262.62 0 0 0 5.27 151.315 1930.162 1930.162 0 0 0 3.509 48.241c.81 9.003 2.278 18.16 2.548 27.182.062 2.067-.012 4.109-.62 6.1-1.083 3.546-3.476 7.246-6.275 9.676-4.069 3.533-9.783 5.722-14.556 8.194a1161.356 1161.356 0 0 0-20.567 10.855c-.619.346-1.242.683-1.871 1.012-3.051 1.591-7.588 4.173-11.063 2.624-1.044-.466-1.656-1.296-2.065-2.332-.933-2.365-.947-5.21-.793-7.711.771-12.575 3.139-25.466 4.64-38.005a829.665 829.665 0 0 0 3.895-45.99c3.424-51.776 3.792-103.629 4.304-155.494.194-19.647-.932-39.663.121-59.25.222-4.131.856-7.92 2.702-11.684 4.202-8.569 13.474-16.463 22.391-19.682ZM597.47 55.845c.833-2.463 6.24-4.879 8.503-6.013 47.907-24.014 108.509-25.753 158.91-8.663 6.046 2.05 26.46 10.268 30.437 15.074-.983 1.33-2.722 1.567-2.809 3.221 1.017.663 1.097.755 2.296.713 1.196-.915 2.326-1.834 3.422-2.867 16.835 11.61 32.596 26.173 36.52 47.184 2.746 14.704-1.536 28.988-9.96 41.079-4.749 6.817-23.134 24.928-30.901 26.202-.161.026-.326.009-.489.014-1.259.406-1.889.602-2.816 1.606-4.505 3.279-10.211 5.795-15.258 8.184-36.485 17.27-80.133 19.739-119.523 13.432-8.394-1.344-46.839-11.779-50.911-17.427l1.774-1.601-1.912-2.325c-.552.869-.962 1.916-1.415 2.845l-.354.101c-18.82-9.371-37.351-24.337-44.733-44.656-4.819-13.265-3.61-28.244 2.444-40.897 4.931-10.308 21.812-29.875 32.473-33.45.814-.273 1.139-.393 1.906-.881.759-.482 1.154-.613 2.031-.755l.365-.12Z"/>
    <path fill="#000" d="M742.528 87.609c1.172.28 1.801.458 2.689 1.288-.013 1.438-.457 1.734-1.291 2.87-1.291-.174-1.629-.192-2.661-.957.003-1.417.55-1.998 1.263-3.201Zm-31.966 19.011c1.19.415 1.85.705 2.733 1.613-.16 1.47-.738 1.754-1.735 2.806-1.088-.188-1.281-.349-2.15-1.05-.049-1.52.43-2.056 1.152-3.369Zm7.245-3.969c1.02.554 1.13.562 1.622 1.598-.411 1.505-1.714 2.377-2.836 3.376-.798-.594-1.002-1.059-1.371-1.971.364-1.482 1.447-2.113 2.585-3.003Zm20.221-11.288c.986.444.931.384 1.322 1.391-.663 1.358-2.19 2.125-3.403 2.957-1.085-.694-1.219-.479-1.574-1.797.859-1.4 2.233-1.868 3.655-2.551Zm34.951 69.502c1.596.035 2.613.198 4.075.853.944 1.222 1.011 1.405 1.163 2.943-1.003.157-1.995.073-2.931-.367-1.254-.59-1.797-2.238-2.307-3.429Zm-168.226 12.793c1.381-.912 2.691-2.101 4.424-1.984l.638.715c-.265 1.231-.681 2.104-1.727 2.886-.43.322-.935.504-1.423.708l-1.912-2.325ZM766.4 73.968c.972.314 1.532.581 2.298 1.261-.331 1.473-1.704 2.008-2.896 2.882-.618.245-.928.158-1.575.086-.092-.363-.212-.713-.149-1.1.276-1.705 1.108-2.142 2.322-3.129Zm-147.228-4.246c1.145.167 2.472.462 3.386 1.244 1.106.947.972 2.01 1.078 3.33-1.507-.223-2.351-.42-3.681-1.24-.823-1.378-.784-1.707-.783-3.334Zm148.251 86.786c1.405.42 2.195.831 3.365 1.716.649 1.45.662 1.632.427 3.205-1.913-.837-3.461-1.33-4.414-3.277l.622-1.644Zm-70.755-36.507c-.196.175-.389.353-.588.524-1.331 1.145-1.847 1.643-3.576 1.533l-.686-.882c.062-1.382.063-1.496.896-2.59 1.533-.321 1.604-.174 3.032.525l.922.89Zm37.218 17.025c1.366.442 2.164.677 3.214 1.713.266 1.446.003 1.709-.609 3.075-.69-.376-1.408-.746-2.057-1.189-1.108-.758-1.406-1.079-1.658-2.392l1.11-1.207Zm26.852 15.857c1.573.203 2.313.586 3.622 1.402.891 1.455.928 1.523.785 3.219-1.193-.221-2.87-.554-3.709-1.541-1.038-1.219-.884-1.603-.698-3.08Zm-20.966-12.211c1.379.354 2.266.787 3.46 1.518.783 1.444.667 1.533.382 3.175-1.458-.139-2.235-.21-3.5-1.032-.718-1.529-.53-2.021-.342-3.661Zm-9.534-45.458c1.05.427 1.48.671 2.131 1.608-.481 1.582-1.455 2.133-2.668 3.228-1.01-.453-1.501-.69-2.115-1.627.429-1.606 1.426-2.122 2.652-3.209Zm-57.819 36.205c.815.624.747.7 1.114 1.591-.677 1.569-2.373 2.292-3.77 3.152-.768-.277-.94-.545-1.47-1.14l.146-1.073c1.147-1.335 2.391-1.83 3.98-2.53Zm45.519-3.114c1.653.379 2.951.673 4.359 1.644.814 1.399.728 1.564.575 3.198-1.065-.278-2.871-.741-3.71-1.534-1.19-1.124-1.093-1.772-1.224-3.308Zm62.748 35.925c1.42.381 2.491.691 3.702 1.582.615 1.621.4 1.919-.008 3.549-1.379-.578-2.424-1.174-3.643-2.042-.716-1.503-.563-1.478-.051-3.089ZM635.664 80.51c1.584.19 3.183.348 4.531 1.288 1.331.929 1.322 2.195 1.519 3.631-1.421-.43-3.039-1.142-4.276-1.96-1.304-.862-1.588-1.466-1.774-2.959Zm90.438 52.276c1.524.38 2.743.657 4.032 1.62.707 1.542.487 1.773.117 3.37-1.502-.529-2.628-1.055-3.921-1.991-.743-1.433-.631-1.416-.228-2.999Zm56.132-68.436c.658.123 1.02.454 1.563.83l.084.884c-.825 1.517-1.96 2.217-3.336 3.172-.56-.105-1.211-.396-1.753-.585l-.358-.905c.742-1.465 2.484-2.444 3.8-3.397Zm-170.167.558c1.34.486 3.204 1.052 4.199 2.128 1.01 1.093.792 1.744.612 3.067-1.485-.383-2.58-.782-3.919-1.526-1.01-1.511-.884-1.905-.892-3.669Zm161.047 4.424c1.153.287 2.23.394 2.991 1.392-.611 1.354-1.951 1.987-3.139 2.854l-.708.444-1.263-.354-.234-.654c.473-2.055.882-2.264 2.353-3.682ZM651.656 89.384c1.349.288 3.105.597 4.188 1.518 1.221 1.037 1.103 2.03 1.242 3.462-1.446-.382-3.278-.772-4.435-1.786-1.229-1.077-1.031-1.703-.995-3.194Zm58.886 34.385c1.826.206 2.834.59 4.268 1.682.834 1.683.711 1.864.422 3.633-1.555-.791-3.855-1.712-4.773-3.249-.45-.754-.098-1.264.083-2.066Zm-54.749 16.902c1.25.694 1.867.812 2.502 2.122-.655 1.32-2.311 1.907-3.559 2.581l-1.234.792c-.498-.705-.258-.885-.122-1.703l-.217-.175c.486-1.847 1.157-2.441 2.63-3.617Zm-11.777-56.083c2.973.932 5.335 2.229 7.119 4.846-1.683.148-2.856.198-4.471-.337-1.519-1.206-1.957-2.745-2.648-4.51Zm102.694 59.675c1.58.58 3.092.966 4.233 2.275.374 1.532.163 1.741-.43 3.233-1.149-.482-2.725-1.057-3.521-2.05-.973-1.214-.552-2.087-.282-3.458Zm5.488 4.65c1.657-.009 3.434.126 4.878 1.038 1.407.889 1.569 1.522 1.819 3.094-.73.234-1.357.465-2.138.279-2.111-.503-3.4-2.775-4.559-4.411ZM604.935 60.83c.266.055.533.101.797.165 1.637.401 3.48 1.09 4.314 2.642.429.798.088 1.242-.12 2.07-.435-.024-.644-.02-1.105-.127-1.649-.377-3.123-1.093-3.954-2.62-.509-.935-.195-1.176.068-2.13Zm63.181 38.015c1.753.553 3.257.964 4.695 2.142.65 1.383.535 1.304.017 2.762-.254.024-.507.075-.762.07-1.151-.02-2.274-.534-3.071-1.355-1.045-1.076-.928-2.25-.879-3.619Zm6.716 4.362c1.5.173 3.46.332 4.687 1.327 1.11.901 1.292 1.678 1.497 3.038-1.001.278-1.879.472-2.9.103-2.037-.737-2.619-2.62-3.284-4.468Zm115.751 70.188c-1.206-.777-2.624-1.499-3.366-2.767-.389-.665-.184-.94-.054-1.628l1.211-.281c2.069.369 3.444 1.776 5.025 3.07-1.259.406-1.889.602-2.816 1.606Zm-149.216-22.952c.812 1.218.942 1.203.764 2.634-1.274 1.4-2.75 1.846-4.488 2.507-.834-.849-.853-.808-.927-1.989 1.039-1.542 3.031-2.307 4.651-3.152Zm42.818-43.309c1.029.464 1.923 1.031 2.877 1.627.919 1.641.811 2.201.794 4.037-1.531-.66-3.062-1.014-4.445-1.998-.406-1.629.113-2.16.774-3.666Zm-19.801 28.749c.963.802 1.039.884 1.388 2.083-.839 1.597-2.569 2.44-4.053 3.381-1.117-.778-1.387-.728-1.675-2.035.844-1.581 2.853-2.5 4.34-3.429Zm-3.51-42.154c1.588.876 3.032 1.601 4.254 2.964.355 1.557.051 1.708-.666 3.077-1.522-.929-2.992-1.764-4.248-3.043-.422-1.558-.149-1.568.66-2.998Zm-44.02 72.201c.045.064.104.122.137.194.518 1.165.497 1.438.216 2.634-1.317 1.563-2.805 2.384-4.562 3.395-.574-.95-.737-1.171-.786-2.318 1.011-1.942 3.163-2.834 4.995-3.905Zm32.583-20.555c.767.705.889 1.097 1.09 2.11-.902 1.615-3.243 2.722-4.779 3.711-.991-.773-1.04-.689-1.232-1.916 1.06-1.753 3.228-2.813 4.921-3.905Zm37.753-24.169c.957.696 2.012 1.136 3.084 1.621l.063.736-2.754 2.615c-1.231.212-1.427.277-2.566-.196l-.28-.993c.392-1.883 1.038-2.52 2.453-3.783Zm-6.766 5.199c.762.55 1.137.98 1.621 1.785-.779 1.588-2.497 2.43-3.936 3.446-1.03-.032-1.498-.049-2.33-.684l.176-1.064c1.285-1.646 2.676-2.448 4.469-3.483Zm-82.954-70.56a13.82 13.82 0 0 0 1.567.932c1.632.815 2.846 1.323 3.652 3.078l-.514.852c-.478.136-.895.286-1.411.27-1.236-.037-2.531-.613-3.295-1.594-1.03-1.322-.649-1.941-.364-3.418l.365-.12Zm28.136 18.026c.154.018.311.021.464.053 2.582.54 6.917 3.517 8.216 5.764-2.27-.153-4.634-.544-6.481-1.987-1.324-1.035-2.027-2.149-2.199-3.83Z"/>
    <path fill="#000" d="M695.746 119.111c-.112-1.66-.218-1.952.629-3.458 1.12-.521 2.045-.864 3.3-.472.62.193.954.404 1.5.701.408 1.085.354 1.907.325 3.046.89.594.898.524 1.896.598 1.861.138 3.647.647 4.885 2.114.024 1.291.022.994-.728 1.875-4.011-.477-6.578-5.577-10.885-3.514l-.922-.89Z"/>
    <path fill="#FBFAF8" d="M539.104 244.152c45.018 41.263 107.089 57.857 167.255 55.219 54.65-2.396 113.702-18.816 151.591-60.627 4.805-5.302 8.77-10.993 12.221-17.252-.333 29.79-.397 59.58-.194 89.371l-.083 28.228c.005 9.794 1.121 20.882-1.477 30.382-3.376 12.345-11.763 23.507-20.778 32.344-22.292 21.85-52.846 34.976-82.424 43.894-.088-14.484-1.31-33.504.468-47.409 6.686-4.917 12.87-11.557 14.192-20.098.541-3.502-.01-7.139-2.252-9.974-2.857-3.614-7.738-5.154-12.088-6.094-7.88 2.531-13.893 7.717-17.632 15.112-2.203 4.355-3.677 9.919-2.018 14.701 1.041 2.999 3.105 5.203 5.992 6.51 3.466 1.57 6.693 1.47 10.377 1.248.002 15.479.165 30.976-.001 46.453-62.516 15.636-131.58 11.818-187.784-21.921-18.939-11.369-34.926-24.877-46.545-43.94-2.386-3.916-5.242-8.444-6.566-12.874-.956-3.201-1.296-91.919-.544-99.831 3.014-3.587 5.766-7.333 8.659-11.011 1.633-1.422 2.881-3.579 4.142-5.342 1.819-2.367 3.606-4.774 5.489-7.089Z"/>
    <path fill="#000" d="M564.089 290.664c7.596-.243 15.079 1.836 21.889 5.063 24.977 11.833 43.528 34.936 52.513 60.804 5.044 14.522 6.831 34.08-.188 48.272-3.891 7.867-10.314 12.492-18.41 15.263-.637.157-1.24.301-1.895.37-15.151 1.6-29.978-5.118-41.77-14.119-19.776-15.097-30.987-39.752-34.089-64.014-1.669-13.05-2.658-32.828 6.251-43.793 4.15-5.108 9.386-7.067 15.699-7.846Z"/>
    <path fill="#FBFAF8" d="M575.238 298.761c1.12.123 1.808.127 2.681.885-.405 2.265-.79 4.533-1.154 6.805-3.239 20.576 2.586 43.821 14.948 60.641 9.47 12.885 24.9 26.868 41.443 29.056.226.03.454.053.681.08l.577 1.108c-.129.072-.252.158-.388.217-2.106.919-5.738-.138-7.801-.8-20.065-6.434-35.812-22.948-44.953-41.448-8.292-16.781-12.089-38.48-6.034-56.544Z"/>
    <path fill="#FBFAF8" d="M560.285 295.558c2.816-.271 5.604-.115 8.424-.007-1.703 1.077-3.341 2.246-4.742 3.706-7.027 7.327-8.657 18.326-8.695 28.048-.091 23.742 9.089 49.142 26.002 66.096 12.037 12.066 25.121 18.515 42.211 18.567-1.156 1.055-2.557 1.902-3.849 2.783-.294.116-.587.236-.883.347-7.925 2.979-18.684-.051-26.067-3.336-19.237-8.559-33.074-25.937-40.428-45.284-6.021-15.837-10.838-45.079-3.335-61.028 2.488-5.288 5.991-8.016 11.362-9.892Z"/>
    <path fill="#FBFAF8" d="m571.173 297.91.391.12c.563 1.746-1.279 6.812-1.746 8.862-4.246 18.643 3.799 44.378 13.804 60.311 10.347 16.48 28.4 30.323 47.531 34.669l.372.778c-.167.575-.153.672-.553 1.233-1.557 2.186-5.597 3.398-8.067 3.894-3.26.252-6.354.199-9.575-.396-15.549-2.872-29.508-14.421-38.253-27.185-11.699-17.077-19.474-42.952-15.404-63.65 1.464-7.445 5.063-14.355 11.5-18.636Z"/>
    <path fill="#FBFAF8" d="M584.525 301.283c17.58 9.492 32.509 24.012 41.472 41.944 6.092 12.188 9.796 25.338 10.169 38.986.072 2.649.342 5.725-.499 8.255l-.939.367c-18.601-5.773-32.207-17.508-41.691-34.476-9.354-16.737-13.759-36.329-8.512-55.076Z"/>
  </g>
  <defs>
    <clipPath id="a">
      <path fill="#fff" d="M0 0h878v938H0z"/>
    </clipPath>
  </defs>
</svg>
