<svg xmlns="http://www.w3.org/2000/svg" width="347" height="383" fill="none" viewBox="0 0 347 383">
  <g clip-path="url(#a)">
    <path stroke="#000" stroke-linecap="round" stroke-width="12" d="M6.625 228.583v-74.166c0-69.92 0-104.89 21.73-126.603C50.088 6.102 85.039 6.084 154.959 6.084h37.084c69.92 0 104.89 0 126.602 21.73 12.126 12.108 17.485 28.332 19.84 52.436m1.891 74.167v74.166c0 69.921 0 104.891-21.731 126.603-21.731 21.712-56.682 21.731-126.602 21.731h-37.084c-69.92 0-104.89 0-126.602-21.731-12.126-12.108-17.485-28.332-19.84-52.436m90.817-74.167h92.709m-92.709-74.166h18.542m129.792 0H173.5"/>
  </g>
  <defs>
    <clipPath id="a">
      <path fill="#fff" d="M0 0h347v383H0z"/>
    </clipPath>
  </defs>
</svg>
