<svg xmlns="http://www.w3.org/2000/svg" width="411" height="411" fill="none" viewBox="0 0 411 411">
  <path fill="#000" d="M120.031 159.917a17.097 17.097 0 0 0-17.094 17.093 17.095 17.095 0 1 0 17.094-17.093Zm-17.094 142.448a17.095 17.095 0 1 1 34.19 0 17.095 17.095 0 0 1-34.19 0ZM.375 74.448A74.073 74.073 0 0 1 74.448.375h262.104a74.076 74.076 0 0 1 74.073 74.073v262.104a74.077 74.077 0 0 1-21.695 52.378 74.077 74.077 0 0 1-52.378 21.695H74.448A74.074 74.074 0 0 1 .375 336.552V74.448ZM68.75 177.01a51.283 51.283 0 0 0 87.543 36.262 51.291 51.291 0 0 0 15.019-36.262 51.281 51.281 0 1 0-102.562 0Zm51.281 74.073a51.282 51.282 0 1 0 .001 102.565 51.282 51.282 0 0 0-.001-102.565ZM205.5 177.01c0 9.436 7.658 17.094 17.094 17.094h102.562a17.094 17.094 0 1 0 0-34.187H222.594A17.094 17.094 0 0 0 205.5 177.01Zm17.094 108.261a17.094 17.094 0 1 0 0 34.187h102.562a17.094 17.094 0 1 0 0-34.187H222.594ZM68.75 74.448c0 9.436 7.658 17.094 17.094 17.094h239.312a17.092 17.092 0 0 0 17.094-17.094 17.093 17.093 0 0 0-17.094-17.094H85.844A17.094 17.094 0 0 0 68.75 74.448Z"/>
</svg>
