<svg xmlns="http://www.w3.org/2000/svg" width="531" height="423" fill="none" viewBox="0 0 531 423">
  <path fill="#000" d="M257.297 108.159c5.99-5.315 8.353-13.668 5.231-21.093-1.941-4.472-4.05-8.86-6.412-13.079l-2.616-4.556a149.383 149.383 0 0 0-8.269-12.319c-4.809-6.412-13.247-8.521-20.84-5.99l-23.794 7.847c-9.028-7.425-19.406-13.5-30.544-17.635l-5.147-24.468c-1.603-7.847-7.678-14.091-15.609-15.02-5.569-.759-11.222-1.096-16.96-1.096h-.59c-5.738 0-11.391.337-16.96 1.012-7.931.929-14.006 7.257-15.609 15.02l-5.147 24.552A107.76 107.76 0 0 0 63.487 58.97L39.61 51.206c-7.593-2.531-16.031-.422-20.84 5.99a175.317 175.317 0 0 0-8.353 12.32l-2.532 4.471c-2.362 4.22-4.472 8.607-6.412 13.163-3.122 7.34-.76 15.694 5.231 21.094l18.731 16.706A108.667 108.667 0 0 0 24 142.5c0 5.991.506 11.897 1.434 17.634l-18.73 16.707c-5.992 5.315-8.354 13.668-5.232 21.093 1.94 4.472 4.05 8.86 6.412 13.163l2.531 4.387c2.532 4.303 5.316 8.354 8.354 12.319 4.809 6.413 13.247 8.522 20.84 5.991l23.794-7.847c9.028 7.425 19.406 13.5 30.544 17.634l5.147 24.553c1.603 7.847 7.678 14.091 15.609 15.019a145.064 145.064 0 0 0 17.213 1.013c8.732 0 11.559-.338 17.212-1.013 7.931-.928 14.006-7.256 15.609-15.019l5.147-24.553a107.766 107.766 0 0 0 30.544-17.634l23.794 7.847c7.594 2.531 16.031.422 20.84-5.991 2.954-3.965 5.738-8.016 8.269-12.319l2.616-4.556c2.362-4.219 4.472-8.606 6.412-13.078 3.122-7.341.76-15.694-5.231-21.094l-18.731-16.706a110.529 110.529 0 0 0 1.434-17.634c0-5.991-.506-11.897-1.434-17.635l18.731-16.706.169.084ZM91.5 142.5a40.5 40.5 0 1 1 81.002 0 40.5 40.5 0 0 1-81.002 0Zm331.34 273.797c5.315 5.99 13.668 8.353 21.093 5.231 4.472-1.94 8.86-4.05 13.078-6.412l4.557-2.616a149.404 149.404 0 0 0 12.318-8.269c6.413-4.809 8.522-13.247 5.991-20.84l-7.847-23.794c7.425-9.028 13.5-19.406 17.635-30.544l24.553-5.147c7.847-1.603 14.09-7.678 15.018-15.609a145.064 145.064 0 0 0 1.013-17.213c0-8.732-.338-11.559-1.013-17.212-.928-7.931-7.256-14.006-15.018-15.609l-24.553-5.232a107.782 107.782 0 0 0-17.635-30.544l7.847-23.793c2.531-7.594.422-16.032-5.991-20.841-3.965-2.953-8.1-5.737-12.318-8.353l-4.472-2.531c-4.219-2.363-8.606-4.472-13.163-6.413-7.34-3.122-15.693-.759-21.093 5.232l-16.707 18.731a110.52 110.52 0 0 0-17.634-1.435c-5.991 0-11.897.507-17.634 1.435l-16.707-18.731c-5.315-5.991-13.668-8.354-21.093-5.232-4.472 1.941-8.86 4.05-13.163 6.413l-4.387 2.531c-4.304 2.531-8.354 5.316-12.319 8.353-6.413 4.809-8.522 13.247-5.991 20.841l7.847 23.793c-7.425 9.029-13.5 19.407-17.634 30.544l-24.553 5.063c-7.847 1.603-14.091 7.678-15.019 15.609a145.064 145.064 0 0 0-1.013 17.213c0 8.732.338 11.559 1.013 17.212.928 7.931 7.256 14.006 15.019 15.609l24.553 5.147a107.742 107.742 0 0 0 17.634 30.544l-7.847 23.794c-2.531 7.594-.422 16.031 5.991 20.84 3.965 2.954 8.015 5.738 12.319 8.269l4.556 2.616c4.219 2.362 8.606 4.472 13.078 6.412 7.341 3.122 15.694.76 21.094-5.231l16.706-18.731a110.529 110.529 0 0 0 17.634 1.434c5.991 0 11.897-.506 17.635-1.434l16.706 18.731-.084.169ZM388.5 250.5a40.51 40.51 0 0 1 28.638 11.862A40.5 40.5 0 1 1 388.5 250.5Z"/>
</svg>
