<svg xmlns="http://www.w3.org/2000/svg" width="169" height="177" fill="none" viewBox="0 0 169 177">
  <g clip-path="url(#a)">
    <path stroke="#000" stroke-linecap="round" stroke-linejoin="round" stroke-width="10" d="M38.442 5c-10.867 1.075-18.184 3.492-23.65 8.967C5 23.775 5 39.567 5 71.158v33.5c0 31.584 0 47.384 9.792 57.2 9.791 9.817 25.558 9.809 57.083 9.809H88.6c31.525 0 47.292 0 57.083-9.809 8.892-8.916 9.717-22.641 9.792-48.716"/>
    <path stroke="#000" stroke-linecap="round" stroke-linejoin="round" stroke-width="10" d="m71.875 46.667 8.358 29.166c4.667 9.25 10.525 11.667 25.084 12.5 11.575-.283 18.291-1.65 24.025-6.633 3.908-3.4 5.675-8.525 6.533-13.625l2.867-17.242m20.9-16.666v41.666M55.833 29.442c13.225-10.975 25.009-16.867 49.45-23.35a16.17 16.17 0 0 1 8.409.041c21.633 5.95 33.316 11.234 48.966 22.984.667.5.867 1.433.4 2.125-5.108 7.516-16.516 13.608-44.5 24.458a24.832 24.832 0 0 1-18.091-.1c-29.8-11.833-43.5-18.167-45.167-24.742a1.416 1.416 0 0 1 .533-1.416Z"/>
  </g>
  <defs>
    <clipPath id="a">
      <path fill="#fff" d="M0 0h169v177H0z"/>
    </clipPath>
  </defs>
</svg>
