<svg xmlns="http://www.w3.org/2000/svg" width="177" height="249" fill="none" viewBox="0 0 177 249">
  <g clip-path="url(#a)">
    <path fill="#000" d="M88.5 0C74.978 0 64.564 11.282 64.564 24.772c0 12.994-.091 24.362-.091 24.362H40.428c-.452 0-.89.05-1.322.122H32.42v23.359h112.16v-23.36h-6.688a8.026 8.026 0 0 0-1.322-.12h-24.042s.273-10.292.273-24.287C112.801 11.855 102.022 0 88.5 0ZM.353 23.693V249h176.294V23.693h-55.852v16.323h39.712v192.631H16.508V40.016h39.697V23.693H.353Zm88.147.304c4.43 0 8.01 3.565 8.01 7.979 0 4.422-3.58 7.994-8.01 7.994s-8.01-3.572-8.01-7.994c0-4.414 3.58-7.979 8.01-7.979ZM32.42 88.451v7.994h8.01v-7.994h-8.01Zm24.043.152v7.994h88.117v-7.994H56.463Zm-24.043 30v7.994h8.01v-7.994h-8.01Zm24.043.152v8.009h88.117v-8.009H56.463ZM32.42 148.756v7.994h8.01v-7.994h-8.01Zm24.043.167v7.994h88.117v-7.994H56.463Zm-24.043 30v7.994h8.01v-7.994h-8.01Zm24.043.167v7.994h88.117v-7.994H56.463ZM32.42 209.076v7.993h8.01v-7.993h-8.01Zm24.043.167v7.994h88.117v-7.994H56.463Z"/>
  </g>
  <defs>
    <clipPath id="a">
      <path fill="#fff" d="M0 0h177v249H0z"/>
    </clipPath>
  </defs>
</svg>
