<svg xmlns="http://www.w3.org/2000/svg" width="165" height="165" fill="none" viewBox="0 0 165 165">
  <g clip-path="url(#a)">
    <path fill="#000" d="M98.917 107.125c2.325 0 4.345-.854 6.057-2.561 1.713-1.707 2.567-3.726 2.561-6.058-.005-2.33-.859-4.347-2.561-6.05-1.701-1.701-3.721-2.558-6.057-2.568-2.337-.011-4.353.845-6.05 2.569-1.696 1.724-2.553 3.74-2.57 6.05-.016 2.309.84 4.328 2.57 6.057s3.746 2.583 6.05 2.561ZM92.76 80.858h12.313c0-3.967.41-6.873 1.231-8.717.821-1.844 2.736-4.274 5.746-7.289 4.104-4.104 6.84-7.42 8.208-9.948 1.368-2.529 2.052-5.505 2.052-8.931 0-6.156-2.156-11.182-6.468-15.079-4.312-3.896-9.954-5.847-16.925-5.852-5.61 0-10.499 1.573-14.669 4.72-4.17 3.146-7.078 7.319-8.725 12.517l11.081 4.515c1.231-3.42 2.909-5.984 5.032-7.691 2.123-1.708 4.55-2.564 7.28-2.57 3.284 0 5.952.925 8.004 2.775 2.052 1.85 3.078 4.345 3.078 7.486 0 1.915-.547 3.73-1.642 5.442-1.094 1.713-3.01 3.866-5.746 6.46-4.514 3.967-7.283 7.081-8.306 9.341-1.024 2.26-1.538 6.534-1.544 12.821ZM49.667 131.75c-4.515 0-8.378-1.606-11.59-4.818-3.213-3.212-4.822-7.079-4.827-11.599v-98.5c0-4.514 1.609-8.378 4.827-11.59 3.217-3.212 7.08-4.82 11.59-4.826h98.5c4.514 0 8.38 1.609 11.598 4.826 3.218 3.218 4.824 7.081 4.818 11.59v98.5c0 4.515-1.606 8.381-4.818 11.599-3.212 3.217-7.078 4.824-11.598 4.818h-98.5Zm-32.834 32.833c-4.514 0-8.378-1.606-11.59-4.818-3.212-3.212-4.82-7.078-4.826-11.598V33.25h16.416v114.917H131.75v16.416H16.833Z"/>
  </g>
  <defs>
    <clipPath id="a">
      <path fill="#fff" d="M0 0h165v165H0z"/>
    </clipPath>
  </defs>
</svg>
